<?xml version="1.0" encoding="UTF-8"?>
<svg width="160px" height="172px" viewBox="0 0 160 172" version="1.1" xmlns="http://www.w3.org/2000/svg" xmlns:xlink="http://www.w3.org/1999/xlink">
    <!-- Generator: Sketch 49.3 (51167) - http://www.bohemiancoding.com/sketch -->
    <title>404</title>
    <desc>Created with Sketch.</desc>
    <defs></defs>
    <g id="Blog" stroke="none" stroke-width="1" fill="none" fill-rule="evenodd">
        <g id="Mobile_10_404_01a" transform="translate(-20.000000, -103.000000)">
            <g id="404" transform="translate(20.000000, 104.000000)">
                <circle id="Oval" fill="#33C7F5" cx="79.4771242" cy="79.4771242" r="79.4771242"></circle>
                <path d="M94.3976904,35.5017301 C94.3587153,35.5406574 93.072537,39.0051903 91.1627571,44.299308 C86.2908697,57.6124567 81.4189823,70.9645329 76.8978708,84.3555363 C74.9101407,90.2724913 73.5070372,94.7102076 73.3511368,95.9948097 C73.2731866,96.5397924 74.637315,96.9290657 76.7809455,97.2015571 C81.7697582,97.9022491 87.3431974,97.9801038 92.4099603,98.0579585 C94.5535908,98.0968858 95.9956694,98.0968858 96.0346445,98.0968858 C96.0346445,100.121107 96.0346445,102.106401 96.0346445,104.091696 C95.9956694,104.091696 94.0469145,104.247405 91.123782,104.286332 C88.2006496,104.364187 84.3421148,104.32526 80.522555,104.052768 C76.7029953,103.780277 72.8834356,103.196367 70.1162035,102.145329 C67.3489715,101.094291 65.6340671,99.5761246 65.9068928,97.3961938 C66.0627932,95.9558824 67.5828221,91.2456747 69.7654276,84.9783737 C74.6762901,70.8088235 79.9769036,56.717128 85.2775171,42.6643599 C87.3821725,37.0977509 88.746301,33.4385813 88.7852761,33.399654 C90.6560808,34.100346 92.5268856,34.8010381 94.3976904,35.5017301 Z M45.9126669,127.058824 C41.3136052,120.324394 37.7668712,112.967128 35.3893901,105.220588 C33.0119091,97.5129758 31.7647059,89.41609 31.7647059,81.2802768 C31.7647059,58.8192042 40.8848791,38.4991349 55.6174666,23.8235294 C70.311079,9.10899654 90.6560808,0 113.144713,0 C129.436305,0 145.37712,4.90484429 158.823529,14.0527682 L155.471671,18.9965398 C142.960664,10.5103806 128.228077,5.99480969 113.144713,5.99480969 C92.3320101,5.99480969 73.4680621,14.4420415 59.8657524,28.066609 C46.2244677,41.6522491 37.7668712,60.4930796 37.7668712,81.2802768 C37.7668712,88.8711073 38.897149,96.3451557 41.1187297,103.468858 C43.3013353,110.631488 46.6142187,117.443772 50.8625045,123.711073 L45.9126669,127.058824 Z M131.307109,61.4273356 C125.65572,61.7776817 120.511007,60.9602076 115.87297,58.9359862 C111.234933,56.8728374 107.142548,53.6807958 103.634789,49.3209343 L108.311801,45.58391 C111.195958,49.1652249 114.547817,51.8122837 118.250451,53.4472318 C121.992061,55.0821799 126.240346,55.7439446 130.956333,55.4714533 L131.307109,61.4273356 Z M128.539877,70.0692042 C130.254782,71.7430796 133.060989,75.7136678 133.060989,78.16609 C133.060989,80.6574394 131.034284,82.6816609 128.539877,82.6816609 C126.084446,82.6816609 124.057741,80.6574394 124.057741,78.16609 C124.057741,75.7136678 126.980873,71.6262976 128.539877,70.0692042 Z M52.8892097,49.4377163 L53.7076868,49.9048443 C56.3579935,51.267301 60.099603,51.4230104 63.7242873,50.566609 C67.3099964,49.7102076 70.6228798,47.8806228 72.4157344,45.2724913 L72.9224107,44.3771626 L78.2619993,47.1410035 C77.9891736,47.6470588 77.6773728,48.1531142 77.3265969,48.6591696 C74.6762901,52.5519031 69.9992782,55.1989619 65.0884157,56.366782 C60.1775532,57.5735294 54.9159148,57.2621107 50.9404547,55.2378893 C50.4727535,54.9653979 49.9660772,54.6929066 49.498376,54.3425606 L52.8892097,49.4377163 Z M128.539877,88.4039792 C130.254782,90.0778547 133.060989,94.0484429 133.060989,96.5008651 C133.060989,98.9922145 131.034284,101.016436 128.539877,101.016436 C126.084446,101.016436 124.057741,98.9922145 124.057741,96.5008651 C124.057741,94.0484429 126.980873,89.9610727 128.539877,88.4039792 Z M54.0584626,65.5925606 C55.7343919,67.266436 58.5795742,71.2370242 58.5795742,73.7283737 C58.5795742,76.2197232 56.552869,78.2050173 54.0584626,78.2050173 C51.5640563,78.2050173 49.5373511,76.2197232 49.5373511,73.7283737 C49.5373511,71.2370242 52.4994587,67.149654 54.0584626,65.5925606 Z M54.0584626,83.9273356 C55.7343919,85.6012111 58.5795742,89.5717993 58.5795742,92.0631488 C58.5795742,94.5544983 56.552869,96.5397924 54.0584626,96.5397924 C51.5640563,96.5397924 49.5373511,94.5544983 49.5373511,92.0631488 C49.5373511,89.5717993 52.4994587,85.4844291 54.0584626,83.9273356 Z" id="Combined-Shape" stroke="#263338" stroke-width="2" fill="#263338" fill-rule="nonzero" transform="translate(95.294118, 63.529412) scale(-1, 1) translate(-95.294118, -63.529412) "></path>
                <text font-family="GothamRounded-Bold, Gotham Rounded" font-size="68" font-weight="bold" fill="#263338">
                    <tspan x="15" y="170">404</tspan>
                </text>
            </g>
        </g>
    </g>
</svg>