<svg width="151" height="171" viewBox="0 0 151 171" fill="none" xmlns="http://www.w3.org/2000/svg">
<path d="M87.2048 150.432L87.6235 168.02L57.1135 168.319C57.1135 168.319 56.934 164.729 62.7369 162.037C68.5398 159.345 69.7363 148.697 69.7363 148.697L87.2048 150.432Z" fill="url(#paint0_linear_4433_6542)"/>
<path d="M56.6946 168.738L88.1021 168.439L87.6833 150.013L69.3773 148.218L69.3175 148.637C69.3175 148.757 68.0611 159.046 62.5574 161.619C56.575 164.371 56.6348 168.14 56.6348 168.319L56.6946 168.738ZM87.1449 167.541L57.592 167.84C57.7715 166.883 58.609 164.43 62.9163 162.456C68.2406 160.004 69.796 151.269 70.0952 149.235L86.7261 150.91L87.1449 167.541Z" fill="#03A9F4"/>
<path d="M142.122 143.013L148.643 159.345L120.167 170.233C120.167 170.233 118.791 166.943 123.278 162.396C127.765 157.849 125.192 147.44 125.192 147.44L142.122 143.013Z" fill="url(#paint1_linear_4433_6542)"/>
<path d="M119.869 170.832L149.182 159.585L142.362 142.475L124.595 147.141L124.714 147.56C124.714 147.68 127.167 157.79 122.92 162.097C118.253 166.764 119.689 170.293 119.749 170.413L119.869 170.832ZM148.045 159.046L120.467 169.635C120.287 168.678 120.227 166.046 123.578 162.696C127.705 158.508 126.15 149.833 125.731 147.799L141.884 143.552L148.045 159.046Z" fill="#03A9F4"/>
<path d="M120.108 71.4047C125.013 79.6603 127.107 102.692 132.671 114.478C138.234 126.263 144.635 145.287 144.635 145.287L122.082 154.859C122.082 154.859 106.707 120.46 104.972 102.513C103.237 84.5659 103.656 69.0117 103.656 69.0117L120.108 71.4047Z" fill="#12101C"/>
<path d="M110.536 80.378C110.057 89.9498 97.7932 108.017 95.819 120.938C93.8449 133.86 88.7 157.132 88.7 157.132L64.5911 152.585C64.5911 152.585 67.7618 116.452 78.2309 94.1374C85.8883 77.8056 96.8959 66.9775 96.8959 66.9775L110.536 80.378Z" fill="#12101C"/>
<path d="M105.451 95.9323C105.63 95.9323 105.75 95.8725 105.87 95.6931L107.365 93.001L111.852 91.3857C112.091 91.3259 112.211 91.0268 112.151 90.7875C112.091 90.5482 111.792 90.4286 111.553 90.4884L106.767 92.1634L105.152 95.1546C105.032 95.3939 105.092 95.6332 105.331 95.7529C105.331 95.9323 105.391 95.9323 105.451 95.9323Z" fill="white"/>
<path d="M125.253 156.474C126.15 156.952 127.107 157.491 128.004 157.969C128.363 158.149 128.064 158.687 127.705 158.508C126.808 158.029 125.851 157.491 124.953 157.012C124.595 156.833 124.894 156.294 125.253 156.474Z" fill="#12101C"/>
<path d="M124.774 158.388C125.492 158.986 126.27 159.525 126.988 160.123C127.287 160.362 126.988 160.901 126.689 160.661L124.475 158.926C124.176 158.627 124.475 158.149 124.774 158.388Z" fill="#12101C"/>
<path d="M66.566 157.67C66.9249 158.448 67.2839 159.166 67.7026 159.944C67.8821 160.303 67.3437 160.602 67.1642 160.243L66.0276 157.969C65.9079 157.611 66.4463 157.311 66.566 157.67Z" fill="#12101C"/>
<path d="M64.8902 159.644C65.2491 160.422 65.6081 161.14 66.0269 161.918C66.2063 162.277 65.6679 162.576 65.4884 162.217L64.3518 159.944C64.1723 159.644 64.7107 159.345 64.8902 159.644Z" fill="#12101C"/>
<path d="M69.2578 151.807C69.4971 151.807 69.6766 151.628 69.6766 151.389C70.6338 116.691 91.2729 78.9423 91.4524 78.5834C91.572 78.3441 91.5122 78.1048 91.2729 77.9851C91.0336 77.8655 90.7943 77.9253 90.6747 78.1646C90.4952 78.5235 69.7962 116.452 68.7792 151.389C68.7792 151.628 69.0185 151.807 69.2578 151.807Z" fill="white"/>
<path d="M87.3252 86.3603C87.3851 86.3603 87.4449 86.3603 87.5047 86.3603C87.744 86.3005 87.8637 86.0014 87.744 85.7621C86.6074 82.7111 87.9833 78.5234 87.9833 78.4636C88.0431 78.2243 87.9235 77.985 87.6842 77.8653C87.4449 77.8055 87.2056 77.9252 87.0859 78.1645C87.0261 78.3439 85.5305 82.7111 86.8467 86.0612C86.9663 86.2407 87.1458 86.3603 87.3252 86.3603Z" fill="white"/>
<path d="M90.3751 18.8198C88.5205 23.2468 88.4009 27.9728 94.2038 29.8274C98.1521 31.0837 102.878 29.2291 104.733 24.8022C106.587 20.3753 104.852 15.4697 100.904 13.7946C96.9557 12.1196 92.2296 14.3929 90.3751 18.8198Z" fill="white"/>
<path d="M96.716 30.6648C100.246 30.6648 103.715 28.5111 105.151 24.9815C107.065 20.3153 105.271 15.1704 101.083 13.3757C96.8955 11.6408 91.9301 13.974 89.956 18.6402C88.6398 21.8109 88.4604 24.5029 89.3577 26.5369C90.1354 28.2718 91.7507 29.4683 94.024 30.246C94.9811 30.5451 95.8785 30.6648 96.716 30.6648ZM98.2116 13.7347C99.0491 13.7347 99.9465 13.9141 100.784 14.2731C104.493 15.8285 106.108 20.4948 104.373 24.6824C102.519 29.0495 97.8526 30.5451 94.3829 29.4084C92.2891 28.7504 90.9131 27.6736 90.2551 26.178C89.4175 24.3833 89.597 21.9305 90.8533 18.9992C92.1694 15.7687 95.1606 13.7347 98.2116 13.7347Z" fill="#12101C"/>
<path d="M93.6659 18.9992C93.3355 18.9992 93.0677 18.7314 93.0677 18.401C93.0677 18.0706 93.3355 17.8027 93.6659 17.8027C93.9963 17.8027 94.2642 18.0706 94.2642 18.401C94.2642 18.7314 93.9963 18.9992 93.6659 18.9992Z" fill="#12101C"/>
<path d="M93.2466 12.8373C93.2466 8.88894 99.7674 13.3159 100.904 13.8543C104.434 14.5123 107.544 19.1786 106.468 23.3064C105.57 26.836 101.502 31.0237 99.3486 30.0067C95.819 27.9128 95.2806 24.4431 96.8958 21.1528C96.2976 20.4349 97.0155 19.3581 96.7164 18.5205C96.2976 17.1446 93.1868 14.2132 93.2466 12.8373Z" fill="#12101C"/>
<path d="M98.1522 20.7938C104.733 20.1955 103.955 25.46 101.502 26.6565C99.4683 27.6137 96.3575 27.2547 95.1012 24.2635C93.8449 21.3322 98.1522 20.7938 98.1522 20.7938Z" fill="white"/>
<path d="M97.554 23.0672C98.8102 22.4092 100.366 22.7083 101.263 23.8449C101.502 24.1441 101.084 24.5628 100.844 24.2637C100.126 23.3664 98.8701 23.0673 97.8531 23.6057C97.4941 23.7851 97.195 23.2467 97.554 23.0672Z" fill="#12101C"/>
<path d="M89.8959 20.3153C90.554 19.1787 91.3915 18.1019 92.4085 17.2045C92.7076 16.9652 93.1264 17.384 92.8273 17.6233C91.8701 18.5206 91.0924 19.4778 90.4343 20.6145C90.195 20.9136 89.7164 20.6145 89.8959 20.3153Z" fill="#12101C"/>
<path d="M39.2028 1.58887H69.688V32.0741H39.2028V1.58887Z" fill="url(#paint2_linear_4433_6542)"/>
<path d="M54.4441 24.1212C57.1897 24.1212 59.6512 22.7011 60.9766 20.3342C61.166 19.9555 61.0713 19.5768 60.6926 19.3875C60.3139 19.1981 59.9352 19.2928 59.7459 19.6715C58.7044 21.565 56.6216 22.7958 54.4441 22.7958C51.1305 22.7958 48.3849 20.0502 48.3849 16.7366C48.3849 13.423 51.1305 10.6774 54.4441 10.6774C57.7577 10.6774 60.5032 13.423 60.5032 16.7366C60.5032 17.1153 60.7873 17.494 61.2606 17.494C61.734 17.494 62.0181 17.21 62.0181 16.7366C62.0181 12.5709 58.6098 9.25732 54.5388 9.25732C50.4677 9.25732 47.0594 12.6656 47.0594 16.7366C47.0594 20.8076 50.2784 24.1212 54.4441 24.1212Z" fill="white"/>
<path d="M54.4445 28.2869C60.8823 28.2869 66.1841 22.9851 66.1841 16.5472C66.1841 10.1094 60.8823 4.80762 54.4445 4.80762C51.2255 4.80762 48.0066 6.22774 45.829 8.5946C45.545 8.87862 45.545 9.35197 45.829 9.636C46.1131 9.92002 46.5865 9.92002 46.8705 9.636C48.8587 7.55316 51.6042 6.32239 54.4445 6.32239C60.1249 6.32239 64.764 10.9615 64.764 16.6419C64.764 22.3224 60.1249 26.9614 54.4445 26.9614C48.764 26.9614 44.1249 22.3224 44.1249 16.6419C44.1249 15.3165 44.4089 14.0857 44.8823 12.855C45.0716 12.4763 44.8823 12.0976 44.5036 11.9082C44.1249 11.7189 43.7462 11.9082 43.5569 12.2869C42.9888 13.707 42.7048 15.1271 42.7048 16.6419C42.7048 23.0798 47.9119 28.2869 54.4445 28.2869Z" fill="white"/>
<path d="M136.977 48.4327C139.37 56.4491 134.405 66.1405 127.525 70.3282L126.687 69.1317C124.952 70.0889 116.816 64.4655 114.663 61.1153C117.415 60.0385 119.867 59.201 120.406 56.0902C121.961 47.7149 112.031 49.5096 105.45 51.4837C103.835 45.0228 103.236 34.9126 103.236 34.9126C119.15 30.7848 133.208 35.81 136.977 48.4327Z" fill="url(#paint3_linear_4433_6542)"/>
<path d="M127.406 70.9261L127.765 70.6868C134.405 66.6188 139.969 56.8676 137.396 48.253C133.627 35.6302 119.868 30.0666 103.117 34.3739L102.758 34.4935V34.8525C102.758 34.9721 103.357 45.0823 104.972 51.4835L105.092 51.962L105.57 51.8424C112.33 49.8084 116.937 49.6888 118.911 51.4237C119.928 52.3808 120.287 53.8764 119.928 55.9104C119.389 58.7221 117.236 59.5597 114.544 60.5767L114.005 60.7561L114.245 61.2347C116.219 64.2857 123.816 69.9091 126.449 69.5502L127.406 70.9261ZM113.886 33.8953C125.133 33.8953 133.747 39.2196 136.559 48.5521C138.952 56.6283 133.867 65.7215 127.645 69.7297L126.808 68.5332L126.449 68.7127C125.192 69.3707 117.954 64.7643 115.321 61.2945C117.894 60.2775 120.227 59.2605 120.825 56.0899C121.244 53.6969 120.825 51.9022 119.569 50.7656C117.355 48.7914 112.749 48.7914 105.809 50.8254C104.493 45.202 103.895 37.0061 103.716 35.1516C107.305 34.3141 110.715 33.8953 113.886 33.8953Z" fill="url(#paint4_linear_4433_6542)"/>
<path d="M121.544 71.3449C123.1 70.986 124.655 70.3877 126.151 69.61C124.775 67.6957 123.638 65.3626 122.502 63.0893C121.664 61.2946 120.827 59.6793 119.869 58.1837L119.81 58.0641C119.51 57.5855 118.972 57.3462 118.075 57.2265H117.835L117.716 56.9872C117.237 56.0301 116.818 55.8506 116.34 55.8506C115.981 55.8506 115.502 55.9702 114.904 56.2694C114.665 56.389 114.545 56.5086 114.485 56.7479C114.306 57.5256 114.964 59.0212 116.28 60.9356L116.639 61.3544L116.22 61.5937C115.981 61.7731 115.682 61.8928 115.442 62.0124C116.101 62.9696 116.759 63.9866 117.357 64.9438C118.793 66.9778 120.228 69.1913 121.544 71.3449Z" fill="white"/>
<path d="M116.399 56.3292C116.1 56.3292 115.681 56.4489 115.143 56.6882C115.023 56.748 114.963 56.8078 114.963 56.8677C114.903 57.0471 114.784 58.0043 116.698 60.6365L117.237 61.4142L116.399 61.8929C116.279 61.9527 116.16 62.0125 116.04 62.0723C116.579 62.9099 117.177 63.7474 117.715 64.5849C119.031 66.6189 120.407 68.6529 121.664 70.7468C122.92 70.4476 124.176 69.9691 125.373 69.3708C124.116 67.5163 123.039 65.3028 122.022 63.209C121.185 61.4741 120.347 59.799 119.45 58.3633L119.39 58.2436C119.211 58.0043 118.971 57.7052 118.014 57.5856L117.536 57.5257L117.296 57.107C116.878 56.3293 116.638 56.3292 116.399 56.3292ZM116.399 55.4319C117.177 55.4319 117.655 55.9105 118.134 56.8079C119.151 56.9275 119.809 57.2864 120.168 57.8847C122.441 61.5339 124.116 66.3796 126.749 69.7896C125.014 70.7467 123.159 71.4646 121.245 71.8834C119.211 68.4136 116.878 65.1832 114.724 61.7732C115.083 61.6536 115.502 61.4143 115.92 61.175C114.545 59.2606 113.109 56.6284 114.724 55.8507C115.442 55.5515 115.98 55.4319 116.399 55.4319Z" fill="#12101C"/>
<path d="M89.4777 79.3016C102.1 79.3016 123.458 73.3192 124.415 73.0201L125.073 72.8406L124.654 72.3022C124.594 72.2424 118.672 64.2859 115.381 50.8854C111.852 36.4679 107.724 32.4597 98.3914 34.4937C90.0759 36.2884 85.1704 44.5441 84.1534 58.3035C83.4355 68.5932 85.1106 78.5239 85.1704 78.5837L85.2302 78.8828L85.5293 78.9427C86.7258 79.2418 88.0419 79.3016 89.4777 79.3016ZM123.577 72.3621C119.509 73.4389 96.4771 79.5409 86.0079 78.2248C85.4097 74.4559 80.3845 39.3992 98.5709 35.4509C107.365 33.5365 111.074 37.1858 114.484 51.1845C117.356 62.7304 122.201 70.3281 123.577 72.3621Z" fill="#03A9F4"/>
<path d="M93.427 39.5784L106.409 36.8863L105.272 31.3228L91.6322 32.8782L93.427 39.5784ZM105.392 36.2283L94.085 38.5614L92.8287 33.7157L104.614 32.3996L105.392 36.2283Z" fill="#03A9F4"/>
<path d="M114.664 48.9113C114.724 48.9113 114.783 48.9112 114.843 48.8514C115.082 48.7318 115.202 48.4925 115.082 48.2532L112.749 42.5101C112.63 42.2708 112.39 42.1512 112.151 42.2708C111.912 42.3905 111.792 42.6298 111.912 42.869L114.245 48.6121C114.305 48.7916 114.484 48.9113 114.664 48.9113Z" fill="white"/>
<path d="M49.0359 27.1351C49.2154 24.0841 51.4887 23.5457 51.4887 23.5457C51.6681 21.751 54.2406 21.2126 54.2406 21.2126C53.5227 17.8027 52.4459 16.666 52.9843 15.649C53.8218 14.0337 55.3174 15.2302 56.9925 18.9393C57.1719 19.358 57.3514 19.7768 57.5309 20.1956C57.9496 19.8965 58.4881 19.9563 59.2059 20.7938C60.881 22.8877 61.7783 25.1011 61.0605 30.1263C61.2399 30.5451 61.4194 30.904 61.6587 31.263L53.5825 41.8518C53.5825 41.8518 51.728 40.7151 51.2494 36.9462C50.9503 34.8524 50.5913 31.8014 50.2922 30.246C48.5573 30.4853 48.9761 28.6905 49.0359 27.1351Z" fill="white"/>
<path d="M53.643 42.39L62.1978 31.2628L62.0781 31.0235C61.8986 30.7244 61.7192 30.4253 61.5995 30.0664C62.3174 24.9813 61.4201 22.708 59.6253 20.4946C58.9673 19.657 58.3092 19.5374 57.8904 19.5972C57.7708 19.2981 57.6512 18.999 57.5315 18.7597C56.2154 15.948 55.0787 14.572 54.0019 14.5122C53.643 14.5122 53.1045 14.6917 52.6858 15.4694C52.3268 16.2471 52.5661 16.965 52.9849 18.1016C53.2242 18.8195 53.5832 19.7169 53.8224 20.9732C53.0447 21.2124 51.4893 21.8705 51.1902 23.3063C50.5321 23.6054 48.8571 24.5028 48.7374 27.1948C48.7374 27.4341 48.6776 27.6136 48.6776 27.8529C48.6178 28.8699 48.4981 29.8869 49.0964 30.4253C49.3357 30.6646 49.6348 30.7244 49.9937 30.7244C50.233 31.9209 50.4723 33.7156 50.6518 35.271C50.7116 35.8693 50.8313 36.4675 50.8911 37.0059C51.4295 40.9542 53.3439 42.2105 53.4635 42.2704L53.643 42.39ZM61.1209 31.1432L53.5233 41.1337C53.0447 40.6551 52.0278 39.339 51.6688 36.8264C51.609 36.288 51.5491 35.7496 51.4295 35.1514C51.1902 33.3567 50.9509 31.2628 50.6518 30.1262L50.5321 29.7074L50.1134 29.7672C49.9339 29.8271 49.6348 29.827 49.5151 29.7074C49.2758 29.4681 49.3357 28.5708 49.3955 27.8529C49.3955 27.6136 49.4553 27.3743 49.4553 27.1948C49.575 24.5626 51.4893 24.0241 51.5492 24.0241L51.8483 23.9643L51.9081 23.6652C52.0277 22.2294 54.301 21.7509 54.301 21.691L54.7198 21.5714L54.66 21.1526C54.3609 19.657 53.9421 18.5802 53.7028 17.7427C53.3439 16.7257 53.1644 16.2471 53.4037 15.8283C53.5831 15.5292 53.7028 15.3497 53.8823 15.3497C54.0617 15.3497 54.9591 15.5292 56.6342 19.0588C56.8136 19.4776 56.9931 19.8963 57.1726 20.3151L57.3521 20.7937L57.8306 20.4946C57.9503 20.4347 58.2494 20.1954 58.9075 20.9732C60.5227 23.0072 61.3602 25.101 60.6424 29.9467V30.0664L60.7022 30.186C60.8218 30.6048 60.9415 30.9039 61.1209 31.1432Z" fill="#12101C"/>
<path d="M61.4203 30.7842C64.591 37.1255 66.625 39.4586 70.3939 40.5354C76.0771 42.2105 89.6571 34.7325 98.152 36.1085L100.186 53.5172C100.186 53.5172 87.8624 61.5335 73.6243 60.3969C61.3007 59.3799 53.1048 46.7571 51.6092 40.5354C53.1048 36.4076 58.0104 33.0575 61.4203 30.7842Z" fill="url(#paint5_linear_4433_6542)"/>
<path fill-rule="evenodd" clip-rule="evenodd" d="M84.482 60.1531C81.9566 60.6674 79.2453 60.9952 76.436 60.9952C75.5386 60.9952 74.5815 60.9354 73.5047 60.8157C61.0613 59.7987 52.686 46.9367 51.1306 40.5953L51.0708 40.4757L51.1306 40.3561C52.6672 36.1009 57.6484 32.7215 60.9987 30.4486L61.1212 30.3655L61.5399 30.0664L61.7792 30.545C64.9498 36.8863 66.924 39.04 70.5135 40.057C73.1305 40.8302 77.6398 39.5337 82.3951 38.1665L82.4782 38.1426C82.6113 38.105 82.7446 38.0673 82.878 38.0296C86.2412 37.0783 89.68 36.1057 92.8551 35.6953L92.2306 33.2971L104.973 31.8613L105.618 35.0036C110.056 36.5212 112.58 41.5493 114.902 51.0047C118.252 64.6445 124.235 72.5412 124.235 72.5412C124.235 72.5412 97.0749 80.1986 85.529 78.5236C85.5318 78.5264 85.5189 78.4405 85.4938 78.2738C85.2696 76.7855 84.0753 68.8564 84.482 60.1531ZM84.5337 59.1865C81.187 59.8783 77.4987 60.2377 73.6841 59.9184C61.7194 58.9612 53.6432 46.6974 52.0878 40.5355C53.5235 36.7068 58.0103 33.596 61.2408 31.3825C64.3516 37.6042 66.5053 39.8176 70.2742 40.8945C73.0129 41.6933 77.3843 40.4785 82.0907 39.1707C82.3188 39.1073 82.5477 39.0437 82.7773 38.9801C82.9102 38.9421 83.0436 38.904 83.1774 38.8657C86.4066 37.9422 89.882 36.9483 93.0745 36.5376L93.2607 37.2527C87.1674 41.6193 85.0478 50.6704 84.5337 59.1865Z" fill="url(#paint6_linear_4433_6542)"/>
<path d="M86.9041 59.2603C86.9639 59.2603 87.0237 59.2603 87.0835 59.2005C87.0835 59.2005 89.1774 58.3031 91.2114 58.3031C91.4507 58.3031 91.6301 58.1236 91.6899 57.8843C91.6899 57.645 91.5105 57.4058 91.2114 57.4058C88.9979 57.4058 86.8442 58.3031 86.7246 58.3629C86.4853 58.4826 86.3656 58.7219 86.4853 58.9612C86.5451 59.1406 86.7246 59.2603 86.9041 59.2603Z" fill="#12101C"/>
<path d="M54.7208 21.7511L55.1396 22.9476C55.2592 23.3065 54.7208 23.486 54.5413 23.127C54.4217 22.7083 54.2422 22.3493 54.1226 21.9306C54.0029 21.5118 54.6011 21.3922 54.7208 21.7511Z" fill="#12101C"/>
<path d="M49.5748 27.3146C49.6346 26.9556 50.2328 27.0753 50.173 27.4941C50.1132 27.9727 50.173 28.4512 50.3525 28.9298C50.4721 29.2888 49.9337 29.4682 49.7542 29.1093C49.5149 28.4512 49.4551 27.9128 49.5748 27.3146Z" fill="#12101C"/>
<path d="M58.0097 21.0331C58.7276 22.4091 59.2062 23.8449 59.4455 25.4003C59.5053 25.7592 58.9071 25.9387 58.8473 25.5797C58.608 24.0842 58.1892 22.7082 57.4713 21.3322C57.3517 20.9733 57.8303 20.6742 58.0097 21.0331Z" fill="#12101C"/>
<path d="M51.8483 23.9046C51.9679 24.1439 52.0277 24.443 52.1474 24.6823C52.267 25.0413 51.7286 25.2207 51.5491 24.8618C51.4295 24.6225 51.3697 24.3234 51.25 24.0841C51.1304 23.7252 51.7286 23.5457 51.8483 23.9046Z" fill="#12101C"/>
<defs>
<linearGradient id="paint0_linear_4433_6542" x1="57.1129" y1="152.593" x2="87.6235" y2="152.593" gradientUnits="userSpaceOnUse">
<stop stop-color="#4DD1F6"/>
<stop offset="1" stop-color="#0381F6"/>
</linearGradient>
<linearGradient id="paint1_linear_4433_6542" x1="119.968" y1="148.418" x2="148.643" y2="148.418" gradientUnits="userSpaceOnUse">
<stop stop-color="#4DD1F6"/>
<stop offset="1" stop-color="#0381F6"/>
</linearGradient>
<linearGradient id="paint2_linear_4433_6542" x1="54.4454" y1="1.58887" x2="54.4454" y2="32.0741" gradientUnits="userSpaceOnUse">
<stop stop-color="#FFD24D"/>
<stop offset="1" stop-color="#FF9F1A"/>
</linearGradient>
<linearGradient id="paint3_linear_4433_6542" x1="103.236" y1="40.8118" x2="137.586" y2="40.8118" gradientUnits="userSpaceOnUse">
<stop stop-color="#4DD1F6"/>
<stop offset="1" stop-color="#0381F6"/>
</linearGradient>
<linearGradient id="paint4_linear_4433_6542" x1="102.758" y1="40.4782" x2="138.038" y2="40.4782" gradientUnits="userSpaceOnUse">
<stop stop-color="#4DD1F6"/>
<stop offset="1" stop-color="#0381F6"/>
</linearGradient>
<linearGradient id="paint5_linear_4433_6542" x1="93.2535" y1="37.1304" x2="64.2479" y2="54.8217" gradientUnits="userSpaceOnUse">
<stop stop-color="#4DD1F6"/>
<stop offset="1" stop-color="#0381F6"/>
</linearGradient>
<linearGradient id="paint6_linear_4433_6542" x1="98.9067" y1="32.3213" x2="100.749" y2="78.1041" gradientUnits="userSpaceOnUse">
<stop stop-color="#4DD1F6"/>
<stop offset="1" stop-color="#0381F6"/>
</linearGradient>
</defs>
</svg>
