<svg width="899" height="1254" viewBox="0 0 899 1254" fill="none" xmlns="http://www.w3.org/2000/svg">
<g clip-path="url(#clip0_134_9014)">
<g filter="url(#filter0_b_134_9014)">
<path fill-rule="evenodd" clip-rule="evenodd" d="M106.683 723.727C121.951 738.992 146.706 738.988 161.975 723.731C177.243 708.454 177.247 683.703 161.983 668.43L36.1806 542.626C20.9079 527.357 -3.8505 527.357 -19.1192 542.63C-34.3841 557.899 -34.3919 582.654 -19.1232 597.927L106.683 723.727Z" fill="white" fill-opacity="0.35" stroke="white" stroke-opacity="0.65"/>
<path fill-rule="evenodd" clip-rule="evenodd" d="M306.683 927.552C321.951 942.817 346.706 942.813 361.975 927.556C377.243 912.279 377.247 887.528 361.983 872.255L236.181 746.451C220.908 731.182 196.149 731.182 180.881 746.455C165.616 761.724 165.608 786.479 180.877 801.752L306.683 927.552Z" fill="white" fill-opacity="0.35" stroke="white" stroke-opacity="0.65"/>
<path fill-rule="evenodd" clip-rule="evenodd" d="M98.5619 566.702C113.854 581.994 138.659 582.002 153.951 566.706C169.258 551.399 169.251 526.608 153.951 511.309L-64.7113 292.65C-79.9991 277.35 -104.805 277.35 -120.097 292.646C-135.396 307.945 -135.396 332.74 -120.097 348.043L98.5619 566.702Z" fill="white" fill-opacity="0.35" stroke="white" stroke-opacity="0.65"/>
<path fill-rule="evenodd" clip-rule="evenodd" d="M845.61 1033.7C830.246 1018.33 805.326 1018.33 789.958 1033.7C774.586 1049.07 774.586 1073.99 789.95 1089.35L845.61 1033.7Z" fill="white" fill-opacity="0.35" stroke="white" stroke-opacity="0.65"/>
<path fill-rule="evenodd" clip-rule="evenodd" d="M167.651 465.716C182.923 480.992 207.693 480.996 222.969 465.716C238.249 450.44 238.249 425.674 222.969 410.402L-278.793 -91.3699C-294.065 -106.646 -318.835 -106.642 -334.118 -91.3699C-349.39 -76.0861 -349.39 -51.316 -334.11 -36.0478L167.651 465.716Z" fill="white" fill-opacity="0.35" stroke="white" stroke-opacity="0.65"/>
<path fill-rule="evenodd" clip-rule="evenodd" d="M258.558 555.703C273.85 570.996 298.659 571 313.954 555.707C329.254 540.407 329.254 515.604 313.954 500.304L299.286 485.654C284.002 470.35 259.193 470.347 243.902 485.651C228.602 500.939 228.606 525.75 243.902 541.046L258.558 555.703Z" fill="white" fill-opacity="0.35" stroke="white" stroke-opacity="0.65"/>
<path fill-rule="evenodd" clip-rule="evenodd" d="M94.243 1026.48C109.615 1041.84 134.535 1041.84 149.9 1026.48C165.268 1011.1 165.276 986.184 149.9 970.815L-81.3886 739.523C-96.7529 724.159 -121.673 724.159 -137.041 739.523C-152.413 754.9 -152.413 779.82 -137.049 795.185L94.243 1026.48Z" fill="white" fill-opacity="0.35" stroke="white" stroke-opacity="0.65"/>
<path fill-rule="evenodd" clip-rule="evenodd" d="M-69.0181 1166.77C-53.8148 1181.98 -29.1766 1181.98 -13.9694 1166.77C1.23002 1151.57 1.22613 1126.93 -13.9694 1111.74L-85.1283 1040.58C-100.332 1025.37 -124.97 1025.37 -140.173 1040.57C-155.373 1055.78 -155.369 1080.42 -140.173 1095.62L-69.0181 1166.77Z" fill="white" fill-opacity="0.35" stroke="white" stroke-opacity="0.65"/>
<path fill-rule="evenodd" clip-rule="evenodd" d="M142.982 921.772C158.185 936.975 182.823 936.975 198.029 921.776C213.232 906.569 213.225 881.931 198.029 866.732L126.873 795.579C111.67 780.372 87.0323 780.376 71.8294 795.571C56.6265 810.774 56.6304 835.42 71.8294 850.619L142.982 921.772Z" fill="white" fill-opacity="0.35" stroke="white" stroke-opacity="0.65"/>
<path fill-rule="evenodd" clip-rule="evenodd" d="M-2.43737 780.701C12.8544 795.997 37.6603 796.001 52.9521 780.701C68.2516 765.402 68.2556 740.608 52.956 725.308L-165.707 506.646C-181.003 491.35 -205.805 491.35 -221.097 506.65C-236.396 521.949 -236.396 546.743 -221.097 562.043L-2.43737 780.701Z" fill="white" fill-opacity="0.35" stroke="white" stroke-opacity="0.65"/>
</g>
</g>
<g opacity="0.45">
<g filter="url(#filter1_f_134_9014)">
<circle r="125.007" transform="matrix(-0.902156 -0.431409 -0.431409 0.902156 -57.8658 439.706)" fill="#AD168C" fill-opacity="0.85"/>
</g>
<g filter="url(#filter2_f_134_9014)">
<circle r="178.115" transform="matrix(-0.902156 -0.431409 -0.431409 0.902156 -43.4717 678.183)" fill="#03A9F4"/>
</g>
</g>
<defs>
<filter id="filter0_b_134_9014" x="-1395.07" y="-418.5" width="3360" height="2798.19" filterUnits="userSpaceOnUse" color-interpolation-filters="sRGB">
<feFlood flood-opacity="0" result="BackgroundImageFix"/>
<feGaussianBlur in="BackgroundImage" stdDeviation="1.5"/>
<feComposite in2="SourceAlpha" operator="in" result="effect1_backgroundBlur_134_9014"/>
<feBlend mode="normal" in="SourceGraphic" in2="effect1_backgroundBlur_134_9014" result="shape"/>
</filter>
<filter id="filter1_f_134_9014" x="-522.902" y="-25.3308" width="930.073" height="930.073" filterUnits="userSpaceOnUse" color-interpolation-filters="sRGB">
<feFlood flood-opacity="0" result="BackgroundImageFix"/>
<feBlend mode="normal" in="SourceGraphic" in2="BackgroundImageFix" result="shape"/>
<feGaussianBlur stdDeviation="170" result="effect1_foregroundBlur_134_9014"/>
</filter>
<filter id="filter2_f_134_9014" x="-618.628" y="103.027" width="1150.31" height="1150.31" filterUnits="userSpaceOnUse" color-interpolation-filters="sRGB">
<feFlood flood-opacity="0" result="BackgroundImageFix"/>
<feBlend mode="normal" in="SourceGraphic" in2="BackgroundImageFix" result="shape"/>
<feGaussianBlur stdDeviation="198.5" result="effect1_foregroundBlur_134_9014"/>
</filter>
<clipPath id="clip0_134_9014">
<rect width="990" height="965" fill="white" transform="matrix(-1 0 0 1 898.429 81)"/>
</clipPath>
</defs>
</svg>
