<svg width="990" height="662" viewBox="0 0 990 662" fill="none" xmlns="http://www.w3.org/2000/svg">
<g clip-path="url(#clip0_2644_15597)">
<g clip-path="url(#clip1_2644_15597)">
<g filter="url(#filter0_b_2644_15597)">
<path fill-rule="evenodd" clip-rule="evenodd" d="M791.746 542.726C776.477 557.992 751.723 557.988 736.454 542.73C721.185 527.454 721.181 502.703 736.446 487.43L862.248 361.626C877.521 346.357 902.279 346.357 917.548 361.629C932.813 376.898 932.821 401.653 917.552 416.926L791.746 542.726Z" fill="white" fill-opacity="0.35" stroke="white" stroke-opacity="0.65"/>
<path fill-rule="evenodd" clip-rule="evenodd" d="M988.444 345.766C973.249 360.977 948.604 360.977 933.398 345.766C918.199 330.563 918.203 305.93 933.398 290.731L1004.55 219.577C1019.76 204.375 1044.39 204.375 1059.6 219.57C1074.8 234.773 1074.8 259.422 1059.6 274.613L988.444 345.766Z" fill="white" fill-opacity="0.35" stroke="white" stroke-opacity="0.65"/>
<path fill-rule="evenodd" clip-rule="evenodd" d="M799.867 385.702C784.575 400.994 759.769 401.002 744.478 385.706C729.17 370.399 729.178 345.608 744.478 330.309L963.14 111.649C978.428 96.3499 1003.23 96.3499 1018.53 111.646C1033.82 126.945 1033.82 151.739 1018.53 167.043L799.867 385.702Z" fill="white" fill-opacity="0.35" stroke="white" stroke-opacity="0.65"/>
<path fill-rule="evenodd" clip-rule="evenodd" d="M223.785 962.713C208.505 977.993 183.743 977.997 168.463 962.713C153.18 947.429 153.18 922.671 168.459 907.391L670.219 405.629C685.499 390.357 710.261 390.357 725.541 405.625C740.816 420.909 740.82 445.679 725.549 460.951L223.785 962.713Z" fill="white" fill-opacity="0.35" stroke="white" stroke-opacity="0.65"/>
<path fill-rule="evenodd" clip-rule="evenodd" d="M996.782 805.714C981.506 820.994 956.736 820.994 941.46 805.714C926.18 790.431 926.18 765.672 941.46 750.396L1443.22 248.63C1458.49 233.354 1483.26 233.358 1498.55 248.63C1513.82 263.914 1513.82 288.68 1498.55 303.952L996.782 805.714Z" fill="white" fill-opacity="0.35" stroke="white" stroke-opacity="0.65"/>
<path fill-rule="evenodd" clip-rule="evenodd" d="M730.778 284.716C715.506 299.992 690.736 299.996 675.46 284.716C660.18 269.44 660.18 244.674 675.46 229.402L1177.22 -272.37C1192.49 -287.646 1217.26 -287.642 1232.55 -272.37C1247.82 -257.086 1247.82 -232.316 1232.54 -217.048L730.778 284.716Z" fill="white" fill-opacity="0.35" stroke="white" stroke-opacity="0.65"/>
<path fill-rule="evenodd" clip-rule="evenodd" d="M639.87 374.703C624.579 389.995 599.77 389.999 584.474 374.707C569.175 359.407 569.175 334.604 584.474 319.304L599.143 304.654C614.426 289.35 639.236 289.346 654.527 304.65C669.826 319.939 669.822 344.749 654.527 360.046L639.87 374.703Z" fill="white" fill-opacity="0.35" stroke="white" stroke-opacity="0.65"/>
<path fill-rule="evenodd" clip-rule="evenodd" d="M849.186 804.651C833.813 820.015 808.894 820.015 793.529 804.651C778.161 789.274 778.153 764.358 793.529 748.99L1024.82 517.698C1040.18 502.333 1065.1 502.333 1080.47 517.698C1095.84 533.074 1095.84 557.994 1080.48 573.359L849.186 804.651Z" fill="white" fill-opacity="0.35" stroke="white" stroke-opacity="0.65"/>
<path fill-rule="evenodd" clip-rule="evenodd" d="M755.446 740.772C740.243 755.975 715.606 755.975 700.399 740.776C685.196 725.569 685.204 700.931 700.399 685.732L771.556 614.579C786.759 599.372 811.396 599.376 826.599 614.571C841.802 629.774 841.798 654.419 826.599 669.618L755.446 740.772Z" fill="white" fill-opacity="0.35" stroke="white" stroke-opacity="0.65"/>
<path fill-rule="evenodd" clip-rule="evenodd" d="M900.866 599.701C885.574 614.997 860.768 615.001 845.477 599.701C830.177 584.402 830.173 559.607 845.473 544.308L1064.14 325.646C1079.43 310.35 1104.23 310.35 1119.53 325.649C1134.82 340.949 1134.82 365.743 1119.53 381.043L900.866 599.701Z" fill="white" fill-opacity="0.35" stroke="white" stroke-opacity="0.65"/>
</g>
</g>
<g opacity="0.45">
<g filter="url(#filter1_f_2644_15597)">
<circle cx="857.597" cy="301.007" r="125.007" fill="#AD168C" fill-opacity="0.85"/>
</g>
<g filter="url(#filter2_f_2644_15597)">
<circle cx="722.115" cy="411.885" r="178.115" fill="#03A9F4"/>
</g>
</g>
</g>
<defs>
<filter id="filter0_b_2644_15597" x="-1066.5" y="-599.5" width="3360" height="2798.19" filterUnits="userSpaceOnUse" color-interpolation-filters="sRGB">
<feFlood flood-opacity="0" result="BackgroundImageFix"/>
<feGaussianBlur in="BackgroundImage" stdDeviation="1.5"/>
<feComposite in2="SourceAlpha" operator="in" result="effect1_backgroundBlur_2644_15597"/>
<feBlend mode="normal" in="SourceGraphic" in2="effect1_backgroundBlur_2644_15597" result="shape"/>
</filter>
<filter id="filter1_f_2644_15597" x="392.59" y="-164" width="930.016" height="930.015" filterUnits="userSpaceOnUse" color-interpolation-filters="sRGB">
<feFlood flood-opacity="0" result="BackgroundImageFix"/>
<feBlend mode="normal" in="SourceGraphic" in2="BackgroundImageFix" result="shape"/>
<feGaussianBlur stdDeviation="170" result="effect1_foregroundBlur_2644_15597"/>
</filter>
<filter id="filter2_f_2644_15597" x="147" y="-163.23" width="1150.23" height="1150.23" filterUnits="userSpaceOnUse" color-interpolation-filters="sRGB">
<feFlood flood-opacity="0" result="BackgroundImageFix"/>
<feBlend mode="normal" in="SourceGraphic" in2="BackgroundImageFix" result="shape"/>
<feGaussianBlur stdDeviation="198.5" result="effect1_foregroundBlur_2644_15597"/>
</filter>
<clipPath id="clip0_2644_15597">
<rect width="990" height="662" fill="white"/>
</clipPath>
<clipPath id="clip1_2644_15597">
<rect width="990" height="662" fill="white"/>
</clipPath>
</defs>
</svg>
