<svg width="889" height="1142" viewBox="0 0 889 1142" fill="none" xmlns="http://www.w3.org/2000/svg">
<g clip-path="url(#clip0_524_5158)">
<g clip-path="url(#clip1_524_5158)">
<g filter="url(#filter0_b_524_5158)">
<path fill-rule="evenodd" clip-rule="evenodd" d="M97.254 642.727C112.523 657.992 137.277 657.988 152.546 642.731C167.815 627.454 167.819 602.703 152.554 587.43L26.7519 461.626C11.4792 446.357 -13.2792 446.357 -28.548 461.63C-43.8128 476.899 -43.8206 501.654 -28.5519 516.927L97.254 642.727Z" fill="white" fill-opacity="0.35" stroke="white" stroke-opacity="0.65"/>
<path fill-rule="evenodd" clip-rule="evenodd" d="M297.254 846.552C312.523 861.817 337.277 861.813 352.546 846.556C367.815 831.279 367.819 806.528 352.554 791.255L226.752 665.451C211.479 650.182 186.721 650.182 171.452 665.455C156.187 680.724 156.179 705.479 171.448 720.752L297.254 846.552Z" fill="white" fill-opacity="0.35" stroke="white" stroke-opacity="0.65"/>
<path fill-rule="evenodd" clip-rule="evenodd" d="M89.1332 485.702C104.425 500.994 129.231 501.002 144.522 485.706C159.83 470.399 159.822 445.609 144.522 430.309L-74.14 211.65C-89.4278 196.35 -114.234 196.35 -129.525 211.646C-144.825 226.945 -144.825 251.74 -129.525 267.043L89.1332 485.702Z" fill="white" fill-opacity="0.35" stroke="white" stroke-opacity="0.65"/>
<path fill-rule="evenodd" clip-rule="evenodd" d="M504.002 901.5C519.281 916.78 551.219 920.784 566.499 905.5C581.783 890.216 575.927 862.78 560.648 847.5L218.78 505.629C203.501 490.357 178.739 490.357 163.459 505.625C148.183 520.909 148.179 545.679 163.451 560.951L504.002 901.5Z" fill="white" fill-opacity="0.35" stroke="white" stroke-opacity="0.65"/>
<path fill-rule="evenodd" clip-rule="evenodd" d="M836.182 952.698C820.817 937.333 795.898 937.333 780.529 952.698C765.157 968.074 765.157 992.99 780.521 1008.35L836.182 952.698Z" fill="white" fill-opacity="0.35" stroke="white" stroke-opacity="0.65"/>
<path fill-rule="evenodd" clip-rule="evenodd" d="M158.222 384.716C173.494 399.992 198.264 399.996 213.54 384.716C228.82 369.44 228.82 344.674 213.54 329.402L-288.221 -172.37C-303.493 -187.646 -328.263 -187.642 -343.547 -172.37C-358.819 -157.086 -358.819 -132.316 -343.539 -117.048L158.222 384.716Z" fill="white" fill-opacity="0.35" stroke="white" stroke-opacity="0.65"/>
<path fill-rule="evenodd" clip-rule="evenodd" d="M249.13 474.703C264.421 489.996 289.23 490 304.526 474.707C319.825 459.407 319.825 434.604 304.526 419.304L289.857 404.654C274.574 389.35 249.764 389.347 234.473 404.651C219.174 419.939 219.178 444.75 234.473 460.046L249.13 474.703Z" fill="white" fill-opacity="0.35" stroke="white" stroke-opacity="0.65"/>
<path fill-rule="evenodd" clip-rule="evenodd" d="M84.8143 945.477C100.187 960.841 125.106 960.841 140.471 945.477C155.839 930.1 155.847 905.184 140.471 889.815L-90.8173 658.523C-106.182 643.159 -131.102 643.159 -146.47 658.523C-161.842 673.9 -161.842 698.82 -146.478 714.185L84.8143 945.477Z" fill="white" fill-opacity="0.35" stroke="white" stroke-opacity="0.65"/>
<path fill-rule="evenodd" clip-rule="evenodd" d="M133.554 840.772C148.757 855.975 173.394 855.975 188.601 840.776C203.804 825.569 203.796 800.931 188.601 785.732L117.444 714.579C102.241 699.372 77.6035 699.376 62.4007 714.571C47.1978 729.774 47.2017 754.42 62.4007 769.619L133.554 840.772Z" fill="white" fill-opacity="0.35" stroke="white" stroke-opacity="0.65"/>
<path fill-rule="evenodd" clip-rule="evenodd" d="M-11.8661 699.701C3.42565 714.997 28.2316 715.001 43.5234 699.701C58.8229 684.402 58.8269 659.608 43.5273 644.308L-175.136 425.646C-190.432 410.35 -215.234 410.35 -230.525 425.65C-245.825 440.949 -245.825 465.743 -230.525 481.043L-11.8661 699.701Z" fill="white" fill-opacity="0.35" stroke="white" stroke-opacity="0.65"/>
</g>
</g>
<g opacity="0.45">
<g filter="url(#filter1_f_524_5158)">
<circle r="125.007" transform="matrix(-0.902156 -0.431409 -0.431409 0.902156 -67.2945 358.706)" fill="#AD168C" fill-opacity="0.85"/>
</g>
<g filter="url(#filter2_f_524_5158)">
<circle r="178.115" transform="matrix(-0.902156 -0.431409 -0.431409 0.902156 -52.9004 597.183)" fill="#03A9F4"/>
</g>
</g>
</g>
<defs>
<filter id="filter0_b_524_5158" x="-1404.5" y="-499.5" width="3360" height="2798.19" filterUnits="userSpaceOnUse" color-interpolation-filters="sRGB">
<feFlood flood-opacity="0" result="BackgroundImageFix"/>
<feGaussianBlur in="BackgroundImage" stdDeviation="1.5"/>
<feComposite in2="SourceAlpha" operator="in" result="effect1_backgroundBlur_524_5158"/>
<feBlend mode="normal" in="SourceGraphic" in2="effect1_backgroundBlur_524_5158" result="shape"/>
</filter>
<filter id="filter1_f_524_5158" x="-532.331" y="-106.331" width="930.073" height="930.073" filterUnits="userSpaceOnUse" color-interpolation-filters="sRGB">
<feFlood flood-opacity="0" result="BackgroundImageFix"/>
<feBlend mode="normal" in="SourceGraphic" in2="BackgroundImageFix" result="shape"/>
<feGaussianBlur stdDeviation="170" result="effect1_foregroundBlur_524_5158"/>
</filter>
<filter id="filter2_f_524_5158" x="-628.057" y="22.0269" width="1150.31" height="1150.31" filterUnits="userSpaceOnUse" color-interpolation-filters="sRGB">
<feFlood flood-opacity="0" result="BackgroundImageFix"/>
<feBlend mode="normal" in="SourceGraphic" in2="BackgroundImageFix" result="shape"/>
<feGaussianBlur stdDeviation="198.5" result="effect1_foregroundBlur_524_5158"/>
</filter>
<clipPath id="clip0_524_5158">
<rect width="1115" height="1142" fill="white" transform="translate(-226)"/>
</clipPath>
<clipPath id="clip1_524_5158">
<rect width="990" height="965" fill="white" transform="matrix(-1 0 0 1 889 0)"/>
</clipPath>
</defs>
</svg>
