<svg width="41" height="41" viewBox="0 0 41 41" fill="none" xmlns="http://www.w3.org/2000/svg">
<rect x="0.945801" y="0.831543" width="40" height="40" rx="20" fill="white"/>
<path d="M25.3405 20.3094C26.3715 19.7556 27.0278 18.7707 26.8755 17.1338C26.6761 14.8933 24.9246 14.1427 22.6048 13.9333V10.8315H20.8003V13.8471C20.3315 13.8471 19.8514 13.8596 19.3706 13.8714V10.8315H17.5661V13.9333C16.9027 13.9546 16.1299 13.9439 13.9458 13.9333V15.952C15.3701 15.9258 16.118 15.8295 16.2893 16.7889V25.2817C16.1805 26.0429 15.6004 25.9336 14.3093 25.9098L13.9464 28.1623C17.2365 28.1623 17.5673 28.1748 17.5673 28.1748V30.8309H19.3718V28.2116C19.8639 28.2241 20.344 28.2241 20.8015 28.2241V30.8315H22.606V28.1754C25.629 28.0029 27.6501 27.2029 27.9196 24.2118C28.1302 21.8118 27.0527 20.7406 25.3416 20.31L25.3405 20.3094ZM19.4057 16.0876C20.4249 16.0876 23.6121 15.7551 23.6121 17.9832C23.6121 20.1125 20.4249 19.8663 19.4057 19.8663V16.0876ZM19.4057 25.9217V21.7612C20.6242 21.7612 24.3558 21.4043 24.3558 23.8411C24.3558 26.1923 20.6242 25.9217 19.4057 25.9217Z" fill="#6B7073"/>
</svg>
