<?xml version="1.0" encoding="UTF-8"?>
<svg width="34px" height="34px" viewBox="0 0 34 34" version="1.1" xmlns="http://www.w3.org/2000/svg" xmlns:xlink="http://www.w3.org/1999/xlink">
    <!-- Generator: Sketch 49.3 (51167) - http://www.bohemiancoding.com/sketch -->
    <title>btc</title>
    <desc>Created with Sketch.</desc>
    <defs></defs>
    <g id="Blog" stroke="none" stroke-width="1" fill="none" fill-rule="evenodd">
        <g id="Tablet_01_Blog_MainPage_01a" transform="translate(-477.000000, -2650.000000)">
            <g id="FOOTER" transform="translate(0.000000, 2626.000000)">
                <g id="Socials" transform="translate(257.000000, 24.000000)">
                    <g id="btc" transform="translate(220.000000, 0.000000)">
                        <circle id="Oval-3" fill="#FFDD66" cx="17" cy="17" r="17"></circle>
                        <path d="M24.4090974,17.0663135 C23.9268308,16.3753602 23.1990831,15.9007656 22.2258982,15.64282 C23.4651884,14.9424262 24.0098084,13.7536883 23.8602826,12.0764129 C23.810295,11.4681978 23.6585844,10.9410748 23.4048013,10.4942694 C23.1508434,10.0473671 22.80814,9.68809267 22.3753803,9.41630094 C21.9429702,9.14417031 21.4726761,8.93701021 20.9655905,8.79419126 C20.4583737,8.6513723 19.8760445,8.54767122 19.2189961,8.48323324 L19.2189961,5 L17.2979696,5 L17.2979696,8.38645525 C16.9653161,8.38645525 16.458012,8.39565376 15.7761009,8.41409919 L15.7761009,5 L13.8548122,5 L13.8548122,8.48323324 C13.5802737,8.49248017 13.1769647,8.49717625 12.6447105,8.49717625 L10,8.48323324 L10,10.7501331 L11.384665,10.7501331 C12.0167633,10.7501331 12.3868637,11.0635118 12.4949662,11.6900271 L12.4949662,15.6571019 C12.5782497,15.6571019 12.6447105,15.6618464 12.6946544,15.6710449 L12.4949662,15.6710449 L12.4949662,21.22738 C12.4285055,21.6972301 12.1873503,21.9323731 11.771457,21.9323731 L10.3868795,21.9323731 L10.0000874,24.4619146 L12.4951847,24.4619146 C12.6532311,24.4619146 12.881802,24.4642384 13.1813343,24.468402 C13.4806918,24.4730496 13.7051553,24.4753735 13.8548996,24.4753735 L13.8548996,28 L15.7764942,28 L15.7764942,24.5168152 C16.1257082,24.5262557 16.6330123,24.5307582 17.2983628,24.5307582 L17.2983628,28 L19.2194331,28 L19.2194331,24.4753735 C19.9015627,24.4385794 20.5065698,24.3698327 21.0344545,24.2681165 C21.5626013,24.1664004 22.0679828,24.0077019 22.5502495,23.7910044 C23.0324724,23.5745974 23.4357814,23.3048874 23.760089,22.9823586 C24.0845713,22.6601204 24.3525555,22.2498669 24.5650028,21.7521791 C24.7767509,21.2544914 24.9120757,20.6785679 24.9701032,20.0241666 C25.0786864,18.7436373 24.8914514,17.7575572 24.4090974,17.0663135 Z M16,11.0204702 C16.0520215,11.0204702 16.19872,11.0182961 16.4401342,11.0139481 C16.6816656,11.0095095 16.8821417,11.005252 17.0418358,11.0009039 C17.2015688,10.9966465 17.4169919,11.007426 17.688222,11.0332879 C17.959335,11.0591497 18.1877146,11.0937076 18.3733609,11.1367352 C18.5590072,11.1797628 18.7634639,11.2509168 18.9861068,11.3500614 C19.2091399,11.4491154 19.3872932,11.5698644 19.5208398,11.7120818 C19.6546597,11.8542993 19.7679129,12.0354227 19.8605994,12.255271 C19.9535592,12.475074 20,12.7272155 20,13.0116505 C20,13.2530578 19.9666328,13.4729514 19.8998595,13.6713311 C19.8332032,13.869575 19.7326725,14.0355709 19.5991258,14.1691828 C19.4655401,14.3028401 19.3278567,14.4193316 19.1867,14.5183856 C19.0456993,14.6174396 18.8653996,14.6972444 18.6463472,14.7575283 C18.4273337,14.8179028 18.2360677,14.8653237 18.0727443,14.8997458 C17.9093038,14.9342584 17.7050812,14.9580368 17.4599204,14.9708998 C17.2147206,14.9837628 17.0289572,14.9925494 16.9027474,14.9968069 C16.7764205,15.0010644 16.6037699,15.0010644 16.3845613,14.9968069 C16.1653138,14.9925494 16.0373478,14.9902848 16.0001171,14.9902848 L16.0001171,11.0204249 L16,11.0204249 L16,11.0204702 Z M20.8894337,20.2549946 C20.8156006,20.4799445 20.7207946,20.6755688 20.6046084,20.8418674 C20.4882185,21.0077551 20.3350546,21.1545375 20.1452389,21.2814442 C19.955464,21.4087104 19.7711868,21.5111705 19.593059,21.5893893 C19.4146868,21.6679164 19.1994999,21.7359663 18.9478241,21.7948231 C18.6955782,21.8535258 18.4748121,21.8948179 18.2847113,21.9194186 C18.0948956,21.9439166 17.8682652,21.9633814 17.6046165,21.9781727 C17.3411714,21.992553 17.1356362,22 16.988418,22 C16.8411185,22 16.6550494,21.9973294 16.4302516,21.992553 C16.2053316,21.9879821 16.0620637,21.9855169 16,21.9855169 L16,17.0291716 C16.0619416,17.0291716 16.2460559,17.0243953 16.5523021,17.0144317 C16.8585891,17.0045709 17.1084324,17 17.302239,17 C17.496005,17 17.7635225,17.0144317 18.1047102,17.0439628 C18.4455721,17.073083 18.7323929,17.1168918 18.9651319,17.1755431 C19.1975859,17.2342972 19.4512572,17.3245853 19.7266345,17.4469211 C20.0017267,17.5690514 20.2246919,17.7180936 20.3952858,17.8940476 C20.5658389,18.0703097 20.7091475,18.2947974 20.8253745,18.5685892 C20.9418865,18.8422269 21,19.1551025 21,19.5071131 C20.9999593,19.7811104 20.9631853,20.0299933 20.8894337,20.2549946 Z" id="Shape" fill="#000000" fill-rule="nonzero"></path>
                        <g id="bitcoin-logo" transform="translate(10.000000, 5.000000)"></g>
                    </g>
                </g>
            </g>
        </g>
    </g>
</svg>