<svg width="33" height="32" viewBox="0 0 33 32" fill="none" xmlns="http://www.w3.org/2000/svg">
<path fill-rule="evenodd" clip-rule="evenodd" d="M2.78713 2.73196C3.38222 2.13687 4.34704 2.13687 4.94213 2.73196L16.0551 13.8449L27.1681 2.73196C27.7632 2.13687 28.728 2.13687 29.3231 2.73196C29.9182 3.32704 29.9182 4.29187 29.3231 4.88695L18.2101 15.9999L29.3231 27.1129C29.9182 27.708 29.9182 28.6728 29.3231 29.2679C28.728 29.863 27.7632 29.863 27.1681 29.2679L16.0551 18.1549L4.94213 29.2679C4.34704 29.863 3.38222 29.863 2.78713 29.2679C2.19205 28.6728 2.19205 27.708 2.78713 27.1129L13.9001 15.9999L2.78713 4.88695C2.19205 4.29187 2.19205 3.32704 2.78713 2.73196Z" fill="#00AAFF"/>
</svg>
