<svg width="33" height="33" viewBox="0 0 33 33" fill="none" xmlns="http://www.w3.org/2000/svg">
<path fill-rule="evenodd" clip-rule="evenodd" d="M0.945312 6.63472C0.945312 5.8314 1.61689 5.18018 2.44531 5.18018H31.4453C32.2737 5.18018 32.9453 5.8314 32.9453 6.63472C32.9453 7.43804 32.2737 8.08927 31.4453 8.08927H2.44531C1.61689 8.08927 0.945312 7.43804 0.945312 6.63472ZM0.945312 16.3317C0.945312 15.5284 1.61689 14.8771 2.44531 14.8771H31.4453C32.2737 14.8771 32.9453 15.5284 32.9453 16.3317C32.9453 17.135 32.2737 17.7862 31.4453 17.7862H2.44531C1.61689 17.7862 0.945312 17.135 0.945312 16.3317ZM2.44531 24.5741C1.61689 24.5741 0.945312 25.2253 0.945312 26.0287C0.945312 26.832 1.61689 27.4832 2.44531 27.4832H31.4453C32.2737 27.4832 32.9453 26.832 32.9453 26.0287C32.9453 25.2253 32.2737 24.5741 31.4453 24.5741H2.44531Z" fill="#03A9F4"/>
</svg>
