<?xml version="1.0" encoding="UTF-8"?>
<svg width="37px" height="29px" viewBox="0 0 37 29" version="1.1" xmlns="http://www.w3.org/2000/svg" xmlns:xlink="http://www.w3.org/1999/xlink">
    <!-- Generator: Sketch 49.3 (51167) - http://www.bohemiancoding.com/sketch -->
    <title>Menu</title>
    <desc>Created with Sketch.</desc>
    <defs></defs>
    <g id="Blog" stroke="none" stroke-width="1" fill="none" fill-rule="evenodd">
        <g id="Tablet_01_Blog_MainPage_01a" transform="translate(-711.000000, -31.000000)" fill="#B3B3B3" fill-rule="nonzero">
            <g id="HEADER">
                <path d="M746.559511,44 C747.382647,44 748,44.6666667 748,45.5 C748,46.3333333 747.341491,47 746.518354,47 L712.481646,47 C711.658509,47 711,46.3333333 711,45.5 C711,44.6666667 711.658509,44 712.481646,44 L746.559511,44 Z M712.481646,34 C711.658509,34 711,33.3333333 711,32.5 C711,31.6666667 711.658509,31 712.481646,31 L746.518354,31 C747.341491,31 748,31.6666667 748,32.5 C748,33.3333333 747.341491,34 746.518354,34 L712.481646,34 Z M746.559511,57 C747.382647,57 748,57.6666667 748,58.5 C748,59.3333333 747.341491,60 746.518354,60 L712.481646,60 C711.658509,60 711,59.3333333 711,58.5 C711,57.6666667 711.658509,57 712.481646,57 L746.559511,57 Z" id="Menu"></path>
            </g>
        </g>
    </g>
</svg>