<svg xmlns="http://www.w3.org/2000/svg" width="128" height="128" viewBox="0 0 128 128">
    <g fill="none" fill-rule="nonzero">
        <path fill="#1AC9FF" d="M69.15 113c-24.203 0-43.77-22.19-43.77-49.5S44.946 14 69.15 14c24.202 0 43.77 22.19 43.77 49.5S93.18 113 69.15 113zm0-95.586c-22.315 0-40.338 20.653-40.338 46.086s18.023 46.086 40.337 46.086c22.314 0 40.338-20.653 40.338-46.086S91.292 17.414 69.149 17.414z"/>
        <g fill="#33C6F3">
            <path d="M58.85 113c-24.202 0-43.77-22.19-43.77-49.5S34.648 14 58.85 14c1.717 0 3.433.17 5.322.341v3.414c-20.255 2.731-35.36 22.531-35.36 45.745s15.277 43.014 35.36 45.745v3.414c-1.889.17-3.605.341-5.321.341zm-7.38-94.903C32.76 22.022 18.513 40.969 18.513 63.5s14.247 41.478 33.128 45.403C36.021 101.052 25.38 83.471 25.38 63.5c0-19.97 10.642-37.552 26.09-45.403z"/>
            <path d="M45.119 104.466h-10.3c-1.03 0-1.716-.683-1.716-1.707 0-1.025.687-1.707 1.717-1.707h10.299c1.03 0 1.716.682 1.716 1.707 0 1.024-.858 1.707-1.716 1.707zm-8.24-8.535H26.582c-1.03 0-1.717-.683-1.717-1.707s.687-1.707 1.717-1.707H36.88c1.03 0 1.716.683 1.716 1.707s-.858 1.707-1.716 1.707zM31.045 85.69h-10.3c-1.03 0-1.716-.683-1.716-1.707s.687-1.707 1.717-1.707h10.299c1.03 0 1.716.683 1.716 1.707s-.686 1.707-1.716 1.707zm-2.747-8.535H18c-1.03 0-1.717-.683-1.717-1.707s.687-1.707 1.717-1.707h10.298c1.03 0 1.717.683 1.717 1.707s-.687 1.707-1.717 1.707zm-1.201-8.534H16.969c-1.03 0-1.717-.683-1.717-1.707s.687-1.707 1.717-1.707h10.127c1.03 0 1.716.683 1.716 1.707s-.858 1.707-1.716 1.707zm.171-8.535H16.97c-1.03 0-1.717-.683-1.717-1.707s.687-1.707 1.717-1.707h10.298c1.03 0 1.717.683 1.717 1.707s-.858 1.707-1.717 1.707zm1.545-8.534H18.513c-1.03 0-1.716-.683-1.716-1.707s.686-1.707 1.716-1.707h10.3c1.03 0 1.716.683 1.716 1.707s-.859 1.707-1.717 1.707zm2.918-8.535H21.431c-1.03 0-1.716-.683-1.716-1.707s.686-1.707 1.716-1.707h10.3c1.03 0 1.716.683 1.716 1.707s-.687 1.707-1.717 1.707zm6.523-10.241H27.954c-1.03 0-1.716-.683-1.716-1.707s.686-1.707 1.716-1.707h10.299c1.03 0 1.717.683 1.717 1.707s-.859 1.707-1.717 1.707zm9.097-8.535H37.223c-1.03 0-1.717-.682-1.717-1.707 0-1.024.687-1.706 1.717-1.706H47.35c1.03 0 1.717.682 1.717 1.706 0 1.025-.859 1.707-1.717 1.707zM69.15 101.905c-1.202 0-2.404 0-3.605-.17-.858-.171-1.545-1.025-1.545-1.878.172-.854 1.03-1.536 1.888-1.536 1.03.17 2.06.17 3.261.17 1.03 0 1.717.683 1.717 1.707 0 1.025-.687 1.707-1.717 1.707l.172-1.707-.172 1.707zm9.955-1.877c-.687 0-1.373-.342-1.545-1.025-.343-.853.172-1.877 1.03-2.219 1.03-.341 1.888-.853 2.918-1.365.858-.512 1.888-.17 2.232.683.514.853.171 1.877-.687 2.219a26.494 26.494 0 0 1-3.261 1.365c-.172.342-.344.342-.687.342zm-23.173-1.195c-.343 0-.514 0-.858-.171-1.03-.512-2.06-1.195-3.09-1.707-.858-.512-1.03-1.536-.514-2.39.514-.853 1.544-1.024 2.403-.512.858.512 1.888 1.195 2.746 1.537.858.341 1.202 1.536.687 2.219-.172.682-.687 1.024-1.374 1.024zm34.502-6.145c-.515 0-.859-.17-1.202-.512-.686-.683-.686-1.707 0-2.39.687-.683 1.545-1.536 2.232-2.39.515-.682 1.716-.853 2.403-.17.686.512.858 1.707.172 2.39-.687.853-1.545 1.877-2.404 2.56-.343.341-.686.512-1.201.512zm-44.972-2.39c-.515 0-1.03-.17-1.373-.682-.687-.854-1.545-1.878-2.06-2.902-.515-.854-.343-1.878.515-2.39.858-.512 1.888-.341 2.403.512.687.854 1.202 1.707 1.888 2.56.687.683.515 1.878-.171 2.39-.344.342-.859.512-1.202.512zm52.524-8.705c-.172 0-.515 0-.686-.17-.859-.342-1.202-1.366-.859-2.22.344-1.024.859-2.048 1.202-3.072.343-.854 1.201-1.366 2.231-1.024.858.341 1.373 1.194 1.03 2.219-.343 1.194-.858 2.219-1.201 3.243-.344.683-1.03 1.024-1.717 1.024zM38.94 78.521c-.686 0-1.373-.512-1.544-1.195-.344-1.024-.687-2.219-1.03-3.414-.172-.853.343-1.877 1.201-2.048.858-.17 1.888.341 2.06 1.195.343 1.024.515 2.048.858 3.072.343.854-.172 1.878-1.03 2.22-.171.17-.343.17-.515.17zm62.309-10.071c-1.03 0-1.717-.853-1.717-1.878 0-1.024.172-2.048.172-3.072s.686-1.707 1.716-1.707c1.03 0 1.717.683 1.717 1.707 0 1.195 0 2.219-.172 3.414 0 .853-.858 1.536-1.716 1.536zm-64.54-3.243c-1.03 0-1.717-.683-1.717-1.707h1.717-1.717c0-1.195 0-2.39.172-3.584 0-1.025.858-1.707 1.888-1.537 1.03 0 1.717.854 1.545 1.878 0 1.024-.172 2.219-.172 3.243s-.686 1.707-1.716 1.707zm63.51-10.07c-.687 0-1.545-.513-1.717-1.366-.343-1.024-.515-2.049-.858-3.073-.344-.853.171-1.877 1.03-2.219.858-.341 1.888.171 2.231 1.024.344 1.025.687 2.22 1.03 3.414.172.854-.343 1.878-1.201 2.049-.344 0-.515.17-.515.17zm-61.279-3.244c-.171 0-.343 0-.514-.17-.859-.342-1.374-1.195-1.03-2.22.343-1.024.858-2.219 1.201-3.243.343-.853 1.373-1.194 2.231-.853.859.341 1.202 1.365.859 2.219-.515 1.024-.859 2.048-1.202 3.072-.171.854-.858 1.195-1.545 1.195zm55.786-9.217c-.515 0-1.03-.342-1.373-.683-.687-.853-1.202-1.707-1.888-2.56-.687-.683-.515-1.878.171-2.39.687-.683 1.888-.512 2.404.17.686.854 1.544 1.878 2.06 2.903.514.853.343 1.877-.516 2.39-.343.17-.515.17-.858.17zm-49.263-2.56c-.343 0-.687-.171-1.03-.342-.687-.512-.858-1.707-.172-2.39.687-.853 1.545-1.877 2.404-2.56.686-.683 1.716-.683 2.403 0 .686.683.686 1.707 0 2.39-.687.683-1.545 1.536-2.232 2.39-.343.34-.858.512-1.373.512zm39.65-6.828c-.343 0-.686-.17-.858-.341-.858-.513-1.888-1.195-2.746-1.537-.858-.341-1.202-1.536-.687-2.219.344-.853 1.374-1.194 2.232-.682 1.03.512 2.06 1.194 3.09 1.707.858.512 1.03 1.536.514 2.39-.514.34-1.03.682-1.544.682zm-29.18-1.707c-.686 0-1.201-.341-1.544-.853-.515-.854-.172-1.878.686-2.22a26.494 26.494 0 0 1 3.261-1.365c.859-.341 1.888.17 2.232 1.024.343.854-.172 1.878-1.03 2.22-1.03.34-2.06.853-2.918 1.365-.171-.171-.515-.171-.687-.171zm16.479-2.902h-.172c-1.03-.17-2.06-.17-3.09-.17-1.03 0-1.716-.683-1.716-1.707 0-1.025.686-1.707 1.716-1.707v1.707-1.707c1.202 0 2.403 0 3.605.17.858.171 1.373 1.025 1.373 1.878-.171.854-.858 1.536-1.716 1.536z"/>
        </g>
        <path fill="#33C6F3" d="M79.199 63.84c1.683-1.392 2.806-3.474 2.806-6.45 0-5.688-4.353-7.619-7.334-7.958 0-.021.006-.041.006-.062v-4.193a1.678 1.678 0 0 0-3.355 0v4.193h-3.354v-4.193a1.678 1.678 0 0 0-3.354 0v4.193h-5.87a1.678 1.678 0 0 0 0 3.354h1.677V77.042h-1.677a1.678 1.678 0 0 0 0 3.354h5.87v4.192a1.678 1.678 0 0 0 3.354 0v-4.192h3.354v4.192a1.678 1.678 0 0 0 3.355 0v-4.192c0-.04-.009-.076-.012-.114 4.492-.547 8.996-3.128 8.996-9.07 0-3.999-2.113-6.224-4.462-7.372zm-5.483-11.116c.823 0 4.934.225 4.934 4.666 0 4.695-4.257 5.396-6.794 5.396h-8.08V52.724h9.94zm-.935 24.318h-9.005V66.14h10.99c.567.008 5.541.218 5.541 5.07 0 5.41-5.76 5.83-7.526 5.83z"/>
    </g>
</svg>
