<?xml version="1.0" encoding="UTF-8"?>
<svg width="36px" height="37px" viewBox="0 0 36 37" version="1.1" xmlns="http://www.w3.org/2000/svg" xmlns:xlink="http://www.w3.org/1999/xlink">
    <!-- Generator: Sketch 51.1 (57501) - http://www.bohemiancoding.com/sketch -->
    <title>Facebook</title>
    <desc>Created with Sketch.</desc>
    <defs></defs>
    <g id="Blog" stroke="none" stroke-width="1" fill="none" fill-rule="evenodd">
        <g id="Blog-Page-1440" transform="translate(-215.000000, -186.000000)" fill-rule="nonzero">
            <g id="Group" transform="translate(215.000000, 186.000000)">
                <g id="Facebook">
                    <path d="M17.9018057,0 C8.01441463,0 0,8.11801758 0,18.1332237 C0,28.1472965 8.01441463,36.2664474 17.9018057,36.2664474 C27.7891967,36.2664474 35.8036114,28.1472965 35.8036114,18.1332237 C35.8036114,8.11801758 27.7891967,0 17.9018057,0 Z" id="Shape" fill="#03A9F4"></path>
                    <path d="M15.6520639,28.339962 L19.7683604,28.339962 L19.7683604,18.248823 L22.5140498,18.248823 L22.8776803,14.7717773 L19.7683604,14.7717773 L19.7728358,13.0309879 C19.7728358,12.1243267 19.8578694,11.6381296 21.142324,11.6381296 L22.8586596,11.6381296 L22.8586596,8.15995066 L20.1118513,8.15995066 C16.8123247,8.15995066 15.6520639,9.84747379 15.6520639,12.68419 L15.6520639,14.7717773 L13.595594,14.7717773 L13.595594,18.2499563 L15.6520639,18.2499563 L15.6520639,28.339962 Z" id="Shape" fill="#FFFFFF"></path>
                </g>
            </g>
        </g>
    </g>
</svg>