<svg width="41" height="41" viewBox="0 0 41 41" fill="none" xmlns="http://www.w3.org/2000/svg">
<rect x="0.945801" y="0.831543" width="40" height="40" rx="20" fill="white"/>
<path d="M20.9467 10.272C15.1147 10.272 10.3867 15 10.3867 20.832C10.3867 26.1264 14.2867 30.4977 19.3685 31.2614V23.6309H16.7558V20.855H19.3685V19.008C19.3685 15.9499 20.8584 14.6073 23.4 14.6073C24.6173 14.6073 25.261 14.6976 25.5658 14.7389V17.1619H23.832C22.753 17.1619 22.3762 18.1848 22.3762 19.3377V20.855H25.5384L25.1093 23.6309H22.3762V31.284C27.5304 30.5846 31.5067 26.1777 31.5067 20.832C31.5067 15 26.7787 10.272 20.9467 10.272Z" fill="#6B7073"/>
</svg>
