<svg width="128" height="128" viewBox="0 0 128 128" fill="none" xmlns="http://www.w3.org/2000/svg">
<g clip-path="url(#clip0_4562_1459)">
<g clip-path="url(#clip1_4562_1459)">
<path fill-rule="evenodd" clip-rule="evenodd" d="M40.557 88.9339C39.0668 88.9339 37.8427 88.588 36.8847 87.8961C35.9799 87.2042 35.3944 86.2728 35.1283 85.1019C34.9154 83.931 35.1549 82.627 35.8468 81.19L56.2844 36.4029C57.136 34.5933 58.1472 33.2893 59.3181 32.491C60.4891 31.6394 61.8462 31.2136 63.3897 31.2136C64.9332 31.2136 66.2904 31.6394 67.4613 32.491C68.6322 33.2893 69.6168 34.5933 70.4151 36.4029L91.0124 81.19C91.7043 82.627 91.9438 83.9576 91.731 85.1817C91.5713 86.3526 91.039 87.284 90.1343 87.9759C89.2295 88.6146 88.0586 88.9339 86.6215 88.9339C84.812 88.9339 83.4016 88.5082 82.3903 87.6566C81.4323 86.805 80.5807 85.4745 79.8356 83.6649L76.5274 76.0008H50.1969L46.9438 83.6649C46.1455 85.5277 45.2939 86.8849 44.3891 87.7364C43.5375 88.5348 42.2602 88.9339 40.557 88.9339ZM63.23 45.1048L54.3179 66.3408H72.3715L63.3897 45.1048H63.23Z" fill="url(#paint0_linear_4562_1459)"/>
<path fill-rule="evenodd" clip-rule="evenodd" d="M63.4295 123.538C96.2513 123.538 122.859 96.7783 122.859 63.7689C122.859 30.7594 96.2513 4 63.4295 4C30.6078 4 4.00049 30.7594 4.00049 63.7689C4.00049 96.7783 30.6078 123.538 63.4295 123.538ZM63.4295 112.325C89.9983 112.325 111.646 90.6459 111.646 63.7689C111.646 36.8919 89.9983 15.213 63.4295 15.213C36.8608 15.213 15.2135 36.8919 15.2135 63.7689C15.2135 90.6459 36.8608 112.325 63.4295 112.325Z" fill="url(#paint1_linear_4562_1459)"/>
<path d="M279.5 89.4234C277.265 89.4234 274.976 89.2371 272.634 88.8645C270.346 88.5452 268.137 88.0662 266.008 87.4275C263.932 86.7888 262.069 85.9905 260.42 85.0325C259.249 84.3938 258.424 83.5688 257.945 82.5576C257.466 81.4931 257.279 80.4287 257.386 79.3642C257.546 78.2998 257.945 77.3684 258.583 76.57C259.275 75.7185 260.127 75.1862 261.138 74.9733C262.203 74.7072 263.373 74.8935 264.651 75.5322C266.833 76.7563 269.201 77.6611 271.756 78.2465C274.364 78.832 276.945 79.1247 279.5 79.1247C283.385 79.1247 286.153 78.5393 287.803 77.3684C289.453 76.1442 290.278 74.6274 290.278 72.8178C290.278 71.2743 289.692 70.0502 288.521 69.1454C287.35 68.2406 285.301 67.4689 282.374 66.8302L273.353 64.9142C268.243 63.8497 264.438 62.0401 261.936 59.4854C259.488 56.8775 258.264 53.4712 258.264 49.2666C258.264 46.6055 258.823 44.1838 259.941 42.0017C261.058 39.8196 262.628 37.9301 264.651 36.3334C266.673 34.7368 269.068 33.5126 271.836 32.6611C274.657 31.8095 277.744 31.3837 281.097 31.3837C284.077 31.3837 287.004 31.7563 289.878 32.5014C292.753 33.1933 295.281 34.2311 297.463 35.6149C298.527 36.2536 299.246 37.0786 299.618 38.0898C300.044 39.0478 300.177 40.0324 300.017 41.0437C299.911 42.0017 299.512 42.8533 298.82 43.5984C298.181 44.3435 297.356 44.8225 296.345 45.0354C295.334 45.2483 294.11 45.0088 292.673 44.3169C290.916 43.4121 289.054 42.7468 287.084 42.321C285.115 41.8952 283.093 41.6824 281.017 41.6824C278.781 41.6824 276.865 41.9751 275.269 42.5605C273.725 43.146 272.528 43.9709 271.676 45.0354C270.878 46.0999 270.479 47.324 270.479 48.7078C270.479 50.2513 271.038 51.502 272.155 52.46C273.273 53.418 275.216 54.1898 277.983 54.7752L287.004 56.6912C292.22 57.8089 296.106 59.6185 298.66 62.12C301.215 64.5682 302.492 67.8148 302.492 71.8598C302.492 74.5209 301.96 76.9426 300.896 79.1247C299.831 81.2536 298.288 83.0898 296.265 84.6333C294.243 86.1768 291.821 87.3743 289 88.2259C286.179 89.0242 283.013 89.4234 279.5 89.4234Z" fill="url(#paint2_linear_4562_1459)"/>
<path fill-rule="evenodd" clip-rule="evenodd" d="M133.775 88.2259C134.733 88.9178 135.957 89.2637 137.447 89.2637C139.15 89.2637 140.428 88.8645 141.279 88.0662C142.184 87.2146 143.035 85.8574 143.834 83.9946L147.087 76.3305H173.417L176.726 83.9946C177.471 85.8042 178.322 87.1348 179.28 87.9863C180.292 88.8379 181.702 89.2637 183.512 89.2637C184.949 89.2637 186.119 88.9444 187.024 88.3057C187.929 87.6138 188.461 86.6824 188.621 85.5115C188.834 84.2874 188.594 82.9568 187.902 81.5198L167.305 36.7326C166.507 34.923 165.522 33.6191 164.351 32.8207C163.18 31.9692 161.823 31.5434 160.28 31.5434C158.736 31.5434 157.379 31.9692 156.208 32.8207C155.037 33.6191 154.026 34.923 153.174 36.7326L132.737 81.5198C132.045 82.9568 131.805 84.2607 132.018 85.4317C132.284 86.6026 132.87 87.534 133.775 88.2259ZM151.208 66.6705L160.12 45.4346H160.28L169.261 66.6705H151.208Z" fill="url(#paint3_linear_4562_1459)"/>
<path fill-rule="evenodd" clip-rule="evenodd" d="M198.435 86.8687C199.553 87.9863 201.149 88.5452 203.225 88.5452H218.793C223.636 88.5452 227.92 87.9331 231.646 86.709C235.372 85.4317 238.512 83.5955 241.067 81.2004C243.621 78.8054 245.564 75.8781 246.894 72.4186C248.278 68.9059 248.97 64.8876 248.97 60.3636C248.97 51.3689 246.336 44.4499 241.067 39.6067C235.851 34.7101 228.426 32.2619 218.793 32.2619H203.225C201.149 32.2619 199.553 32.8207 198.435 33.9384C197.317 35.0561 196.758 36.6528 196.758 38.7285V82.0786C196.758 84.1543 197.317 85.751 198.435 86.8687ZM218.074 78.4062H209.133V42.4009H218.074C224.035 42.4009 228.506 43.8911 231.486 46.8716C234.52 49.7989 236.037 54.2962 236.037 60.3636C236.037 63.3973 235.664 66.0585 234.919 68.3471C234.174 70.5824 233.056 72.4452 231.566 73.9355C230.076 75.4257 228.213 76.5434 225.978 77.2885C223.742 78.0336 221.108 78.4062 218.074 78.4062Z" fill="url(#paint4_linear_4562_1459)"/>
</g>
</g>
<defs>
<linearGradient id="paint0_linear_4562_1459" x1="63.7504" y1="3.99998" x2="63.7504" y2="123.538" gradientUnits="userSpaceOnUse">
<stop stop-color="#4DD1F6"/>
<stop offset="1" stop-color="#0381F6"/>
</linearGradient>
<linearGradient id="paint1_linear_4562_1459" x1="63.7504" y1="3.99998" x2="63.7504" y2="123.538" gradientUnits="userSpaceOnUse">
<stop stop-color="#4DD1F6"/>
<stop offset="1" stop-color="#0381F6"/>
</linearGradient>
<linearGradient id="paint2_linear_4562_1459" x1="63.7504" y1="3.99998" x2="63.7504" y2="123.538" gradientUnits="userSpaceOnUse">
<stop stop-color="#4DD1F6"/>
<stop offset="1" stop-color="#0381F6"/>
</linearGradient>
<linearGradient id="paint3_linear_4562_1459" x1="63.7504" y1="3.99998" x2="63.7504" y2="123.538" gradientUnits="userSpaceOnUse">
<stop stop-color="#4DD1F6"/>
<stop offset="1" stop-color="#0381F6"/>
</linearGradient>
<linearGradient id="paint4_linear_4562_1459" x1="63.7504" y1="3.99998" x2="63.7504" y2="123.538" gradientUnits="userSpaceOnUse">
<stop stop-color="#4DD1F6"/>
<stop offset="1" stop-color="#0381F6"/>
</linearGradient>
<clipPath id="clip0_4562_1459">
<rect width="120" height="120" fill="white" transform="translate(4.00049 4)"/>
</clipPath>
<clipPath id="clip1_4562_1459">
<rect width="299.999" height="120" fill="white" transform="translate(4.00049 4)"/>
</clipPath>
</defs>
</svg>
