<svg width="25" height="25" viewBox="0 0 25 25" fill="none" xmlns="http://www.w3.org/2000/svg">
<g clip-path="url(#clip0_4433_6735)">
<path fill-rule="evenodd" clip-rule="evenodd" d="M13.6985 1.81516C19.4244 2.17663 23.9867 6.63599 23.9867 12.1115C23.9867 17.8246 19.0199 22.4315 12.9467 22.4315C12.7267 22.4315 12.5087 22.4245 12.2928 22.4111C12.5097 22.4246 12.7287 22.4317 12.9499 22.4317C19.023 22.4317 23.9899 17.8248 23.9899 12.1117C23.9899 6.63519 19.4259 2.1752 13.6985 1.81516ZM9.91905 22.0121C9.91828 22.0119 9.91751 22.0117 9.91674 22.0115L6.45174 23.8115L5.74986 24.1848V24.1867L6.45486 23.8117L9.91905 22.0121ZM6.59316 24.0779L6.59575 24.0766L9.95545 22.3313C10.9089 22.5781 11.9047 22.7317 12.9499 22.7317C19.1686 22.7317 24.2899 18.0099 24.2899 12.1117C24.2899 6.2135 19.1686 1.4917 12.9499 1.4917C6.73113 1.4917 1.60986 6.2135 1.60986 12.1117C1.60986 15.2858 3.1147 18.1025 5.44986 20.0388V24.6861L6.59316 24.0779ZM12.9499 21.1717C11.94 21.1717 10.9628 21.0259 10.0476 20.7633L9.74402 20.6873L9.47875 20.8319L7.00986 22.1173V19.3117L6.71284 19.089L6.71136 19.0878C4.53983 17.4158 3.16986 14.9077 3.16986 12.1117C3.16986 7.14101 7.50558 3.0517 12.9499 3.0517C18.3941 3.0517 22.7299 7.14101 22.7299 12.1117C22.7299 17.0824 18.3941 21.1717 12.9499 21.1717ZM6.70986 22.6099V19.4617L6.52986 19.3267C4.29111 17.6036 2.86986 15.0105 2.86986 12.1117C2.86986 6.95545 7.36049 2.7517 12.9499 2.7517C13.1813 2.7517 13.4109 2.75891 13.6383 2.77309C13.4099 2.75878 13.1792 2.7515 12.9467 2.7515C7.35736 2.7515 2.86674 6.95526 2.86674 12.1115C2.86674 15.0103 4.28799 17.6034 6.52674 19.3265L6.70674 19.4615V22.6115L6.70986 22.6099ZM12.2778 21.4508C11.4773 21.4008 10.7016 21.263 9.96486 21.0517L9.78486 21.0067L9.78413 21.0071L9.96174 21.0515C10.6994 21.2631 11.4762 21.401 12.2778 21.4508ZM14.7413 11.7989L11.8486 8.90619L5.86167 15.2508L6.22658 15.7184L11.2113 12.9235L14.0463 15.9576L19.9654 9.5401L19.5981 9.07504L14.7413 11.7989ZM14.0432 15.5149L14.0449 15.5167L19.7449 9.3367L19.738 9.34054L14.0432 15.5149ZM14.6886 12.1705L11.8549 9.3367L11.8534 9.33821L14.6867 12.1715L14.6886 12.1705ZM11.2679 12.5478L11.2667 12.5465L6.08377 15.4526L6.07986 15.4567L11.2679 12.5478Z" fill="#263238"/>
</g>
<defs>
<clipPath id="clip0_4433_6735">
<rect width="24" height="24" fill="white" transform="translate(0.945801 0.831543)"/>
</clipPath>
</defs>
</svg>
