<?xml version="1.0" encoding="UTF-8"?>
<svg width="55px" height="42px" viewBox="0 0 55 42" version="1.1" xmlns="http://www.w3.org/2000/svg" xmlns:xlink="http://www.w3.org/1999/xlink">
    <!-- Generator: Sketch 49.3 (51167) - http://www.bohemiancoding.com/sketch -->
    <title>Glyph</title>
    <desc>Created with Sketch.</desc>
    <defs></defs>
    <g id="Blog" stroke="none" stroke-width="1" fill="none" fill-rule="evenodd">
        <g id="Tablet_01_Blog_MainPage_01a" transform="translate(-20.000000, -24.000000)" fill="#33C7F5" fill-rule="nonzero">
            <g id="HEADER">
                <path d="M30.8372781,63.6720554 C29.7633136,62.960739 28.9171598,62.0230947 28.3639053,60.9237875 C27.7781065,59.8568129 27.4526627,58.6281755 27.4526627,57.3672056 C27.4526627,55.9122402 27.8431953,54.5542725 28.591716,53.3903002 C29.3076923,52.1939954 30.3491124,51.2240185 31.6508876,50.5773672 C32.1390533,50.3187067 32.7248521,50.5127021 32.9526627,50.9976905 C33.147929,51.3533487 33.0828402,51.7736721 32.8224852,52.0646651 C32.6923077,52.2263279 32.5946745,52.4203233 32.5295858,52.6143187 C32.4319527,52.8083141 32.3994083,53.034642 32.3994083,53.26097 C32.3994083,53.8106235 32.627219,54.295612 32.9852071,54.6512702 C33.3431953,55.0069284 33.831361,55.2332564 34.3846154,55.2332564 C34.612426,55.2332564 34.8402367,55.1685912 35.0680473,55.1039261 C35.2633136,55.039261 35.4585799,54.9099307 35.6538462,54.7482679 C36.6952663,53.8752887 37.8668639,53.1316397 39.1035503,52.517321 C39.8195267,52.1939954 40.5355029,51.9030023 41.2514793,51.6766744 C40.5355029,50.9006929 39.9822485,49.9953811 39.591716,48.9930716 C38.5828402,48.9284065 37.704142,48.5080831 37.0207101,47.8290993 C36.2721894,47.0854503 35.816568,46.0831409 35.816568,44.9515011 C35.816568,43.852194 36.2721894,42.8498845 37.0207101,42.1062356 C37.0532544,42.073903 37.0532544,42.073903 37.0857988,42.0415704 C37.8343195,41.3302541 38.8106509,40.9099307 39.9171598,40.9099307 L40.6331361,37.5796767 C39.2988166,38.5496536 37.6715976,39.1316397 35.9142012,39.1316397 L29.8934911,39.1316397 C27.9408284,39.1316397 26.1508876,38.4526559 24.7840237,37.256351 C23.3846154,36.0923787 22.4408284,34.443418 22.1153846,32.5681293 L21.3668639,27.8799076 C21.3668639,27.8799076 21.3668639,27.8475751 21.3668639,27.8152425 L21.3668639,27.7829099 C21.0414201,27.6859122 20.7810651,27.5242494 20.5532544,27.2979215 C20.1952663,26.9422633 20,26.4572748 20,25.9399538 C20,25.4549654 20.1952663,25.0023095 20.4881657,24.6466513 C20.5207101,24.6143187 20.5207101,24.5819861 20.5532544,24.5819861 C20.9112426,24.2263279 21.3994083,24 21.9201183,24 L24.7189349,24 L41.316568,24 L41.3491124,24 C42.2928994,24 43.1065089,24.3879908 43.7248521,25.0023095 C43.8224852,25.0993072 43.9526627,25.2286374 44.0502959,25.3579677 C44.408284,25.1639723 44.7988166,25.0023095 45.1893491,24.8729792 C45.9378698,24.6466513 46.7189349,24.517321 47.5,24.517321 C48.2810651,24.517321 49.0621302,24.6466513 49.8106509,24.8729792 C50.2011834,25.0023095 50.591716,25.1639723 50.9497041,25.3579677 C51.0473373,25.2286374 51.1775148,25.0993072 51.2751479,25.0023095 C51.8934911,24.3879908 52.7071006,24 53.6508876,24 L53.683432,24 L70.2810651,24 L73.0473373,24 L73.0798817,24 C73.6005919,24 74.0887573,24.2263279 74.4467454,24.5819861 C74.4467454,24.5819861 74.4792898,24.6143187 74.5118342,24.6466513 C74.8047335,25.0023095 75,25.4549654 75,25.9399538 C75,26.4572748 74.7721895,26.9422633 74.4467454,27.2979215 C74.2189349,27.5242494 73.9260356,27.6859122 73.6331359,27.7829099 L73.6331359,27.8152425 C73.6331359,27.8475751 73.6331359,27.8799076 73.6005919,27.8799076 L72.8846152,32.5681293 C72.5591715,34.443418 71.5828404,36.0923787 70.2159762,37.256351 C68.8491126,38.4526559 67.0591715,39.1316397 65.1065089,39.1316397 L59.0857988,39.1316397 C57.3284024,39.1316397 55.7011834,38.5496536 54.3668639,37.5796767 L55.0828402,40.9099307 C56.2218935,40.9099307 57.2307692,41.3625866 57.9792899,42.1062356 C58.6952663,42.8498845 59.1508876,43.852194 59.1508876,44.9515011 C59.1508876,46.0831409 58.6952663,47.0854503 57.9792899,47.8290993 C57.295858,48.5080831 56.3846154,48.9284065 55.408284,48.9930716 C55.0177515,49.9953811 54.4319527,50.9006929 53.7485207,51.6766744 C54.4644971,51.9030023 55.1804734,52.1939954 55.8964497,52.517321 C57.1331361,53.1316397 58.2721894,53.8752887 59.3461538,54.7482679 C59.5414201,54.9099307 59.7366864,55.039261 59.9319527,55.1039261 C60.1597633,55.1685912 60.387574,55.2332564 60.6153846,55.2332564 C61.168639,55.2332564 61.6568047,55.0069284 62.0147929,54.6512702 C62.372781,54.295612 62.6005917,53.8106235 62.6005917,53.26097 C62.6005917,53.034642 62.5680473,52.8083141 62.4704142,52.6143187 C62.4053255,52.4203233 62.3076923,52.2263279 62.1775148,52.0646651 C61.9171598,51.7736721 61.852071,51.3533487 62.0473373,50.9976905 C62.2751479,50.5127021 62.8609467,50.3187067 63.3491124,50.5773672 C64.6183432,51.2240185 65.6923077,52.1939954 66.4082841,53.3903002 C67.1568047,54.5542725 67.5473373,55.9122402 67.5473373,57.3672056 C67.5473373,58.6281755 67.2218936,59.8568129 66.6360945,60.9237875 C66.0828404,62.0230947 65.2366864,62.960739 64.1627219,63.6720554 C63.0236686,64.448037 61.7869822,65.0300231 60.4852071,65.4180139 C59.183432,65.8060046 57.8491124,66 56.4822485,66 C54.6923077,66 52.9023668,65.6443418 51.2426036,64.965358 C49.908284,64.4157044 48.6390533,63.6397228 47.5,62.669746 C46.3609467,63.6397228 45.091716,64.4157044 43.7248521,64.965358 C42.0976332,65.6443418 40.3076923,66 38.5177515,66 C37.1508876,66 35.7840237,65.8060046 34.4822485,65.4180139 C33.2130178,65.0300231 31.9763314,64.448037 30.8372781,63.6720554 Z M50.8195266,30.2725173 C50.6568047,29.4965358 50.2337278,28.8822171 49.647929,28.3972286 C49.0621302,27.9445727 48.3136095,27.6535797 47.5,27.6535797 C46.6863905,27.6535797 45.9378698,27.9445727 45.352071,28.3972286 C44.7662722,28.8822171 44.3431952,29.4965358 44.1804733,30.2725173 L44.0502959,30.7251732 L44.0502959,30.7575058 L43.5946745,32.9884526 L43.5946745,33.0207852 L43.5621302,33.0207852 L41.6420118,42.1709007 C41.5443787,42.6882217 41.0236686,43.0438799 40.5029586,42.9145497 C40.4704142,42.9145497 40.4378698,42.9145497 40.4053255,42.9145497 C40.3402367,42.8822171 40.2426036,42.8822171 40.1775148,42.8498845 C40.112426,42.8498845 40.0147929,42.8498845 39.9171598,42.8498845 C39.3313609,42.8498845 38.8106509,43.0762125 38.4526627,43.4318707 C38.4201183,43.4318707 38.4201183,43.4642032 38.387574,43.4642032 C37.9970414,43.852194 37.7692308,44.369515 37.7692308,44.9515011 C37.7692308,45.5658198 37.9970414,46.0831409 38.387574,46.4711316 C38.5828402,46.665127 38.8431952,46.8267898 39.1035503,46.9237875 C39.0710059,46.6327945 39.0384615,46.3094688 39.0384615,45.9861432 C39.0384615,45.4688222 39.4615385,45.0161663 40.0147929,45.0161663 C40.5355029,45.0161663 40.9911243,45.4688222 40.9911243,45.9861432 C40.9911243,46.6004619 41.056213,47.1824481 41.2189349,47.7321016 C41.2189349,47.7644342 41.2189349,47.7644342 41.2514793,47.7967668 C41.5443787,48.8637413 42.1301775,49.8013857 42.8786982,50.5773672 C44.0502959,51.7413395 45.6775148,52.4526559 47.4674556,52.4526559 L47.5,52.4526559 L47.5325444,52.4526559 C49.3224852,52.4526559 50.9497041,51.7413395 52.1213018,50.5773672 C52.8698225,49.8013857 53.4556213,48.8637413 53.7485207,47.7967668 C53.7810651,47.7644342 53.7810651,47.7644342 53.7810651,47.7321016 C53.943787,47.1824481 54.0088757,46.6004619 54.0088757,45.9861432 C54.0088757,45.4688222 54.4644971,45.0161663 54.9852071,45.0161663 C55.5384615,45.0161663 55.9615385,45.4688222 55.9615385,45.9861432 C55.9615385,46.3094688 55.9289941,46.6327945 55.8964497,46.9237875 C56.1568047,46.8267898 56.4171598,46.665127 56.612426,46.4711316 C56.9704142,46.0831409 57.2307692,45.5658198 57.2307692,44.9515011 C57.2307692,44.369515 56.9704142,43.852194 56.612426,43.4642032 C56.2218935,43.0762125 55.668639,42.8498845 55.0828402,42.8498845 C54.9852071,42.8498845 54.887574,42.8498845 54.8224852,42.8498845 C54.7248521,42.8822171 54.6597633,42.8822171 54.5946745,42.9145497 C54.5621302,42.9145497 54.5295858,42.9145497 54.4970414,42.9145497 C53.9763314,43.0438799 53.4556213,42.6882217 53.3579882,42.1709007 L51.4053255,33.0207852 L51.4053255,32.9884526 L50.9497041,30.7575058 L50.9171598,30.7251732 L50.8195266,30.2725173 Z M53.2928994,32.6004619 L53.3254438,32.6004619 C53.6183432,33.9584295 54.3668639,35.0900693 55.3757397,35.9307159 C56.3846154,36.73903 57.6863905,37.2240185 59.0857988,37.2240185 L65.1065089,37.2240185 C66.5710057,37.2240185 67.9053254,36.6743649 68.9467454,35.8013857 C69.9881658,34.9284065 70.7366865,33.6674365 70.9644969,32.2448037 L71.7130176,27.5889145 L71.7130176,27.556582 C71.7130176,27.5242494 71.7130176,27.4919169 71.7130176,27.4595843 C71.7130176,27.4595843 71.7130176,27.4272517 71.7130176,27.3625866 C71.7130176,26.9745958 71.550296,26.6189376 71.2899406,26.3602771 C71.0295857,26.1016166 70.6715976,25.9399538 70.2810651,25.9399538 L53.683432,25.9399538 C53.260355,25.9399538 52.9023668,26.1016166 52.6420118,26.3602771 C52.3816568,26.6189376 52.2189349,26.9745958 52.2189349,27.3625866 C52.2189349,27.4272517 52.2189349,27.4919169 52.2514793,27.5242494 C52.2514793,27.556582 52.2514793,27.5889145 52.2514793,27.6212471 L52.2514793,27.6535797 L52.8372781,30.3371825 L52.8372781,30.369515 L53.2928994,32.6004619 Z M41.6745562,32.6004619 L42.1627219,30.369515 L42.1627219,30.3371825 L42.7485207,27.6535797 L42.7485207,27.6212471 C42.7485207,27.5889145 42.7485207,27.556582 42.7485207,27.5242494 C42.7485207,27.4919169 42.7810651,27.4272517 42.7810651,27.3625866 C42.7810651,26.9745958 42.6183432,26.6189376 42.3579882,26.3602771 C42.0976332,26.1016166 41.739645,25.9399538 41.316568,25.9399538 L24.7189349,25.9399538 C24.3284024,25.9399538 23.9704142,26.1016166 23.7100592,26.3602771 C23.4497041,26.6189376 23.2869822,26.9745958 23.2869822,27.3625866 C23.2869822,27.4272517 23.2869822,27.4595843 23.2869822,27.4595843 C23.2869822,27.4919169 23.2869822,27.5242494 23.2869822,27.556582 L23.2869822,27.5889145 L24.035503,32.2448037 C24.2633136,33.6674365 25.0118343,34.9284065 26.0532544,35.8013857 C27.0621302,36.6743649 28.4289941,37.2240185 29.8934911,37.2240185 L35.9142012,37.2240185 C37.3136095,37.2240185 38.5828402,36.73903 39.6242603,35.9307159 C40.6331361,35.0900693 41.3816568,33.9584295 41.6745562,32.6004619 Z" id="Glyph"></path>
            </g>
        </g>
    </g>
</svg>