<?xml version="1.0" encoding="UTF-8"?>
<svg width="401px" height="219px" viewBox="0 0 401 219" version="1.1" xmlns="http://www.w3.org/2000/svg" xmlns:xlink="http://www.w3.org/1999/xlink">
    <!-- Generator: Sketch 51.1 (57501) - http://www.bohemiancoding.com/sketch -->
    <title>HandwithEnvelope</title>
    <desc>Created with Sketch.</desc>
    <defs></defs>
    <g id="Blog" stroke="none" stroke-width="1" fill="none" fill-rule="evenodd">
        <g id="Blog-Main-1440" transform="translate(-892.000000, -1849.000000)">
            <g id="Subscribe-block" transform="translate(150.000000, 1784.000000)">
                <g id="Group-15">
                    <g id="HandwithEnvelope" transform="translate(947.374961, 154.434723) rotate(-15.000000) translate(-947.374961, -154.434723) translate(749.374961, 70.934723)">
                        <g id="Group-9" transform="translate(198.000000, 94.472603) scale(-1, 1) translate(-198.000000, -94.472603) translate(-0.000000, 22.472603)">
                            <g id="new-email-envelope" transform="translate(165.206445, -0.000000)" fill="#81D4F9" fill-rule="nonzero">
                                <path d="M110.313414,91.7635733 L5.96883135,0.131861556 L223.601898,0.131861556 L119.261073,91.7634953 C116.701911,94.0109398 112.872616,94.0109732 110.313414,91.7635733 Z" id="Shape"></path>
                                <polygon id="Shape" points="77.0845825 71.5987698 0.823619098 138.570646 0.823619098 4.62743964"></polygon>
                                <path d="M81.3235983,76.8901616 L108.821834,101.036795 C112.234249,104.03329 117.340089,104.033042 120.752213,101.036215 L148.244399,76.8901616 L223.670765,143.127988 L5.90051136,143.127988 L81.3235983,76.8901616 Z" id="Shape"></path>
                                <polygon id="Shape" points="153.612628 71.6020492 229.876871 4.62743964 229.876871 138.570646"></polygon>
                            </g>
                            <path d="M175.087443,128.121352 C160.614652,117.941595 152.216308,112.356549 149.892411,111.366217 C146.406565,109.880718 139.909938,103.911897 139.909938,95.7977138 C139.909938,90.3882581 139.815821,75.0516911 139.627588,49.7880129 C140.171314,46.5842671 141.613435,44.9823941 143.953952,44.9823941 C146.294469,44.9823941 147.739691,46.5842671 148.289618,49.7880129 L148.289618,87.8658639 L151.208883,87.8658639 L151.208883,45.2319643 C152.14664,42.4544102 153.579254,41.0656331 155.506726,41.0656331 C157.434198,41.0656331 158.906272,42.4544102 159.922948,45.2319643 L159.922948,88.0842993 L162.992097,88.0842993 L162.992097,49.1320109 C163.648887,46.3655997 165.028343,44.9823941 167.130464,44.9823941 C169.232585,44.9823941 170.728782,46.3655997 171.619057,49.1320109 L171.619057,87.8658639 L171.061156,88.3029412 L174.112464,88.3029412 L174.670364,53.8143609 C175.119867,51.4493158 176.432847,50.2667933 178.609303,50.2667933 C181.873987,50.2667933 182.85426,53.4241923 182.85426,53.8143609 C182.85426,54.0744732 182.85426,65.497786 182.85426,88.0842993 C193.316914,91.3250031 198.9754,98.0606021 199.829718,108.291096 C200.684036,118.52159 200.684036,125.131675 199.829718,128.121352 L175.087443,128.121352 Z" id="Path-6" stroke="#FFD54F" stroke-width="0.564999998" fill="#FFD54F" transform="translate(170.049022, 84.593493) rotate(-270.000000) translate(-170.049022, -84.593493) "></path>
                            <polygon id="Rectangle-4" fill="#798B98" transform="translate(58.358545, 100.719459) rotate(-270.000000) translate(-58.358545, -100.719459) " points="34.3777483 43.2494596 84.0631415 43.2494596 84.0631415 145.304254 32.6539477 158.189459"></polygon>
                            <polygon id="Rectangle-4" fill="#ACB9C2" transform="translate(121.424743, 101.581360) rotate(-270.000000) translate(-121.424743, -101.581360) " points="104.48654 95.9306748 138.362945 95.9306748 138.362945 107.232045 104.48654 107.232045"></polygon>
                        </g>
                        <g id="Group-12" transform="translate(206.646067, -0.000000)">
                            <g id="Group-11" transform="translate(-0.000000, -0.000000)">
                                <ellipse id="Oval-15" fill="#17A4E6" cx="22.7606506" cy="23.2842232" rx="22.5842697" ry="22.6027397"></ellipse>
                                <rect id="Rectangle-19" fill="#FFFFFF" x="19.3730101" y="7.46230539" width="6.7752809" height="22.6027397"></rect>
                                <rect id="Rectangle-19" fill="#FFFFFF" x="19.3730101" y="32.3253191" width="6.7752809" height="6.78082192"></rect>
                            </g>
                            <g id="Group-10" transform="translate(14.196629, 26.780822)"></g>
                        </g>
                    </g>
                </g>
            </g>
        </g>
    </g>
</svg>