<svg width="41" height="41" viewBox="0 0 41 41" fill="none" xmlns="http://www.w3.org/2000/svg">
<rect x="0.945801" y="0.831543" width="40" height="40" rx="20" fill="white"/>
<path d="M20.9431 17.4969C19.1069 17.4969 17.6084 18.9954 17.6084 20.8316C17.6084 22.6678 19.1069 24.1663 20.9431 24.1663C22.7793 24.1663 24.2778 22.6678 24.2778 20.8316C24.2778 18.9954 22.7793 17.4969 20.9431 17.4969ZM30.9447 20.8316C30.9447 19.4507 30.9572 18.0823 30.8796 16.7039C30.8021 15.1028 30.4369 13.6819 29.2661 12.5111C28.0928 11.3379 26.6744 10.9751 25.0733 10.8976C23.6924 10.82 22.324 10.8325 20.9456 10.8325C19.5647 10.8325 18.1963 10.82 16.8179 10.8976C15.2169 10.9751 13.7959 11.3404 12.6251 12.5111C11.4519 13.6844 11.0891 15.1028 11.0116 16.7039C10.934 18.0848 10.9465 19.4532 10.9465 20.8316C10.9465 22.21 10.934 23.5809 11.0116 24.9593C11.0891 26.5604 11.4544 27.9813 12.6251 29.1521C13.7984 30.3253 15.2169 30.6881 16.8179 30.7656C18.1988 30.8432 19.5672 30.8307 20.9456 30.8307C22.3265 30.8307 23.6949 30.8432 25.0733 30.7656C26.6744 30.6881 28.0953 30.3228 29.2661 29.1521C30.4394 27.9788 30.8021 26.5604 30.8796 24.9593C30.9597 23.5809 30.9447 22.2125 30.9447 20.8316ZM20.9431 25.9625C18.1037 25.9625 15.8122 23.671 15.8122 20.8316C15.8122 17.9922 18.1037 15.7007 20.9431 15.7007C23.7825 15.7007 26.074 17.9922 26.074 20.8316C26.074 23.671 23.7825 25.9625 20.9431 25.9625ZM26.2841 16.6889C25.6212 16.6889 25.0858 16.1535 25.0858 15.4906C25.0858 14.8277 25.6212 14.2923 26.2841 14.2923C26.9471 14.2923 27.4824 14.8277 27.4824 15.4906C27.4826 15.648 27.4517 15.8039 27.3916 15.9494C27.3314 16.0949 27.2432 16.227 27.1319 16.3383C27.0206 16.4497 26.8884 16.5379 26.7429 16.5981C26.5974 16.6582 26.4415 16.6891 26.2841 16.6889Z" fill="#6B7073"/>
</svg>
