<svg width="25" height="24" viewBox="0 0 25 24" fill="none" xmlns="http://www.w3.org/2000/svg">
<path fill-rule="evenodd" clip-rule="evenodd" d="M10.9291 5.14307C10.3768 5.14307 9.92913 5.59078 9.92913 6.14307V6.71449C9.92913 7.26678 10.3768 7.71449 10.9291 7.71449H21.7863C22.3386 7.71449 22.7863 7.26678 22.7863 6.71449V6.14307C22.7863 5.59078 22.3386 5.14307 21.7863 5.14307H10.9291ZM3.21484 15.4288C2.66256 15.4288 2.21484 15.8765 2.21484 16.4288V17.0002C2.21484 17.5525 2.66256 18.0002 3.21484 18.0002H21.7863C22.3386 18.0002 22.7863 17.5525 22.7863 17.0002V16.4288C22.7863 15.8765 22.3386 15.4288 21.7863 15.4288H3.21484ZM2.21484 6.14307C2.21484 5.59078 2.66256 5.14307 3.21484 5.14307H6.3577C6.90998 5.14307 7.3577 5.59078 7.3577 6.14307V6.71449C7.3577 7.26678 6.90999 7.71449 6.3577 7.71449H3.21484C2.66256 7.71449 2.21484 7.26678 2.21484 6.71449V6.14307ZM3.21484 10.2859C2.66256 10.2859 2.21484 10.7336 2.21484 11.2859V11.8574C2.21484 12.4096 2.66256 12.8574 3.21484 12.8574H21.7863C22.3386 12.8574 22.7863 12.4096 22.7863 11.8574V11.2859C22.7863 10.7336 22.3386 10.2859 21.7863 10.2859H3.21484Z" fill="#00AAFF"/>
</svg>
