<svg width="25" height="25" viewBox="0 0 25 25" fill="none" xmlns="http://www.w3.org/2000/svg">
<path fill-rule="evenodd" clip-rule="evenodd" d="M10.0814 8.49312H13.4557V10.1739C13.9418 9.20721 15.1883 8.33867 17.0607 8.33867C20.6503 8.33867 21.5025 10.2629 21.5025 13.7934V20.3321H17.8684V14.5975C17.8684 12.5869 17.3823 11.4531 16.1449 11.4531C14.4287 11.4531 13.7155 12.675 13.7155 14.5966V20.3321H10.0814V8.49312ZM3.84989 20.1776H7.48398V8.33867H3.84989V20.1776ZM8.00456 4.47835C8.0047 4.78296 7.94429 5.08455 7.82684 5.36561C7.7094 5.64666 7.53727 5.90157 7.32045 6.11551C6.88108 6.55217 6.28637 6.79659 5.66693 6.79509C5.04858 6.79467 4.45525 6.55087 4.01524 6.11642C3.7992 5.90175 3.62765 5.64655 3.51041 5.36546C3.39318 5.08437 3.33256 4.78291 3.33203 4.47835C3.33203 3.86328 3.57733 3.27456 4.01615 2.84029C4.45577 2.40525 5.04936 2.16135 5.66784 2.16162C6.28746 2.16162 6.88163 2.40601 7.32045 2.84029C7.75835 3.27456 8.00456 3.86328 8.00456 4.47835Z" fill="#959A9D"/>
</svg>
