<svg width="41" height="41" viewBox="0 0 41 41" fill="none" xmlns="http://www.w3.org/2000/svg">
<rect x="0.945312" y="0.831543" width="40" height="40" rx="20" fill="white"/>
<g clip-path="url(#clip0_4828_3632)">
<path fill-rule="evenodd" clip-rule="evenodd" d="M18.6088 16.9931H21.983V18.6739C22.4691 17.7072 23.7156 16.8387 25.5881 16.8387C29.1776 16.8387 30.0298 18.7629 30.0298 22.2934V28.8321H26.3957V23.0975C26.3957 21.0869 25.9097 19.9531 24.6723 19.9531C22.9561 19.9531 22.2429 21.175 22.2429 23.0966V28.8321H18.6088V16.9931ZM12.3772 28.6776H16.0113V16.8387H12.3772V28.6776ZM16.5319 12.9784C16.532 13.283 16.4716 13.5846 16.3542 13.8656C16.2367 14.1467 16.0646 14.4016 15.8478 14.6155C15.4084 15.0522 14.8137 15.2966 14.1943 15.2951C13.5759 15.2947 12.9826 15.0509 12.5426 14.6164C12.3265 14.4017 12.155 14.1466 12.0378 13.8655C11.9205 13.5844 11.8599 13.2829 11.8594 12.9784C11.8594 12.3633 12.1047 11.7746 12.5435 11.3403C12.9831 10.9052 13.5767 10.6613 14.1952 10.6616C14.8148 10.6616 15.409 10.906 15.8478 11.3403C16.2857 11.7746 16.5319 12.3633 16.5319 12.9784Z" fill="#6B7073"/>
</g>
<defs>
<clipPath id="clip0_4828_3632">
<rect width="20" height="20" fill="white" transform="translate(10.9453 9.83154)"/>
</clipPath>
</defs>
</svg>
