<svg width="25" height="25" viewBox="0 0 25 25" fill="none" xmlns="http://www.w3.org/2000/svg">
<path fill-rule="evenodd" clip-rule="evenodd" d="M20.529 10.1663L14.8721 15.8232C13.8958 16.7995 12.3129 16.7995 11.3366 15.8232C10.3603 14.8469 10.3603 13.264 11.3366 12.2876L12.0437 11.5805L10.9831 10.5199L10.2759 11.227C8.71385 12.7891 8.71385 15.3217 10.2759 16.8838C11.838 18.4459 14.3707 18.4459 15.9328 16.8838L21.5897 11.227C23.1518 9.66488 23.1518 7.13222 21.5897 5.57013C20.0276 4.00803 17.4949 4.00803 15.9328 5.57013L15.2257 6.27723L16.2864 7.33789L16.9935 6.63079C17.9698 5.65448 19.5527 5.65448 20.529 6.63079C21.5053 7.6071 21.5053 9.19001 20.529 10.1663Z" fill="#959A9D"/>
<path fill-rule="evenodd" clip-rule="evenodd" d="M4.49395 14.4968L10.1508 8.83991C11.1271 7.8636 12.71 7.8636 13.6863 8.83991C14.6626 9.81622 14.6626 11.3991 13.6863 12.3754L12.9792 13.0826L14.0399 14.1432L14.747 13.4361C16.3091 11.874 16.3091 9.34135 14.747 7.77925C13.1849 6.21715 10.6522 6.21715 9.09014 7.77925L3.43329 13.4361C1.87119 14.9982 1.87119 17.5309 3.43329 19.093C4.99539 20.6551 7.52805 20.6551 9.09015 19.093L9.79725 18.3859L8.73659 17.3252L8.02949 18.0323C7.05317 19.0086 5.47026 19.0086 4.49395 18.0323C3.51764 17.056 3.51764 15.4731 4.49395 14.4968Z" fill="#959A9D"/>
</svg>
