<svg xmlns="http://www.w3.org/2000/svg" width="64" height="64" viewBox="0 0 64 64">
    <path fill="#007AB9" fill-rule="evenodd" d="M49.96 47.08V34.586c0-6.693-3.574-9.807-8.338-9.807-3.844 0-5.567 2.114-6.527 3.598V25.29h-7.242c.096 2.044 0 21.79 0 21.79h7.242V34.91c0-.65.047-1.301.24-1.768.522-1.3 1.714-2.647 3.714-2.647 2.621 0 3.669 1.998 3.669 4.926v11.657h7.241zM20.222 22.316c2.525 0 4.098-1.674 4.098-3.767-.047-2.136-1.573-3.763-4.05-3.763s-4.097 1.627-4.097 3.763c0 2.093 1.572 3.767 4.003 3.767h.046zm3.621 24.762V25.291h-7.241v21.788h7.241zM0 0h64v64H0V0z"/>
</svg>
