<svg width="131" height="44" viewBox="0 0 131 44" fill="none" xmlns="http://www.w3.org/2000/svg">
<path fill-rule="evenodd" clip-rule="evenodd" d="M13.526 31.1425C12.9746 31.1425 12.5216 31.0157 12.1672 30.762C11.8324 30.5083 11.6158 30.1668 11.5173 29.7374C11.4386 29.3081 11.5272 28.83 11.7832 28.3031L19.3451 11.8811C19.6602 11.2176 20.0344 10.7394 20.4676 10.4467C20.9008 10.1345 21.403 9.97836 21.9741 9.97836C22.5452 9.97836 23.0473 10.1345 23.4806 10.4467C23.9138 10.7394 24.2781 11.2176 24.5735 11.8811L32.1945 28.3031C32.4505 28.83 32.5391 29.3179 32.4604 29.7667C32.4013 30.1961 32.2044 30.5376 31.8696 30.7913C31.5348 31.0254 31.1016 31.1425 30.5699 31.1425C29.9003 31.1425 29.3785 30.9864 29.0043 30.6742C28.6499 30.3619 28.3348 29.8741 28.0591 29.2105L26.835 26.4004H17.0927L15.8891 29.2105C15.5937 29.8936 15.2786 30.3912 14.9438 30.7034C14.6288 30.9962 14.1561 31.1425 13.526 31.1425ZM21.915 15.0718L18.6175 22.8584H25.2973L21.9741 15.0718H21.915Z" fill="url(#paint0_linear_4221_6523)"/>
<path fill-rule="evenodd" clip-rule="evenodd" d="M21.9888 43.8306C34.1329 43.8306 43.9776 34.0188 43.9776 21.9153C43.9776 9.81182 34.1329 0 21.9888 0C9.84473 0 0 9.81182 0 21.9153C0 34.0188 9.84473 43.8306 21.9888 43.8306ZM21.9888 39.7192C31.8193 39.7192 39.8288 31.7703 39.8288 21.9153C39.8288 12.0604 31.8193 4.11146 21.9888 4.11146C12.1583 4.11145 4.14883 12.0604 4.14883 21.9153C4.14883 31.7703 12.1583 39.7192 21.9888 39.7192Z" fill="url(#paint1_linear_4221_6523)"/>
<path fill-rule="evenodd" clip-rule="evenodd" d="M52.2023 31.372C52.6209 31.7907 53.219 32 53.9965 32H61.562C63.8346 32 65.6189 31.4817 66.9147 30.445C68.2105 29.3885 68.8584 27.9232 68.8584 26.0493C68.8584 24.6339 68.4497 23.4876 67.6323 22.6104C67.0029 21.9022 66.1684 21.3929 65.129 21.0822C65.9772 20.7495 66.6721 20.2522 67.2137 19.5902C67.9314 18.713 68.2902 17.6465 68.2902 16.3906C68.2902 15.2542 68.0111 14.2774 67.4529 13.46C66.9147 12.6427 66.1172 12.0147 65.0607 11.5761C64.0041 11.1376 62.7282 10.9183 61.2331 10.9183H53.9965C53.219 10.9183 52.6209 11.1276 52.2023 11.5462C51.7837 11.9649 51.5743 12.5629 51.5743 13.3404V29.5778C51.5743 30.3553 51.7837 30.9534 52.2023 31.372ZM60.934 28.5611H56V23.0291H60.934C62.1301 23.0291 63.0073 23.2583 63.5655 23.7168C64.1237 24.1753 64.4028 24.8631 64.4028 25.7801C64.4028 26.6972 64.1237 27.3949 63.5655 27.8734C63.0073 28.3319 62.1301 28.5611 60.934 28.5611ZM60.4257 19.5902H56V14.3571H60.4257C61.5819 14.3571 62.4391 14.5764 62.9973 15.015C63.5555 15.4536 63.8346 16.1015 63.8346 16.9587C63.8346 17.8359 63.5555 18.4937 62.9973 18.9323C62.4391 19.3709 61.5819 19.5902 60.4257 19.5902Z" fill="url(#paint2_linear_4221_6523)"/>
<path d="M72.9644 31.372C73.3831 31.7907 73.9712 32 74.7287 32H85.0154C85.6533 32 86.1418 31.8305 86.4807 31.4916C86.8395 31.1527 87.0189 30.6643 87.0189 30.0264C87.0189 29.4084 86.8395 28.9299 86.4807 28.591C86.1418 28.2521 85.6533 28.0827 85.0154 28.0827H77.0014V13.2208C77.0014 12.4433 76.802 11.8552 76.4033 11.4565C76.0046 11.0578 75.4364 10.8585 74.6988 10.8585C73.9413 10.8585 73.3631 11.0578 72.9644 11.4565C72.5657 11.8552 72.3664 12.4433 72.3664 13.2208V29.6376C72.3664 30.3753 72.5657 30.9534 72.9644 31.372Z" fill="url(#paint3_linear_4221_6523)"/>
<path fill-rule="evenodd" clip-rule="evenodd" d="M92.6461 30.9833C94.221 31.8804 96.0451 32.3289 98.1184 32.3289C99.6933 32.3289 101.119 32.0698 102.395 31.5515C103.67 31.0331 104.767 30.2955 105.684 29.3386C106.601 28.3817 107.309 27.2354 107.807 25.8998C108.305 24.5641 108.555 23.0689 108.555 21.4143C108.555 19.2413 108.116 17.3475 107.239 15.7327C106.382 14.098 105.176 12.8321 103.621 11.935C102.066 11.0379 100.232 10.5893 98.1184 10.5893C96.5634 10.5893 95.138 10.8485 93.8422 11.3668C92.5664 11.8851 91.4699 12.6228 90.5529 13.5797C89.6358 14.5166 88.9281 15.6529 88.4297 16.9886C87.9513 18.3044 87.7121 19.7895 87.7121 21.4442C87.7121 23.6171 88.1407 25.521 88.9979 27.1557C89.8751 28.7904 91.0911 30.0663 92.6461 30.9833ZM101.109 27.5743C100.291 28.1126 99.2946 28.3817 98.1184 28.3817C96.3641 28.3817 94.9985 27.7737 94.0216 26.5576C93.0448 25.3216 92.5564 23.6171 92.5564 21.4442C92.5564 19.9889 92.7757 18.7429 93.2142 17.7063C93.6528 16.6696 94.2908 15.8822 95.1281 15.3439C95.9653 14.8057 96.9621 14.5366 98.1184 14.5366C99.8926 14.5366 101.268 15.1446 102.245 16.3606C103.222 17.5568 103.71 19.2513 103.71 21.4442C103.71 22.8795 103.481 24.1255 103.022 25.1821C102.584 26.2187 101.946 27.0161 101.109 27.5743Z" fill="url(#paint4_linear_4221_6523)"/>
<path d="M116.536 30.9833C118.19 31.8804 120.204 32.3289 122.576 32.3289C123.673 32.3289 124.779 32.2293 125.895 32.0299C127.012 31.8305 128.018 31.5714 128.916 31.2524C129.394 31.0929 129.733 30.8338 129.932 30.4749C130.132 30.1161 130.231 29.6775 130.231 29.1592V22.2217C130.231 21.6236 130.072 21.1651 129.753 20.8461C129.454 20.5272 129.005 20.3677 128.407 20.3677H123.712C123.114 20.3677 122.656 20.5172 122.337 20.8162C122.018 21.0953 121.858 21.504 121.858 22.0422C121.858 22.5606 122.018 22.9692 122.337 23.2683C122.656 23.5673 123.114 23.7168 123.712 23.7168H126.404V27.8502C125.949 27.9798 125.49 28.0872 125.028 28.1724C124.271 28.3119 123.533 28.3817 122.815 28.3817C120.682 28.3817 119.067 27.8036 117.971 26.6473C116.895 25.4911 116.356 23.7866 116.356 21.5339C116.356 20.0387 116.586 18.7828 117.044 17.7661C117.522 16.7295 118.24 15.952 119.197 15.4337C120.154 14.8954 121.34 14.6263 122.756 14.6263C123.633 14.6263 124.44 14.716 125.178 14.8954C125.915 15.0549 126.613 15.314 127.271 15.6729C127.769 15.9121 128.208 15.9918 128.587 15.9121C128.985 15.8124 129.304 15.6131 129.544 15.314C129.803 14.9951 129.962 14.6362 130.022 14.2375C130.102 13.8189 130.062 13.4301 129.902 13.0713C129.763 12.6925 129.484 12.3835 129.065 12.1443C128.068 11.5861 127.032 11.1874 125.955 10.9482C124.879 10.709 123.802 10.5893 122.726 10.5893C120.971 10.5893 119.396 10.8485 118.001 11.3668C116.625 11.8851 115.449 12.6228 114.472 13.5797C113.515 14.5166 112.778 15.6629 112.26 17.0185C111.761 18.3542 111.512 19.8593 111.512 21.5339C111.512 23.7069 111.941 25.6007 112.798 27.2155C113.655 28.8303 114.901 30.0862 116.536 30.9833Z" fill="url(#paint5_linear_4221_6523)"/>
<defs>
<linearGradient id="paint0_linear_4221_6523" x1="64.39" y1="0" x2="64.39" y2="43.8306" gradientUnits="userSpaceOnUse">
<stop stop-color="#4ED1F7"/>
<stop offset="1" stop-color="#0482F6"/>
</linearGradient>
<linearGradient id="paint1_linear_4221_6523" x1="64.39" y1="0" x2="64.39" y2="43.8306" gradientUnits="userSpaceOnUse">
<stop stop-color="#4ED1F7"/>
<stop offset="1" stop-color="#0482F6"/>
</linearGradient>
<linearGradient id="paint2_linear_4221_6523" x1="64.39" y1="0" x2="64.39" y2="43.8306" gradientUnits="userSpaceOnUse">
<stop stop-color="#4ED1F7"/>
<stop offset="1" stop-color="#0482F6"/>
</linearGradient>
<linearGradient id="paint3_linear_4221_6523" x1="64.39" y1="0" x2="64.39" y2="43.8306" gradientUnits="userSpaceOnUse">
<stop stop-color="#4ED1F7"/>
<stop offset="1" stop-color="#0482F6"/>
</linearGradient>
<linearGradient id="paint4_linear_4221_6523" x1="64.39" y1="0" x2="64.39" y2="43.8306" gradientUnits="userSpaceOnUse">
<stop stop-color="#4ED1F7"/>
<stop offset="1" stop-color="#0482F6"/>
</linearGradient>
<linearGradient id="paint5_linear_4221_6523" x1="64.39" y1="0" x2="64.39" y2="43.8306" gradientUnits="userSpaceOnUse">
<stop stop-color="#4ED1F7"/>
<stop offset="1" stop-color="#0482F6"/>
</linearGradient>
</defs>
</svg>
