<?xml version="1.0" encoding="UTF-8"?>
<svg width="166px" height="18px" viewBox="0 0 166 18" version="1.1" xmlns="http://www.w3.org/2000/svg" xmlns:xlink="http://www.w3.org/1999/xlink">
    <!-- Generator: Sketch 49.3 (51167) - http://www.bohemiancoding.com/sketch -->
    <title>LOGO</title>
    <desc>Created with Sketch.</desc>
    <defs></defs>
    <g id="Blog" stroke="none" stroke-width="1" fill="none" fill-rule="evenodd">
        <g id="Tablet_04_Blog_Menu_01a" transform="translate(-86.000000, -36.000000)" fill="#263338">
            <g id="LOGO" transform="translate(86.000000, 36.000000)">
                <g id="Text" transform="translate(0.767381, 0.750000)">
                    <path d="M92.4636765,14.965038 L92.4636765,2.09746202 C92.4636765,1.08408149 93.2651628,0.282803867 94.2788072,0.282803867 L100.124942,0.282803867 C102.010792,0.282803867 103.495899,0.801277624 104.438824,1.74395718 C105.193164,2.49810083 105.570334,3.4172134 105.570334,4.54842887 L105.570334,4.59556285 C105.570334,6.45735497 104.580263,7.49430249 103.401607,8.15417818 C105.31103,8.88475483 106.489686,9.99240331 106.489686,12.2077003 L106.489686,12.2548343 C106.489686,15.2714088 104.038081,16.7796961 100.313527,16.7796961 L94.2788072,16.7796961 C93.2651628,16.7796961 92.4636765,15.9784185 92.4636765,14.965038 Z M95.9996453,6.95226174 L99.3470291,6.95226174 C100.950002,6.95226174 101.963646,6.43378798 101.963646,5.20830456 L101.963646,5.16117058 C101.963646,4.07708909 101.115014,3.46434738 99.5827604,3.46434738 L95.9996453,3.46434738 L95.9996453,6.95226174 Z M95.9996453,13.5981526 L100.313527,13.5981526 C101.9165,13.5981526 102.882998,13.0325449 102.882998,11.8070615 L102.882998,11.7599275 C102.882998,10.652279 102.057939,9.96883633 100.195662,9.96883633 L95.9996453,9.96883633 L95.9996453,13.5981526 Z M111.953039,14.965038 L111.953039,1.95606008 C111.953039,0.942679558 112.754525,0.141401934 113.768169,0.141401934 C114.781814,0.141401934 115.5833,0.942679558 115.5833,1.95606008 L115.5833,13.4803177 L122.301641,13.4803177 C123.220993,13.4803177 123.95176,14.2108943 123.95176,15.1300069 C123.95176,16.0491195 123.220993,16.7796961 122.301641,16.7796961 L113.768169,16.7796961 C112.754525,16.7796961 111.953039,15.9784185 111.953039,14.965038 Z M135.337954,17.0625 C130.246158,17.0625 126.592324,13.2682148 126.592324,8.57838398 L126.592324,8.53125 C126.592324,3.8414192 130.293305,0 135.3851,0 C140.476895,0 144.130729,3.79428522 144.130729,8.48411602 L144.130729,8.53125 C144.130729,13.2210808 140.429749,17.0625 135.337954,17.0625 Z M135.3851,13.7159876 C138.308167,13.7159876 140.335456,11.4064227 140.335456,8.57838398 L140.335456,8.53125 C140.335456,5.70321133 138.261021,3.34651243 135.337954,3.34651243 C132.414886,3.34651243 130.387597,5.65607735 130.387597,8.48411602 L130.387597,8.53125 C130.387597,11.3592887 132.462032,13.7159876 135.3851,13.7159876 Z M157.773956,17.0625 C152.635015,17.0625 149.099046,13.4567507 149.099046,8.57838398 L149.099046,8.53125 C149.099046,3.8414192 152.752881,0 157.750383,0 C160.249135,0 161.899253,0.565607735 163.38436,1.60255525 C163.737957,1.86179213 164.1387,2.3566989 164.1387,3.06370856 C164.1387,4.0535221 163.337214,4.85479972 162.347143,4.85479972 C161.828534,4.85479972 161.49851,4.66626381 161.239206,4.4777279 C160.249135,3.77071823 159.188344,3.34651243 157.632518,3.34651243 C154.992328,3.34651243 152.89432,5.67964434 152.89432,8.48411602 L152.89432,8.53125 C152.89432,11.5478246 154.968755,13.7631215 157.891822,13.7631215 C159.211917,13.7631215 160.390573,13.4331837 161.309925,12.773308 L161.309925,10.4166091 L158.85832,10.4166091 C157.986115,10.4166091 157.278921,9.73316644 157.278921,8.86118785 C157.278921,7.98920925 157.986115,7.28219959 158.85832,7.28219959 L163.00719,7.28219959 C164.020835,7.28219959 164.822321,8.08347721 164.822321,9.09685773 L164.822321,13.1032459 C164.822321,14.1637604 164.421578,14.894337 163.549372,15.4128108 C162.205704,16.2376554 160.249135,17.0625 157.773956,17.0625 Z" id="BLOG"></path>
                    <path d="M0.127369712,14.8993216 L5.92128351,1.57894746 C6.33792956,0.621065668 7.29385117,-1.95399252e-14 8.35154108,-1.95399252e-14 C9.40914346,-1.95399252e-14 10.3648963,0.621267432 10.7810608,1.57925885 L16.4509944,14.6311928 C16.83606,15.5175972 16.4189267,16.5437398 15.5193004,16.9231464 C15.3215917,17.0065277 15.1101288,17.0537488 14.8952539,17.0625 C14.0449662,16.9984192 13.3040752,16.4672767 12.9805499,15.6898543 L11.9367016,13.1815162 L4.66815653,13.1815162 L3.6446091,15.6854555 L3.64460734,15.6854549 C3.30448429,16.5175093 2.48540751,17.0625 1.57501975,17.0625 C1.57501975,17.0625 1.57501975,17.0625 1.57501975,17.0625 C1.57501975,17.0625 1.57501975,17.0625 1.57501975,17.0625 C0.70516059,17.0625 0,16.3677033 0,15.510628 C0,15.300462 0.0433258173,15.0924859 0.127349323,14.899313 L0.127369712,14.8993216 Z M6.0343247,9.64402174 L10.5600682,9.64402174 L8.62402505,4.66711979 C8.55747297,4.49603698 8.35719564,4.40848265 8.17669302,4.47156172 C8.08103849,4.50498944 8.00563588,4.57645719 7.97036753,4.66711979 L6.0343247,9.64402174 Z M20.6346028,11.1277174 L24.6228325,11.1277174 C25.6044291,11.1277174 26.4001706,10.2973759 26.4001706,9.27309784 C26.4001706,8.24881973 25.6044291,7.41847826 24.6228325,7.41847826 L20.6346028,7.41847826 C19.6530061,7.41847826 18.8572647,8.24881973 18.8572647,9.27309784 C18.8572647,10.2973759 19.6530061,11.1277174 20.6346028,11.1277174 Z M28.0334756,14.9303834 L33.8035783,1.58899327 C34.2204602,0.62509687 35.1778608,-1.95399252e-14 36.2372866,-1.95399252e-14 C37.2967123,-1.95399252e-14 38.2541132,0.62509687 38.6709948,1.58899327 L44.3681222,14.7616525 C44.7306958,15.5999804 44.3379276,16.5704675 43.4908494,16.9292959 C43.2833728,17.0171846 43.0600351,17.0625 42.8343517,17.0625 C42.8343517,17.0625 42.8343517,17.0625 42.8343517,17.0625 C42.8343517,17.0625 42.8343517,17.0625 42.8343517,17.0625 C41.9684392,17.0625 41.188366,16.5446592 40.859855,15.7517581 L39.8286283,13.262766 L32.5475521,13.262766 L31.5493544,15.6720383 C31.2008636,16.5131639 30.3733458,17.0625 29.4547685,17.0625 C28.600927,17.0625 27.9087517,16.3774748 27.9087517,15.5324533 C27.9087517,15.3254803 27.9511824,15.1206589 28.0334756,14.9303834 Z M33.9430764,9.64402174 L38.46882,9.64402174 L36.5327769,4.66711979 C36.4662249,4.49603698 36.2659475,4.40848265 36.0854449,4.47156172 C35.9897904,4.50498944 35.9143878,4.57645719 35.8791195,4.66711979 L33.9430764,9.64402174 Z M48.2745976,14.9776957 L48.2745976,1.34295652 C48.2745976,0.601262114 48.9042224,-4.08562073e-14 49.6809039,-4.08562073e-14 L54.9790129,-4.08562073e-14 C60.3818387,-4.08562073e-14 64.1146999,3.52059785 64.1146999,8.16032609 C64.1146999,12.7534239 60.3818387,16.3206522 54.9790129,16.3206522 L49.6809039,16.3206522 C48.9042224,16.3206522 48.2745976,15.7193901 48.2745976,14.9776957 Z M52.405998,13.3532609 L55.0380698,13.3532609 C58.2060903,13.3532609 60.343247,11.4107446 60.343247,8.53125 C60.343247,5.69746163 58.2060903,3.70923913 55.0380698,3.70923913 L52.405998,3.70923913 C52.2072044,3.70923913 52.0460505,3.85657557 52.0460505,4.03832423 L52.0460505,13.0241758 C52.0460505,13.2059244 52.2072044,13.3532609 52.405998,13.3532609 Z M73.6293963,17.0625 C77.3458797,17.0625 79.9548023,15.2140625 79.9548023,11.9200521 C79.9548023,8.9815104 77.9858045,7.77291667 74.4908329,6.89609374 C71.5127235,6.16145835 70.7743495,5.80598959 70.7743495,4.7158854 C70.7743495,3.8627604 71.7663804,3.15676742 72.924895,3.15676742 C74.0834095,3.15676742 76.1890938,3.93462274 77.0170221,4.23392134 C77.8449506,4.53321991 78.941201,4.58229507 79.3791124,3.86953125 C79.8170238,3.15676742 79.7541638,2.37237546 79.0863335,1.77057293 C78.4185031,1.1687704 75.5491695,0 73.038697,0 C69.5191132,0 67.0086411,1.99062499 67.0086411,5.00026042 C67.0086411,8.34166665 69.248376,9.26588542 72.7187348,10.1190104 C75.5983945,10.8299479 76.1890938,11.3039062 76.1890938,12.228125 C76.1890938,13.2471354 75.1799823,14.0128258 73.6293963,14.0128258 C71.6603985,14.0128258 69.5213041,12.5719046 68.8993395,12.2585937 C68.2773752,11.9452829 67.255832,11.8705563 66.6588583,12.6571009 C66.0618845,13.4436455 66.5145031,14.4029945 67.0939378,14.928169 C67.6733721,15.4533436 70.1962365,17.0625 73.6293963,17.0625 Z" id="A-ADS" fill-rule="nonzero"></path>
                </g>
            </g>
        </g>
    </g>
</svg>