<svg xmlns="http://www.w3.org/2000/svg" width="57" height="32" viewBox="0 0 57 32">
    <defs>
        <filter id="a" width="101.4%" height="109.5%" x="-.7%" y="-4.8%" filterUnits="objectBoundingBox">
            <feOffset in="SourceAlpha" result="shadowOffsetOuter1"/>
            <feGaussianBlur in="shadowOffsetOuter1" result="shadowBlurOuter1" stdDeviation="2"/>
            <feColorMatrix in="shadowBlurOuter1" result="shadowMatrixOuter1" values="0 0 0 0 0 0 0 0 0 0 0 0 0 0 0 0 0 0 0.13 0"/>
            <feMerge>
                <feMergeNode in="shadowMatrixOuter1"/>
                <feMergeNode in="SourceGraphic"/>
            </feMerge>
        </filter>
    </defs>
    <path fill="#33C7F5" fill-rule="nonzero" d="M36 29c0 2.263 1.72 4 4 4h24c2.281 0 4-1.734 4-4V13c0-2.263-1.72-4-4-4H40c-2.281 0-4 1.734-4 4v16zm3.037-18h25.926c.439 0 1.037.615 1.037 1.053v17.894c0 .44-.596 1.053-1.037 1.053H39.037C38.598 31 38 30.385 38 29.947V12.053c0-.44.596-1.053 1.037-1.053zM32 17c.43 0 1-.672 1-1 0-1.328-.57-2-1-2h-5c-.43 0-1 .672-1 2 0 .328.57 1 1 1h5zm0 6c.43 0 1-.672 1-1 0-1.328-.57-2-1-2H20c-.43 0-1 .672-1 2 0 .328.57 1 1 1h12zm0 6h-8c-.44 0-1-.672-1-1 0-1.328.56-2 1-2h8c.44 0 1 .672 1 2 0 .328-.56 1-1 1zm26.597-9.633l-1.301 1.236 5.796 5.597c.513.495.528 1.314.034 1.829-.494.514-1.31.53-1.823.034l-5.882-5.68-.93.882-.393.374c-1.194 1.115-3.098 1.114-4.29 0l-1.406-1.313-.147.142a4674.763 4674.763 0 0 1-2.794 2.705 497.404 497.404 0 0 1-3.016 2.905 1.287 1.287 0 0 1-1.823-.065 1.296 1.296 0 0 1 .065-1.828c.244-.227 1.337-1.281 2.993-2.883a4168.913 4168.913 0 0 0 2.783-2.694l.05-.048-5.826-5.441a1.296 1.296 0 0 1-.065-1.828 1.287 1.287 0 0 1 1.823-.065l9.12 8.52c.203.19.572.19.768.008l.386-.366 1.017-.967a41847.426 41847.426 0 0 1 7.582-7.195 1.287 1.287 0 0 1 1.823.065c.485.523.456 1.34-.065 1.828-.135.126-1.81 1.715-4.479 4.248z" filter="url(#a)" transform="translate(-15 -5)"/>
</svg>
