<svg xmlns="http://www.w3.org/2000/svg" width="49" height="24" viewBox="0 0 49 24">
    <path fill="#33C7F5" fill-rule="nonzero" d="M39.597 10.367c2.67-2.533 4.344-4.122 4.48-4.248.52-.487.55-1.305.064-1.828a1.287 1.287 0 0 0-1.823-.065l-4.491 4.261-3.09 2.934-1.018.967-.386.366c-.196.182-.565.182-.767-.007l-9.121-8.52a1.287 1.287 0 0 0-1.823.064 1.296 1.296 0 0 0 .065 1.828l5.825 5.441a479.52 479.52 0 0 0-.738.716l-2.094 2.026a516.355 516.355 0 0 1-2.993 2.883 1.296 1.296 0 0 0-.065 1.828 1.287 1.287 0 0 0 1.823.065c.26-.244 1.346-1.29 3.016-2.905a4177.216 4177.216 0 0 0 2.94-2.847l1.407 1.313c1.192 1.114 3.096 1.115 4.29 0l.394-.374.93-.882 5.88 5.68c.514.495 1.33.48 1.824-.034a1.296 1.296 0 0 0-.034-1.829l-5.796-5.597 1.301-1.236zm-22.834 9.757A3.874 3.874 0 0 0 20.633 24H45.13A3.872 3.872 0 0 0 49 20.124V3.876A3.874 3.874 0 0 0 45.13 0H20.633a3.872 3.872 0 0 0-3.87 3.876v16.248zm3.87-17.538H45.13c.713 0 1.291.58 1.291 1.29v16.248a1.29 1.29 0 0 1-1.29 1.29H20.632c-.713 0-1.29-.58-1.29-1.29V3.876c0-.712.576-1.29 1.29-1.29zm-7.738 6.466c.712 0 1.29-.58 1.29-1.293 0-.715-.578-1.293-1.29-1.293H8.382c-.713 0-1.29.578-1.29 1.293 0 .714.577 1.293 1.29 1.293h4.513zm0 5.172c.712 0 1.29-.579 1.29-1.293s-.578-1.293-1.29-1.293H1.289C.577 11.638 0 12.217 0 12.93s.577 1.293 1.29 1.293h11.605zm0 5.173c.712 0 1.29-.58 1.29-1.294 0-.714-.578-1.293-1.29-1.293H5.158c-.712 0-1.29.58-1.29 1.293 0 .715.578 1.294 1.29 1.294h7.737z"/>
</svg>
