<svg width="25" height="25" viewBox="0 0 25 25" fill="none" xmlns="http://www.w3.org/2000/svg">
<path d="M4.50061 20.9812C4.04063 20.9812 3.64175 20.8123 3.30399 20.4745C2.96624 20.1368 2.79736 19.7379 2.79736 19.2779V6.38552C2.79736 5.9239 2.96624 5.52363 3.30399 5.18469C3.64175 4.84574 4.04063 4.67627 4.50061 4.67627H21.393C21.8546 4.67627 22.2549 4.84574 22.5938 5.18469C22.9328 5.52363 23.1023 5.9239 23.1023 6.38552V19.2779C23.1023 19.7379 22.9328 20.1368 22.5938 20.4745C22.2549 20.8123 21.8546 20.9812 21.393 20.9812H4.50061ZM12.9468 13.8818L4.50061 8.30684V19.2779H21.393V8.30684L12.9468 13.8818ZM12.9468 11.8355L21.293 6.38552H4.62561L12.9468 11.8355ZM4.50061 8.30684V6.38552V19.2779V8.30684Z" fill="#263238"/>
</svg>
