<?xml version="1.0" encoding="UTF-8"?>
<svg width="37px" height="36px" viewBox="0 0 37 36" version="1.1" xmlns="http://www.w3.org/2000/svg" xmlns:xlink="http://www.w3.org/1999/xlink">
    <!-- Generator: Sketch 51.1 (57501) - http://www.bohemiancoding.com/sketch -->
    <title>medium</title>
    <desc>Created with Sketch.</desc>
    <defs></defs>
    <g id="Blog" stroke="none" stroke-width="1" fill="none" fill-rule="evenodd">
        <g id="Blog-Main-1440" transform="translate(-707.000000, -2354.000000)" fill-rule="nonzero">
            <g id="Footer" transform="translate(0.000000, 2308.000000)">
                <g id="Group" transform="translate(603.000000, 46.000000)">
                    <g id="medium" transform="translate(104.000000, 0.000000)">
                        <path d="M18.5,0 C8.67410853,0 0.709543568,8.058375 0.709543568,18 C0.709543568,27.9405 8.67410853,36 18.5,36 C28.3258915,36 36.2904564,27.9405 36.2904564,18 C36.2904564,8.058375 28.3258915,0 18.5,0 Z" id="Shape" fill="#D8DFE3"></path>
                        <path d="M28.4615437,12.4605 L22.0569794,9.2205 C22.0280699,9.205875 21.9958247,9.199125 21.9646914,9.198 C21.9624676,9.198 21.9602438,9.196875 21.95802,9.196875 C21.8801867,9.196875 21.8023535,9.23625 21.761213,9.304875 L17.8139555,15.795 L22.2204292,23.04 L28.5238103,12.6765 C28.5693983,12.601125 28.5416008,12.501 28.4615437,12.4605 Z" id="Shape" fill="#FFFFFF"></path>
                        <polygon id="Shape" fill="#FFFFFF" points="15.7258007 13.514625 15.7258007 20.50875 21.8701796 23.616"></polygon>
                        <path d="M22.407229,23.88375 L28.0490275,26.737875 C28.3570248,26.893125 28.6094269,26.735625 28.6094269,26.388 L28.6094269,13.68675 L22.407229,23.88375 Z" id="Shape" fill="#FFFFFF"></path>
                        <path d="M15.0475395,12.493125 L9.1377723,9.504 L8.76417272,9.315 C8.71080135,9.288 8.65965379,9.2745 8.61295384,9.2745 C8.54735153,9.2745 8.49175635,9.300375 8.45172783,9.34875 C8.41392311,9.396 8.39057313,9.4635 8.39057313,9.547875 L8.39057313,23.194125 C8.39057313,23.425875 8.55847057,23.7015 8.76417272,23.805 L14.5705329,26.742375 C14.6517019,26.782875 14.7284232,26.802 14.7973613,26.802 C14.9930563,26.802 15.1298204,26.649 15.1298204,26.391375 L15.1298204,12.62925 C15.1309323,12.571875 15.0986871,12.519 15.0475395,12.493125 Z" id="Shape" fill="#FFFFFF"></path>
                    </g>
                </g>
            </g>
        </g>
    </g>
</svg>