<?xml version="1.0" encoding="UTF-8"?>
<svg width="35px" height="35px" viewBox="0 0 35 35" version="1.1" xmlns="http://www.w3.org/2000/svg" xmlns:xlink="http://www.w3.org/1999/xlink">
    <!-- Generator: Sketch 49.3 (51167) - http://www.bohemiancoding.com/sketch -->
    <title>Medium</title>
    <desc>Created with Sketch.</desc>
    <defs></defs>
    <g id="Blog" stroke="none" stroke-width="1" fill="none" fill-rule="evenodd">
        <g id="Tablet_01_Blog_MainPage_01a" transform="translate(-367.000000, -2650.000000)" fill-rule="nonzero">
            <g id="FOOTER" transform="translate(0.000000, 2626.000000)">
                <g id="Socials" transform="translate(257.000000, 24.000000)">
                    <g id="Medium" transform="translate(110.000000, 0.000000)">
                        <path d="M17.5,0 C7.83453125,0 0,7.83453125 0,17.5 C0,27.164375 7.83453125,35 17.5,35 C27.1654687,35 35,27.164375 35,17.5 C35,7.83453125 27.1654687,0 17.5,0 Z" id="Shape" fill="#00AB6B"></path>
                        <g id="Group" transform="translate(6.562500, 8.750000)" fill="#FFFFFF">
                            <path d="M20.7364062,3.364375 L14.4364062,0.214375 C14.4079687,0.20015625 14.37625,0.19359375 14.345625,0.1925 C14.3434375,0.1925 14.34125,0.19140625 14.3390625,0.19140625 C14.2625,0.19140625 14.1859375,0.2296875 14.1454687,0.29640625 L10.2626562,6.60625 L14.5971875,13.65 L20.7976562,3.574375 C20.8425,3.50109375 20.8151562,3.40375 20.7364062,3.364375 Z" id="Shape"></path>
                            <polygon id="Shape" points="8.20859375 4.38921875 8.20859375 11.1890625 14.2526562 14.21"></polygon>
                            <path d="M14.7809375,14.4703125 L20.330625,17.2451562 C20.6335937,17.3960937 20.881875,17.2429687 20.881875,16.905 L20.881875,4.5565625 L14.7809375,14.4703125 Z" id="Shape"></path>
                            <path d="M7.54140625,3.39609375 L1.728125,0.49 L1.360625,0.30625 C1.308125,0.28 1.2578125,0.266875 1.211875,0.266875 C1.14734375,0.266875 1.09265625,0.29203125 1.05328125,0.3390625 C1.01609375,0.385 0.993125,0.450625 0.993125,0.53265625 L0.993125,13.7998438 C0.993125,14.0251563 1.15828125,14.293125 1.360625,14.39375 L7.0721875,17.2495313 C7.15203125,17.2889063 7.2275,17.3075 7.2953125,17.3075 C7.4878125,17.3075 7.62234375,17.15875 7.62234375,16.9082813 L7.62234375,3.5284375 C7.6234375,3.47265625 7.59171875,3.42125 7.54140625,3.39609375 Z" id="Shape"></path>
                        </g>
                    </g>
                </g>
            </g>
        </g>
    </g>
</svg>