<?xml version="1.0" encoding="UTF-8"?>
<svg width="36px" height="37px" viewBox="0 0 36 37" version="1.1" xmlns="http://www.w3.org/2000/svg" xmlns:xlink="http://www.w3.org/1999/xlink">
    <!-- Generator: Sketch 51.1 (57501) - http://www.bohemiancoding.com/sketch -->
    <title>Medium</title>
    <desc>Created with Sketch.</desc>
    <defs></defs>
    <g id="Blog" stroke="none" stroke-width="1" fill="none" fill-rule="evenodd">
        <g id="Blog-Page-1440" transform="translate(-215.000000, -296.000000)" fill-rule="nonzero">
            <g id="Group" transform="translate(215.000000, 186.000000)">
                <g id="Medium" transform="translate(0.000000, 110.000000)">
                    <path d="M17.9018057,0.25 C8.01441463,0.25 0,8.36801758 0,18.3832237 C0,28.3972965 8.01441463,36.5164474 17.9018057,36.5164474 C27.7891967,36.5164474 35.8036114,28.3972965 35.8036114,18.3832237 C35.8036114,8.36801758 27.7891967,0.25 17.9018057,0.25 Z" id="Shape" fill="#03A9F4"></path>
                    <g id="Group-2" transform="translate(8.129032, 9.437500)" fill="#FFFFFF">
                        <path d="M19.561954,3.42229181 L13.47534,0.362310309 C13.4478657,0.348497893 13.4172213,0.342122931 13.3876336,0.341060438 C13.3073241,0.339997944 13.2333549,0.377185219 13.1942568,0.441997327 L9.4429583,6.57152276 L13.6306755,13.4139814 L19.6211294,3.62629057 C19.6644542,3.5551035 19.6380366,3.46054157 19.561954,3.42229181 Z" id="Shape"></path>
                        <polygon id="Shape" points="7.73092054 4.58997225 7.73092054 11.1954948 13.5702658 14.1301021"></polygon>
                        <path d="M13.7230527,14.220414 L19.0847678,16.9159602 C19.3774748,17.0625843 19.6173466,16.9138352 19.6173466,16.5855247 L19.6173466,4.58997225 L13.7230527,14.220414 Z" id="Shape"></path>
                        <path d="M7.20925517,3.37979206 L1.59287443,0.556746633 L1.23782195,0.378247713 C1.18710017,0.352747867 1.13849179,0.339997944 1.09411023,0.339997944 C1.03176471,0.339997944 0.978929519,0.364435296 0.940888182,0.41012252 C0.904960253,0.45474725 0.882769473,0.518496865 0.882769473,0.598183883 L0.882769473,13.486231 C0.882769473,13.7051046 1.04233175,13.9654156 1.23782195,14.063165 L6.75592924,16.8373357 C6.83306861,16.8755855 6.90598118,16.8936478 6.97149681,16.8936478 C7.15747668,16.8936478 7.28745125,16.7491487 7.28745125,16.5058377 L7.28745125,3.50835379 C7.28850795,3.45416661 7.25786354,3.40422942 7.20925517,3.37979206 Z" id="Shape"></path>
                    </g>
                </g>
            </g>
        </g>
    </g>
</svg>