<svg xmlns="http://www.w3.org/2000/svg" width="128" height="128" viewBox="0 0 128 128">
    <g fill="#33C6F3" fill-rule="nonzero">
        <path d="M116.537 29.101c-4.835-7.79-11.357-12.081-18.363-12.081-4.206 0-8.236 1.547-11.832 4.467-13.001 4.496-33.553 10.041-58.24 11.218C15.146 33.323 5 44.046 5 57.12c0 12.56 9.37 22.951 21.596 24.293v18.573c0 6.063 4.893 10.995 10.908 10.995s10.908-4.932 10.908-10.995V97.1c5.836-.799 10.397-5.695 10.725-11.712 10.92 2.19 20.17 4.928 27.205 7.362 3.596 2.92 7.627 4.467 11.832 4.467 7.006 0 13.528-4.29 18.363-12.081 4.663-7.513 7.231-17.463 7.231-28.018 0-10.554-2.568-20.504-7.23-28.017zM44.635 95.313v4.672c0 3.963-3.2 7.188-7.131 7.188-3.932 0-7.131-3.225-7.131-7.188v-18.33c.56.033 1.122.07 1.684.107l.104.007a203.9 203.9 0 0 1 1.801.131c3.548.274 7.118.643 10.672 1.103v12.31zm10.744-10.618c0 4.227-3 7.76-6.967 8.55v-9.714c2.326.344 4.658.73 6.967 1.15v.014zm-24.458-6.82l-.128-.009c-.834-.05-1.67-.097-2.513-.137-10.936-.522-19.503-9.575-19.503-20.61 0-11.037 8.567-20.09 19.503-20.61 21.333-1.018 39.636-5.239 52.777-9.292a38.116 38.116 0 0 0-2.911 4.842c-5.386 10.658-6.679 22.843-4.851 34.578.828 5.316 2.407 10.733 4.847 15.534l.024.05a38.082 38.082 0 0 0 2.891 4.799c-12.594-3.884-29.933-7.922-50.136-9.146zm82.414 5.242c-4.12 6.637-9.504 10.293-15.161 10.293-3.344 0-6.592-1.278-9.54-3.692-.04-.04-.083-.08-.128-.116a23.286 23.286 0 0 1-2.027-1.911l-.008-.01a25.275 25.275 0 0 1-.512-.562 29.954 29.954 0 0 1-2.947-4.002c-9.2-14.824-9.212-37.154 0-51.997a29.988 29.988 0 0 1 2.934-3.988 23.751 23.751 0 0 1 2.56-2.496c.045-.038.088-.077.128-.118 2.948-2.414 6.196-3.691 9.54-3.691 5.657 0 11.041 3.655 15.161 10.293 4.292 6.915 6.656 16.148 6.656 25.998 0 9.85-2.364 19.084-6.656 25.999z"/>
        <path d="M98.174 28.443c-3.304 0-6.931 3.124-9.701 8.358-1.559 2.944-2.742 6.357-3.515 10.035a1.888 1.888 0 0 0-.045.175 50.56 50.56 0 0 0 0 20.216c.012.06.028.118.045.175.773 3.678 1.956 7.09 3.515 10.035 2.77 5.234 6.397 8.358 9.7 8.358 3.305 0 6.931-3.124 9.701-8.358 2.943-5.558 4.563-12.774 4.563-20.318 0-7.544-1.62-14.76-4.563-20.318-2.77-5.234-6.396-8.358-9.7-8.358zm-9.847 36.492a46.113 46.113 0 0 1-.606-6.055 51.994 51.994 0 0 1-.033-1.747v-.028a50.777 50.777 0 0 1 .061-2.409 46.12 46.12 0 0 1 .578-5.393h4.906c-2.035 4.06-2.065 9.304-.78 13.594.209.694.456 1.378.74 2.044-.463-.014-4.844.129-4.866-.006zm9.847 17.053c-2.205 0-6.719-4.58-9.038-13.245h9.037c3.742 0 6.564-4.998 6.564-11.625 0-6.626-2.822-11.624-6.563-11.624h-9.038c2.32-8.666 6.833-13.245 9.038-13.245 3.043 0 10.486 8.715 10.486 24.87 0 16.154-7.443 24.869-10.486 24.869zm-2.786-24.87c0-5.464 2.114-7.816 2.785-7.816h.002c.673.003 2.785 2.356 2.785 7.817 0 5.464-2.115 7.816-2.786 7.816-.672 0-2.786-2.352-2.786-7.816z"/>
    </g>
</svg>
