<svg width="1110" height="246" viewBox="0 0 1110 246" fill="none" xmlns="http://www.w3.org/2000/svg">
<g clip-path="url(#clip0_4605_2855)">
<rect width="1110" height="246" rx="24" fill="#0583F8"/>
<rect x="669.055" y="-16.8315" width="463" height="281" fill="#D1D8DB"/>
<path d="M800.555 -186C853.476 -186 901.464 -151.455 936.248 -95.4393C971.027 -39.4315 992.555 37.974 992.555 123.5C992.555 209.026 971.027 286.431 936.248 342.439C901.464 398.455 853.476 433 800.555 433C747.633 433 699.645 398.455 664.861 342.439C630.082 286.431 608.555 209.026 608.555 123.5C608.555 37.974 630.082 -39.4315 664.861 -95.4393C699.645 -151.455 747.633 -186 800.555 -186Z" fill="url(#paint0_linear_4605_2855)" stroke="#E6F7FF" stroke-linecap="round" stroke-linejoin="round"/>
<path d="M853.555 197.148C849.235 198.684 844.713 199.5 840.055 199.5C809.679 199.5 785.055 164.802 785.055 122C785.055 79.1979 809.679 44.5 840.055 44.5C844.713 44.5 849.235 45.3159 853.555 46.8518" stroke="#E6F7FF" stroke-linecap="round" stroke-linejoin="round"/>
<path d="M812.555 24C830.142 24 846.13 34.887 857.745 52.6239C869.356 70.3564 876.555 94.8831 876.555 122C876.555 149.117 869.356 173.644 857.745 191.376C846.13 209.113 830.142 220 812.555 220C794.967 220 778.979 209.113 767.365 191.376C755.753 173.644 748.555 149.117 748.555 122C748.555 94.8831 755.753 70.3564 767.365 52.6239C778.979 34.887 794.967 24 812.555 24Z" stroke="#E6F7FF" stroke-linecap="round" stroke-linejoin="round"/>
<path d="M797.055 3C818.928 3 838.791 16.2433 853.208 37.7789C867.623 59.3112 876.555 89.0863 876.555 122C876.555 154.914 867.623 184.689 853.208 206.221C838.791 227.757 818.928 241 797.055 241C775.182 241 755.319 227.757 740.902 206.221C726.487 184.689 717.555 154.914 717.555 122C717.555 89.0863 726.487 59.3112 740.902 37.7789C755.319 16.2433 775.182 3 797.055 3Z" stroke="#E6F7FF" stroke-linecap="round" stroke-linejoin="round"/>
<path d="M787.055 -22C812.508 -22 835.621 -5.96891 852.395 20.0937C869.166 46.1509 879.555 82.1789 879.555 122C879.555 161.821 869.166 197.849 852.395 223.906C835.621 249.969 812.508 266 787.055 266C761.601 266 738.488 249.969 721.714 223.906C704.944 197.849 694.555 161.821 694.555 122C694.555 82.1789 704.944 46.151 721.714 20.0937C738.488 -5.9689 761.601 -22 787.055 -22Z" stroke="#E6F7FF" stroke-linecap="round" stroke-linejoin="round"/>
<path d="M780.555 -45C809.733 -45 836.221 -26.3979 855.44 3.82787C874.654 34.0477 886.555 75.8265 886.555 122C886.555 168.174 874.654 209.952 855.44 240.172C836.221 270.398 809.733 289 780.555 289C751.376 289 724.888 270.398 705.67 240.172C686.455 209.952 674.555 168.174 674.555 122C674.555 75.8265 686.455 34.0477 705.67 3.82788C724.888 -26.3979 751.376 -45 780.555 -45Z" stroke="#E6F7FF" stroke-linecap="round" stroke-linejoin="round"/>
<path d="M778.555 -68C811.598 -68 841.586 -46.825 863.338 -12.4366C885.087 21.9455 898.555 69.4747 898.555 122C898.555 174.525 885.087 222.054 863.338 256.437C841.586 290.825 811.598 312 778.555 312C745.511 312 715.523 290.825 693.771 256.437C672.023 222.054 658.555 174.525 658.555 122C658.555 69.4747 672.023 21.9456 693.771 -12.4366C715.523 -46.825 745.511 -68 778.555 -68Z" stroke="#E6F7FF" stroke-linecap="round" stroke-linejoin="round"/>
<path d="M778.555 -92C815.74 -92 849.478 -68.139 873.945 -29.4074C898.408 9.31789 913.555 62.8472 913.555 122C913.555 181.153 898.408 234.682 873.945 273.407C849.478 312.139 815.74 336 778.555 336C741.369 336 707.631 312.139 683.164 273.407C658.702 234.682 643.555 181.153 643.555 122C643.555 62.8472 658.702 9.3179 683.164 -29.4074C707.631 -68.139 741.369 -92 778.555 -92Z" stroke="#E6F7FF" stroke-linecap="round" stroke-linejoin="round"/>
<path d="M781.055 -115C821.966 -115 859.079 -88.5666 885.99 -45.6722C912.896 -2.7845 929.555 56.4953 929.555 122C929.555 187.505 912.896 246.784 885.99 289.672C859.079 332.567 821.966 359 781.055 359C740.143 359 703.03 332.567 676.119 289.672C649.213 246.784 632.555 187.505 632.555 122C632.555 56.4953 649.213 -2.78449 676.119 -45.6722C703.03 -88.5666 740.143 -115 781.055 -115Z" stroke="#E6F7FF" stroke-linecap="round" stroke-linejoin="round"/>
<path d="M787.055 -137C832.109 -137 872.972 -107.936 902.597 -60.7889C932.218 -13.6486 950.555 51.506 950.555 123.5C950.555 195.494 932.218 260.649 902.597 307.789C872.972 354.936 832.109 384 787.055 384C742.001 384 701.137 354.936 671.513 307.789C641.892 260.649 623.555 195.494 623.555 123.5C623.555 51.506 641.892 -13.6486 671.513 -60.7889C701.137 -107.936 742.001 -137 787.055 -137Z" stroke="#E6F7FF" stroke-linecap="round" stroke-linejoin="round"/>
<path d="M793.555 -159C842.614 -159 887.102 -127.472 919.35 -76.3445C951.595 -25.2231 971.555 45.4313 971.555 123.5C971.555 201.569 951.595 272.223 919.35 323.344C887.102 374.472 842.614 406 793.555 406C744.496 406 700.008 374.472 667.759 323.344C635.515 272.223 615.555 201.569 615.555 123.5C615.555 45.4313 635.515 -25.2231 667.759 -76.3445C700.007 -127.472 744.496 -159 793.555 -159Z" stroke="#E6F7FF" stroke-linecap="round" stroke-linejoin="round"/>
<path d="M864.055 180.218C843.861 172.955 829.055 149.193 829.055 121C829.055 93.2743 843.374 69.8338 863.055 62.1569" stroke="#E6F7FF" stroke-linecap="round" stroke-linejoin="round"/>
<path d="M876.555 117.5C810.221 116.333 698.555 116.5 609.055 105" stroke="#E6F7FF" stroke-linecap="round" stroke-linejoin="round"/>
<path d="M876.555 124C810.221 125.167 693.055 125 608.555 138.5" stroke="#E6F7FF" stroke-linecap="round" stroke-linejoin="round"/>
<path d="M876.055 112C819.055 109.667 699.055 102.5 610.055 80" stroke="#E6F7FF" stroke-linecap="round" stroke-linejoin="round"/>
<path d="M876.055 131C819.055 133.333 699.055 140.5 610.055 163" stroke="#E6F7FF" stroke-linecap="round" stroke-linejoin="round"/>
<path d="M876.055 105.5C803.555 104.5 696.055 86.5 613.055 55" stroke="#E6F7FF" stroke-linecap="round" stroke-linejoin="round"/>
<path d="M876.055 137.5C803.555 138.5 696.055 156.5 613.055 188" stroke="#E6F7FF" stroke-linecap="round" stroke-linejoin="round"/>
<path d="M875.055 99C814.555 97 707.055 76 617.555 29.5" stroke="#E6F7FF" stroke-linecap="round" stroke-linejoin="round"/>
<path d="M875.055 143.5C814.555 145.5 706.555 167.5 617.055 214" stroke="#E6F7FF" stroke-linecap="round" stroke-linejoin="round"/>
<path d="M873.555 92.5C813.055 90.5 705.055 62.5 624.055 -0.5" stroke="#E6F7FF" stroke-linecap="round" stroke-linejoin="round"/>
<path d="M873.555 150C813.055 152 704.055 180 623.055 243" stroke="#E6F7FF" stroke-linecap="round" stroke-linejoin="round"/>
<path d="M872.555 86.5C815.555 83.5 716.055 54.5 633.055 -27.5" stroke="#E6F7FF" stroke-linecap="round" stroke-linejoin="round"/>
<path d="M872.555 156C815.555 159 714.555 188.5 631.555 270.5" stroke="#E6F7FF" stroke-linecap="round" stroke-linejoin="round"/>
<path d="M871.055 81C814.555 77.5 719.555 42 642.555 -53.5" stroke="#E6F7FF" stroke-linecap="round" stroke-linejoin="round"/>
<path d="M871.055 161.5C814.555 165 718.555 202 641.555 297.5" stroke="#E6F7FF" stroke-linecap="round" stroke-linejoin="round"/>
<path d="M869.055 76C813.055 66 728.555 42 657.555 -84" stroke="#E6F7FF" stroke-linecap="round" stroke-linejoin="round"/>
<path d="M869.055 166.5C813.055 176.5 727.055 201 656.055 327" stroke="#E6F7FF" stroke-linecap="round" stroke-linejoin="round"/>
<path d="M867.055 71C810.555 60 726.055 28.5 674.055 -110" stroke="#E6F7FF" stroke-linecap="round" stroke-linejoin="round"/>
<path d="M867.055 173C810.555 184 725.555 217 673.555 355.5" stroke="#E6F7FF" stroke-linecap="round" stroke-linejoin="round"/>
<path d="M865.555 67C808.055 49.5 719.555 7.5 693.055 -133.5" stroke="#E6F7FF" stroke-linecap="round" stroke-linejoin="round"/>
<path d="M865.555 177C808.055 194.5 719.555 238.5 693.055 379.5" stroke="#E6F7FF" stroke-linecap="round" stroke-linejoin="round"/>
<path d="M864.055 63.5C804.055 39.5 731.555 0.999999 712.555 -152" stroke="#E6F7FF" stroke-linecap="round" stroke-linejoin="round"/>
<path d="M864.055 180.5C804.055 204.5 731.055 245 712.055 398" stroke="#E6F7FF" stroke-linecap="round" stroke-linejoin="round"/>
<path d="M861.555 59C801.555 35 740.555 -16 734.055 -167" stroke="#E6F7FF" stroke-linecap="round" stroke-linejoin="round"/>
<path d="M861.555 185C801.555 209 740.555 263 734.055 414" stroke="#E6F7FF" stroke-linecap="round" stroke-linejoin="round"/>
<path d="M858.054 53.5C794.055 23 751.054 -38 758.054 -178.5" stroke="#E6F7FF" stroke-linecap="round" stroke-linejoin="round"/>
<path d="M858.05 190.5C794.05 221 751.054 284.5 758.054 425" stroke="#E6F7FF" stroke-linecap="round" stroke-linejoin="round"/>
<path d="M853.558 47C787.055 13 768.055 -72 783.056 -185" stroke="#E6F7FF" stroke-linecap="round" stroke-linejoin="round"/>
<path d="M853.563 197C787.06 231 768.554 318.5 783.555 431.5" stroke="#E6F7FF" stroke-linecap="round" stroke-linejoin="round"/>
<path d="M853.557 47C793.555 1.5 786.055 -69 810.055 -185.5" stroke="#E6F7FF" stroke-linecap="round" stroke-linejoin="round"/>
<path d="M853.558 197C793.556 242.5 786.554 316 810.555 432.5" stroke="#E6F7FF" stroke-linecap="round" stroke-linejoin="round"/>
<path d="M853.557 47C796.054 -11 812.054 -76 837.554 -180" stroke="#E6F7FF" stroke-linecap="round" stroke-linejoin="round"/>
<path d="M853.558 197C796.055 255 813.055 323 838.555 427" stroke="#E6F7FF" stroke-linecap="round" stroke-linejoin="round"/>
<path d="M853.556 47C803.055 -6.5 841.554 -105 865.554 -168" stroke="#E6F7FF" stroke-linecap="round" stroke-linejoin="round"/>
<path d="M853.555 197C803.054 250.5 842.554 351 866.554 414" stroke="#E6F7FF" stroke-linecap="round" stroke-linejoin="round"/>
<path d="M853.555 47C819.554 -3.5 862.054 -89 892.553 -147.5" stroke="#E6F7FF" stroke-linecap="round" stroke-linejoin="round"/>
<path d="M853.554 197C819.554 247.5 863.056 335.5 893.554 394" stroke="#E6F7FF" stroke-linecap="round" stroke-linejoin="round"/>
<path d="M858.053 53.5C832.555 -2 896.055 -92 918.553 -120.5" stroke="#E6F7FF" stroke-linecap="round" stroke-linejoin="round"/>
<path d="M858.051 190.5C832.554 246 897.055 337.5 919.554 366" stroke="#E6F7FF" stroke-linecap="round" stroke-linejoin="round"/>
<path d="M863.555 63.5C841.555 15 919.555 -62.5 942.055 -85.5" stroke="#E6F7FF" stroke-linecap="round" stroke-linejoin="round"/>
<path d="M863.554 181.5C841.554 230 920.554 307.5 943.054 330.5" stroke="#E6F7FF" stroke-linecap="round" stroke-linejoin="round"/>
<path d="M869.054 76C851.554 34 938.555 -29 962.554 -42.5" stroke="#E6F7FF" stroke-linecap="round" stroke-linejoin="round"/>
<path d="M869.052 168C851.553 210 939.554 273.5 963.554 287" stroke="#E6F7FF" stroke-linecap="round" stroke-linejoin="round"/>
<path d="M871.555 82.5C871.555 53 945.555 16.5 977.555 5" stroke="#E6F7FF" stroke-linecap="round" stroke-linejoin="round"/>
<path d="M871.555 161.5C871.555 191 946.554 228 978.555 239.5" stroke="#E6F7FF" stroke-linecap="round" stroke-linejoin="round"/>
<path d="M874.555 97C878.555 83.5 941.555 62.5 988.055 55.5" stroke="#E6F7FF" stroke-linecap="round" stroke-linejoin="round"/>
<path d="M876.555 112C880.555 108 945.055 102.5 992.055 102.5" stroke="#E6F7FF" stroke-linecap="round" stroke-linejoin="round"/>
<path d="M876.055 134C880.055 138 945.055 143.5 992.055 143.5" stroke="#E6F7FF" stroke-linecap="round" stroke-linejoin="round"/>
<path d="M874.555 147C878.555 160.5 941.555 181.5 988.055 188.5" stroke="#E6F7FF" stroke-linecap="round" stroke-linejoin="round"/>
<path d="M831.557 154.067C831.652 154.083 831.749 154.071 831.837 154.033L837.821 151.454C837.959 151.394 838.063 151.275 838.104 151.131C838.145 150.986 838.118 150.83 838.032 150.707L790.383 82.969C790.247 82.7753 789.994 82.7038 789.776 82.7975L786.212 84.3339C786.006 84.4226 785.885 84.6374 785.915 84.8595L790.68 120.402L777.454 144.364C777.376 144.507 777.371 144.678 777.442 144.824C777.513 144.97 777.65 145.073 777.81 145.099L831.557 154.067Z" fill="#0381F6" stroke="#263238" stroke-linejoin="round"/>
<mask id="mask0_4605_2855" style="mask-type:alpha" maskUnits="userSpaceOnUse" x="776" y="82" width="63" height="73">
<path d="M831.557 154.067C831.652 154.083 831.749 154.071 831.837 154.033L837.821 151.454C837.959 151.394 838.063 151.275 838.104 151.13C838.145 150.986 838.118 150.83 838.032 150.707L790.383 82.9688C790.247 82.7752 789.994 82.7036 789.776 82.7974L786.212 84.3337C786.006 84.4224 785.885 84.6372 785.915 84.8593L790.68 120.402L777.454 144.364C777.376 144.506 777.371 144.678 777.442 144.824C777.513 144.97 777.65 145.072 777.81 145.099L831.557 154.067Z" fill="#0381F6" stroke="#263238" stroke-linejoin="round"/>
</mask>
<g mask="url(#mask0_4605_2855)">
<rect width="32.2865" height="11.5862" transform="matrix(-0.914576 0.404413 0.404413 0.914576 842.227 138.903)" fill="#263238"/>
<rect width="32.2865" height="1.01718" transform="matrix(-0.914576 0.404413 0.404413 0.914576 801.262 133.856)" fill="#263238"/>
<rect width="32.2865" height="4.9676" transform="matrix(-0.914576 0.404413 0.404413 0.914576 822.193 140.554)" fill="#263238"/>
<rect width="32.2865" height="1.99238" transform="matrix(-0.914576 0.404413 0.404413 0.914576 804.395 138.77)" fill="#263238"/>
<rect width="32.2865" height="1.99238" transform="matrix(-0.914576 0.404413 0.404413 0.914576 804.357 94.7213)" fill="#263238"/>
<rect width="32.2865" height="13.6518" transform="matrix(-0.914576 0.404413 0.404413 0.914576 803.783 100.249)" fill="#263238"/>
</g>
<path d="M837.943 151.316C838.142 151.347 838.339 151.256 838.445 151.086C838.551 150.915 838.545 150.698 838.429 150.533L790.694 82.8345C790.561 82.6463 790.317 82.5731 790.102 82.6571C789.888 82.7412 789.759 82.9608 789.789 83.1891L794.556 118.743L782.915 142.024C782.844 142.167 782.845 142.335 782.918 142.477C782.991 142.619 783.127 142.717 783.285 142.742L837.943 151.316Z" fill="#E3EAED" stroke="#263238" stroke-linejoin="round"/>
<path d="M739.947 98.8225C740.039 98.7971 740.123 98.7456 740.187 98.6742L744.539 93.8249C744.639 93.7129 744.684 93.5615 744.66 93.4128C744.637 93.2641 744.548 93.1339 744.417 93.0584L672.77 51.5202C672.565 51.4015 672.305 51.4427 672.147 51.6188L669.554 54.5073C669.405 54.674 669.384 54.92 669.504 55.1092L688.725 85.3843L686.757 112.683C686.745 112.845 686.813 113.003 686.938 113.106C687.064 113.209 687.231 113.244 687.388 113.201L739.947 98.8225Z" fill="#0381F6" stroke="#263238" stroke-linejoin="round"/>
<mask id="mask1_4605_2855" style="mask-type:alpha" maskUnits="userSpaceOnUse" x="668" y="50" width="78" height="64">
<path d="M739.948 98.8226C740.041 98.7973 740.124 98.7458 740.189 98.6743L744.541 93.825C744.641 93.713 744.686 93.5616 744.662 93.4129C744.639 93.2642 744.55 93.134 744.419 93.0585L672.772 51.5204C672.567 51.4016 672.307 51.4428 672.149 51.619L669.556 54.5074C669.407 54.6742 669.386 54.9201 669.506 55.1093L688.727 85.3845L686.759 112.683C686.747 112.845 686.815 113.003 686.94 113.106C687.066 113.209 687.233 113.244 687.39 113.202L739.948 98.8226Z" fill="#0381F6" stroke="#263238" stroke-linejoin="round"/>
</mask>
<g mask="url(#mask1_4605_2855)">
<rect width="32.2865" height="11.5862" transform="matrix(-0.66095 0.75043 0.75043 0.66095 743.281 80.5833)" fill="#263238"/>
<rect width="32.2865" height="1.01718" transform="matrix(-0.66095 0.75043 0.75043 0.66095 703.973 93.1664)" fill="#263238"/>
<rect width="32.2865" height="4.9676" transform="matrix(-0.66095 0.75043 0.75043 0.66095 725.783 90.477)" fill="#263238"/>
<rect width="32.2865" height="1.99238" transform="matrix(-0.66095 0.75043 0.75043 0.66095 708.875 96.3149)" fill="#263238"/>
<rect width="32.2865" height="1.99238" transform="matrix(-0.66095 0.75043 0.75043 0.66095 690.383 56.3359)" fill="#263238"/>
<rect width="32.2865" height="13.6518" transform="matrix(-0.66095 0.75043 0.75043 0.66095 692.18 61.5952)" fill="#263238"/>
</g>
<path d="M744.593 93.6478C744.786 93.5929 744.928 93.4278 744.953 93.2285C744.977 93.0292 744.881 92.8345 744.707 92.7339L672.996 51.2678C672.797 51.1525 672.545 51.1883 672.385 51.3545C672.226 51.5206 672.2 51.7742 672.324 51.9686L691.55 82.2532L690.736 108.27C690.731 108.429 690.802 108.582 690.928 108.68C691.054 108.778 691.219 108.81 691.372 108.766L744.593 93.6478Z" fill="#E3EAED" stroke="#263238" stroke-linejoin="round"/>
<path d="M778.239 119.767C778.333 119.787 778.431 119.779 778.521 119.744L784.604 117.41C784.744 117.356 784.853 117.241 784.9 117.098C784.947 116.955 784.926 116.798 784.845 116.672L739.979 47.0593C739.851 46.8603 739.601 46.7785 739.38 46.8634L735.757 48.2541C735.547 48.3344 735.417 48.5441 735.438 48.7672L738.759 84.4739L724.574 107.881C724.49 108.019 724.478 108.19 724.543 108.339C724.608 108.488 724.741 108.596 724.899 108.629L778.239 119.767Z" fill="#0381F6" stroke="#263238" stroke-linejoin="round"/>
<mask id="mask2_4605_2855" style="mask-type:alpha" maskUnits="userSpaceOnUse" x="724" y="46" width="62" height="75">
<path d="M778.239 119.767C778.333 119.787 778.431 119.779 778.521 119.744L784.604 117.41C784.744 117.356 784.853 117.241 784.9 117.098C784.947 116.955 784.926 116.799 784.845 116.672L739.979 47.0593C739.851 46.8604 739.601 46.7786 739.38 46.8634L735.757 48.2542C735.547 48.3345 735.417 48.5441 735.438 48.7673L738.759 84.474L724.574 107.881C724.49 108.019 724.478 108.19 724.543 108.339C724.608 108.488 724.741 108.596 724.899 108.629L778.239 119.767Z" fill="#0381F6" stroke="#263238" stroke-linejoin="round"/>
</mask>
<g mask="url(#mask2_4605_2855)">
<rect width="32.2865" height="11.5862" transform="matrix(-0.930208 0.367032 0.367032 0.930208 789.512 105.048)" fill="#263238"/>
<rect width="32.2865" height="1.01718" transform="matrix(-0.930208 0.367032 0.367032 0.930208 748.787 98.3458)" fill="#263238"/>
<rect width="32.2865" height="4.9676" transform="matrix(-0.930208 0.367032 0.367032 0.930208 769.43 105.886)" fill="#263238"/>
<rect width="32.2865" height="1.99238" transform="matrix(-0.930208 0.367032 0.367032 0.930208 751.719 103.382)" fill="#263238"/>
<rect width="32.2865" height="1.99238" transform="matrix(-0.930208 0.367032 0.367032 0.930208 753.465 59.3688)" fill="#263238"/>
<rect width="32.2865" height="13.6518" transform="matrix(-0.930208 0.367032 0.367032 0.930208 752.668 64.8681)" fill="#263238"/>
</g>
<path d="M784.733 117.276C784.93 117.315 785.131 117.233 785.244 117.067C785.357 116.901 785.359 116.683 785.25 116.514L740.296 46.9373C740.171 46.7439 739.93 46.6608 739.713 46.7362C739.495 46.8115 739.357 47.0257 739.378 47.255L742.701 82.9728L730.126 105.763C730.049 105.903 730.044 106.071 730.111 106.216C730.178 106.36 730.31 106.464 730.467 106.495L784.733 117.276Z" fill="#E3EAED" stroke="#263238" stroke-linejoin="round"/>
<mask id="mask3_4605_2855" style="mask-type:alpha" maskUnits="userSpaceOnUse" x="779" y="3" width="98" height="239">
<path d="M796.056 3.5C817.929 3.5 837.792 16.7433 852.209 38.2789C866.624 59.8112 875.556 89.5863 875.556 122.5C875.556 155.414 866.624 185.189 852.209 206.721C837.792 228.257 817.929 241.5 796.056 241.5C790.57 241.5 786.737 240.667 784.186 239.143C781.665 237.637 780.35 235.431 779.943 232.539C779.531 229.618 780.047 225.998 781.235 221.725C782.42 217.459 784.258 212.591 786.451 207.187C787.482 204.645 788.59 201.987 789.744 199.221C798.387 178.498 809.556 151.72 809.556 122.5C809.556 93.2799 798.387 66.5015 789.744 45.7789C788.59 43.0127 787.482 40.3545 786.451 37.8128C784.258 32.4092 782.42 27.5407 781.235 23.2749C780.047 19.0018 779.531 15.3819 779.943 12.4607C780.35 9.56932 781.665 7.36267 784.186 5.85706C786.737 4.33285 790.57 3.5 796.056 3.5Z" fill="#D9D9D9" stroke="#E6F7FF" stroke-linecap="round" stroke-linejoin="round"/>
</mask>
<g mask="url(#mask3_4605_2855)">
<path d="M894.925 136.089C895.017 136.062 895.1 136.009 895.163 135.936L899.432 131.013C899.53 130.9 899.572 130.748 899.546 130.599C899.52 130.451 899.429 130.322 899.297 130.249L826.951 89.9388C826.745 89.8236 826.485 89.8691 826.33 90.048L823.788 92.9802C823.641 93.1495 823.625 93.3958 823.748 93.5829L843.482 123.526L841.98 150.854C841.971 151.016 842.041 151.173 842.168 151.273C842.295 151.374 842.464 151.407 842.619 151.362L894.925 136.089Z" fill="#0381F6" stroke="#263238" stroke-linejoin="round"/>
<mask id="mask4_4605_2855" style="mask-type:alpha" maskUnits="userSpaceOnUse" x="823" y="89" width="78" height="63">
<path d="M894.923 136.089C895.016 136.062 895.098 136.009 895.161 135.936L899.43 131.014C899.528 130.9 899.57 130.748 899.544 130.6C899.518 130.451 899.427 130.323 899.295 130.249L826.949 89.9391C826.743 89.8239 826.483 89.8694 826.328 90.0483L823.786 92.9805C823.639 93.1498 823.623 93.3961 823.746 93.5832L843.48 123.526L841.978 150.855C841.969 151.017 842.039 151.173 842.166 151.274C842.293 151.375 842.462 151.408 842.617 151.362L894.923 136.089Z" fill="#0381F6" stroke="#263238" stroke-linejoin="round"/>
</mask>
<g mask="url(#mask4_4605_2855)">
<rect width="32.2865" height="1.01718" transform="matrix(-0.648057 0.761592 0.761592 0.648057 858.857 131.047)" fill="#263238"/>
<rect width="32.2865" height="4.9676" transform="matrix(-0.648057 0.761592 0.761592 0.648057 880.619 127.986)" fill="#263238"/>
<rect width="32.2865" height="1.99238" transform="matrix(-0.648057 0.761592 0.761592 0.648057 863.812 134.111)" fill="#263238"/>
<rect width="32.2865" height="1.99238" transform="matrix(-0.648057 0.761592 0.761592 0.648057 844.643 94.4536)" fill="#263238"/>
<rect width="32.2865" height="13.6518" transform="matrix(-0.648057 0.761592 0.761592 0.648057 846.527 99.6815)" fill="#263238"/>
</g>
<path d="M899.481 130.836C899.673 130.777 899.812 130.61 899.833 130.41C899.854 130.211 899.754 130.018 899.579 129.92L827.172 89.6827C826.97 89.5709 826.719 89.6109 826.562 89.7798C826.406 89.9487 826.385 90.2026 826.511 90.3949L846.251 120.347L845.881 146.374C845.879 146.533 845.952 146.684 846.08 146.78C846.207 146.876 846.373 146.906 846.526 146.86L899.481 130.836Z" fill="#E3EAED" stroke="#263238" stroke-linejoin="round"/>
</g>
<path d="M644.862 106.934C652.322 106.66 661.582 103.745 665.28 102.322C672.888 104.384 671.807 114.249 667.831 117.636C664.65 120.345 657.67 122.657 653.891 122.984C649.493 125.654 639.821 126.942 635.534 127.253C631.529 129.373 623.231 130.916 619.583 131.423L633.962 145.069C640.244 147.897 643.745 152.923 644.71 155.082C649.519 159.729 659.217 169.131 659.531 169.563C659.845 169.995 662.835 175.469 664.291 178.152L664.438 179.036L674.646 193.074C674.433 194.219 673.605 197 671.995 198.964C669.982 201.417 662.669 201.122 657.516 199.257C652.363 197.391 639.947 177.365 639.113 175.99C638.445 174.891 634.385 174.256 632.438 174.076L626.302 180.848C628.304 184.147 632.861 194.788 634.89 199.696L647.699 207.55C646.992 213.479 641.874 215.583 639.403 215.893L640.041 219.722L644.702 234.987C644.342 237.064 642.523 241.161 638.125 240.925C632.628 240.63 629.094 237.586 626.15 234.445C623.794 231.932 622.617 222.927 622.323 218.739L619.821 210.984L614.766 204.259C613.666 203.474 607.764 200.986 604.95 199.841C598.667 202.098 586.935 220.699 572.7 238.808C558.465 256.918 530.487 270.658 527.591 271.443C525.275 272.071 514.636 302.152 507.219 316.192C489.42 319.157 457.536 294.532 451.255 287.709L472.375 268.837C479.326 258.236 489.967 226.661 494.418 212.199L518.179 156.789C520.191 151.913 524.727 141.594 526.769 139.316C529.322 136.47 533.347 131.562 540.366 131.906C547.384 132.251 553.127 128.57 555.434 127.883C557.741 127.196 591.019 108.941 593.67 108.5C596.32 108.058 602.014 107.715 607.02 108.697C612.026 109.679 635.536 107.277 644.862 106.934Z" fill="#263238" stroke="#00AAFF" stroke-width="0.597098"/>
<path d="M609.911 155.128C608.079 154.424 603.825 152.389 601.47 149.875" stroke="#00AAFF" stroke-width="0.597098"/>
<path d="M606.967 157.435C603.482 157.713 593.764 157.757 582.77 155.715" stroke="#00AAFF" stroke-width="0.597098"/>
<path d="M642.646 171.77C642.107 172.162 640.791 173.35 639.849 174.96" stroke="#00AAFF" stroke-width="0.597098"/>
<path d="M626.889 206.174C625.531 206.501 622.452 207.519 620.999 208.971" stroke="#00AAFF" stroke-width="0.597098"/>
<path d="M604.713 109.384C604.844 110.774 604.919 114.253 604.172 117.04" stroke="#00AAFF" stroke-width="0.597098"/>
<path d="M612.118 182.908C610.957 180.781 608.026 176.145 605.591 174.613" stroke="#00AAFF" stroke-width="0.597098"/>
<path d="M603.087 192.282C600.747 190.957 595.715 187.638 594.302 184.968" stroke="#00AAFF" stroke-width="0.597098"/>
<path d="M606.08 186.638L601.615 181.631" stroke="#00AAFF" stroke-width="0.597098"/>
<path d="M576.979 148.205C574.377 151.967 567.034 160.454 558.473 164.301C557.753 166.641 555.813 171.948 553.81 174.461" stroke="#00AAFF" stroke-width="0.597098"/>
<path d="M619.877 131.374C615.328 131.93 605.604 133.267 603.091 134.17C599.949 135.298 584.733 145.702 576.978 148.205M633.962 145.069C630.771 144.692 622.614 145.627 615.31 151.202C608.006 156.777 603.464 160.036 602.106 160.968C598.834 163.733 590.571 171.304 583.699 179.47C575.109 189.678 563.133 195.91 559.991 197.039M559.991 197.039C557.478 197.942 549.88 199.934 546.396 200.817M559.991 197.039C557.914 196.679 552.924 195.311 549.587 192.719C546.249 190.127 545.743 186.6 545.906 185.16" stroke="#00AAFF" stroke-width="0.597098"/>
<path d="M559.157 195.664C557.259 193.962 553.111 189.528 551.698 185.405" stroke="#00AAFF" stroke-width="0.597098"/>
<path d="M604.95 199.841C610.219 195.735 621.806 186.198 626.008 180.897" stroke="#00AAFF" stroke-width="0.597098"/>
<path d="M632.439 174.076C634.713 172.587 639.85 168.161 642.256 163.966C644.367 160.285 644.613 156.309 644.711 155.082" stroke="#00AAFF" stroke-width="0.597098"/>
<path d="M634.889 199.696C636.001 203.345 638.461 211.692 639.403 215.894" stroke="#00AAFF" stroke-width="0.597098"/>
<path d="M611.085 194.884C611.347 196.454 612.449 200.528 614.765 204.258" stroke="#00AAFF" stroke-width="0.597098"/>
<path d="M664.438 179.036C663.456 180.41 663.073 185.014 669.394 192.435C670.343 192.681 672.604 193.172 674.057 193.172" stroke="#00AAFF" stroke-width="0.597098"/>
<path d="M634.895 148.848C637.643 149.358 641.57 152.579 642.306 155.18C642.945 162.762 635.315 170.043 629.767 173.919C628.407 174.87 626.574 174.362 625.647 172.985C623.25 169.427 620.997 167.299 618.942 163.914C616.94 160.616 618.01 158.319 618.796 157.583C623.017 152.037 631.459 148.209 634.895 148.848Z" fill="#263238" stroke="#00AAFF" stroke-width="0.597098"/>
<path d="M665.672 102.862C666.441 105.054 666.761 109.763 661.892 111.058C657.023 112.353 652.795 112.775 651.29 112.824C650.309 111.777 648.306 109.084 648.15 106.689" stroke="#00AAFF" stroke-width="0.597098"/>
<path d="M689.001 127.209C689.059 127.132 689.093 127.04 689.1 126.944L689.565 120.445C689.576 120.295 689.519 120.148 689.409 120.045C689.299 119.942 689.149 119.894 689 119.914L606.93 131.02C606.695 131.052 606.515 131.243 606.498 131.48L606.221 135.351C606.205 135.574 606.339 135.781 606.55 135.857L640.295 147.993L655.476 170.767C655.566 170.902 655.716 170.985 655.878 170.989C656.04 170.994 656.195 170.919 656.292 170.79L689.001 127.209Z" fill="#0381F6" stroke="#263238" stroke-linejoin="round"/>
<mask id="mask5_4605_2855" style="mask-type:alpha" maskUnits="userSpaceOnUse" x="605" y="119" width="86" height="53">
<path d="M689.001 127.209C689.059 127.132 689.093 127.04 689.1 126.944L689.565 120.445C689.576 120.295 689.519 120.148 689.409 120.045C689.299 119.942 689.149 119.894 689 119.914L606.93 131.02C606.695 131.052 606.515 131.244 606.498 131.48L606.221 135.351C606.205 135.574 606.339 135.781 606.55 135.857L640.295 147.993L655.476 170.767C655.566 170.902 655.716 170.985 655.878 170.989C656.04 170.994 656.195 170.92 656.292 170.79L689.001 127.209Z" fill="#0381F6" stroke="#263238" stroke-linejoin="round"/>
</mask>
<g mask="url(#mask5_4605_2855)">
<rect width="32.2865" height="11.5862" transform="matrix(-0.0621379 0.998068 0.998068 0.0621379 680.453 110.756)" fill="#263238"/>
<rect width="32.2865" height="1.01718" transform="matrix(-0.0621379 0.998068 0.998068 0.0621379 657.111 144.795)" fill="#263238"/>
<rect width="32.2865" height="4.9676" transform="matrix(-0.0621379 0.998068 0.998068 0.0621379 672.693 129.299)" fill="#263238"/>
<rect width="32.2865" height="1.99238" transform="matrix(-0.0621379 0.998068 0.998068 0.0621379 662.914 144.276)" fill="#263238"/>
<rect width="32.2865" height="1.99238" transform="matrix(-0.0621379 0.998068 0.998068 0.0621379 623.797 124.028)" fill="#263238"/>
<rect width="32.2865" height="13.6518" transform="matrix(-0.0621379 0.998068 0.998068 0.0621379 628.439 127.082)" fill="#263238"/>
</g>
<path d="M689.499 120.272C689.618 120.111 689.629 119.893 689.526 119.721C689.424 119.548 689.228 119.454 689.029 119.481L606.954 130.682C606.725 130.713 606.548 130.896 606.524 131.125C606.5 131.354 606.635 131.57 606.852 131.648L640.607 143.788L655.913 164.841C656.007 164.97 656.157 165.047 656.316 165.047C656.476 165.048 656.626 164.972 656.721 164.844L689.499 120.272Z" fill="#E3EAED" stroke="#263238" stroke-linejoin="round"/>
<path d="M909.356 78.8079C905.464 82.4719 903.407 82.1773 903.075 85.9642L902.115 88.1086L903.176 93.205C903.241 93.6125 903.365 94.158 903.471 94.5569C904.719 99.0155 908.59 102.88 914.864 105.183C928.117 110.048 947.316 106.191 957.594 96.5136C962.731 91.6766 964.668 86.3008 963.665 81.5259L962.359 74.8318C960.397 72.0243 956.474 71.7488 952.086 70.1382C938.833 65.2738 919.634 69.1304 909.356 78.8079Z" fill="#0381F6" stroke="#263238" stroke-width="0.789562" stroke-linejoin="round"/>
<mask id="mask6_4605_2855" style="mask-type:alpha" maskUnits="userSpaceOnUse" x="901" y="67" width="64" height="41">
<path d="M909.356 78.8079C905.464 82.4719 903.407 82.1773 903.075 85.9642L902.115 88.1086L903.176 93.205C903.241 93.6125 903.365 94.158 903.471 94.5569C904.719 99.0155 908.59 102.88 914.864 105.183C928.117 110.048 947.316 106.191 957.594 96.5136C962.731 91.6766 964.668 86.3008 963.665 81.5259L962.359 74.8318C960.397 72.0243 956.474 71.7488 952.086 70.1382C938.833 65.2738 919.634 69.1304 909.356 78.8079Z" fill="#FF9F1A" stroke="black" stroke-width="0.789562" stroke-linejoin="round"/>
</mask>
<g mask="url(#mask6_4605_2855)">
<rect width="27.8363" height="23.831" transform="matrix(0.238741 0.971083 0.971083 -0.238741 921.803 91.4142)" fill="#263238"/>
<rect width="27.8363" height="8.13665" transform="matrix(0.238741 0.971083 0.971083 -0.238741 955.424 70.6932)" fill="#263238"/>
<rect width="27.8363" height="3.98171" transform="matrix(0.238741 0.971083 0.971083 -0.238741 947 78.6233)" fill="#263238"/>
<rect width="27.8363" height="3.98171" transform="matrix(0.238741 0.971083 0.971083 -0.238741 896.934 76.6042)" fill="#263238"/>
</g>
<path d="M907.924 72.3812C913.129 67.4806 920.571 64.0703 928.366 62.4937C936.161 60.917 944.351 61.1654 951.061 63.6284C957.772 66.0918 961.848 70.3521 962.889 75.3005C963.931 80.2503 961.91 85.7597 956.704 90.6618C951.499 95.5625 944.057 98.9727 936.262 100.549C928.467 102.126 920.278 101.878 913.568 99.4147C906.856 96.9513 902.78 92.691 901.739 87.7426C900.697 82.7928 902.718 77.2833 907.924 72.3812Z" fill="#E3EAED" stroke="#263238" stroke-width="0.789562"/>
<path d="M936.825 86.7888C934.896 88.2997 931.91 87.9526 928.685 86.9879L926.383 89.2206L924.009 88.3536L926.249 86.1794C925.624 85.9522 924.995 85.7122 924.366 85.4728L922.112 87.6616L919.737 86.7952L922.037 84.5631C921.529 84.3697 921.029 84.179 920.536 84L920.529 84.0069L917.251 82.8118L918.747 81.3607C918.747 81.3607 920.483 82.0201 920.472 81.9912C921.435 82.3419 922.077 82.1365 922.453 81.8936L925.075 79.3506C925.141 79.3747 925.229 79.4042 925.336 79.4333L925.085 79.3412L928.758 75.7781C928.893 75.5897 929 75.2486 928.327 75.0022C928.374 74.9984 926.601 74.3723 926.601 74.3723L927.801 72.5776L930.894 73.7058C931.469 73.9149 932.041 74.1157 932.598 74.3162L934.927 72.059L937.3 72.9253L934.998 75.158C935.657 75.3889 936.291 75.6162 936.907 75.8407L939.198 73.6167L941.572 74.4837L939.25 76.7373C943.11 78.3257 945.312 79.9209 943.448 82.193C941.948 84.0227 939.732 84.2758 937.144 83.7597C938.109 84.6636 938.241 85.6842 936.825 86.7888ZM938.477 80.7478C940.219 79.0613 934.968 77.4102 933.358 76.8218L930.277 79.8141C931.888 80.4013 936.664 82.5079 938.477 80.7478ZM933.022 84.5656C934.604 83.0302 930.206 81.6731 928.866 81.1841L926.07 83.8964C927.41 84.3854 931.371 86.1672 933.022 84.5656Z" fill="#263238"/>
<path d="M1099.72 161.573C1106.01 170.064 1115.92 195.501 1120.08 207.158L1130.78 264.261C1111.5 277.364 1081.44 281.223 1068.82 281.515C1068.47 273.607 1065.3 249.581 1063.76 238.557C1050.72 227.828 1045.66 212.284 1044.76 205.853C1041.33 201.954 1033.88 193.893 1031.51 192.835C1028.54 191.513 1008.14 193.072 1005.33 192.139C1003.08 191.393 995.244 193.992 991.608 195.384C988.222 196.458 980.599 198.484 977.197 198C972.945 197.395 967.947 194.842 967.565 189.18C967.184 183.519 977.375 178.052 980.372 177.128C983.368 176.204 991.732 171.214 995.478 169.332C998.476 167.827 1005.65 167.519 1008.87 167.554L1005.91 163.327C1004.02 162.485 986.53 164.048 981.167 165.208C976.877 166.137 965.51 174.481 960.362 178.537C956.933 181.637 949.231 187.848 945.852 187.892C941.629 187.945 936.005 183.175 936.162 177.754C936.32 172.333 944.957 164.558 947.958 160.729C950.958 156.899 970.479 141.382 973.446 139.799C975.82 138.532 984.661 137.588 988.785 137.274C985.104 134.664 976.931 131.986 970.251 133.205C963.57 134.423 942.793 148.411 941.355 148.739C939.917 149.066 927.14 161.777 921.839 161.35C916.538 160.924 914.027 157.865 912.265 153.849C910.504 149.833 916.894 142.025 922.506 134.515C926.995 128.507 936.832 120.987 941.189 117.978C935.267 112.429 932.552 104.757 938.731 98.1467C944.911 91.5362 959.698 97.4876 963.47 99.1702C966.487 100.516 976.403 103.002 980.985 104.077L1005.16 104.201C1005.8 102.765 1006.65 99.1177 1004.93 96.0242C1003.21 92.9308 988.693 82.2135 981.652 77.2416C974.871 76.8007 960.861 72.919 954.704 71.0333C948.786 70.977 939.382 68.935 935.42 67.921C911.552 65.6707 920.74 49.4201 923.106 49.1838C925.473 48.9476 951.235 46.2286 957.912 47.9154C964.588 49.6022 981.751 49.5068 988.49 49.6062C993.881 49.6857 998.58 51.8469 1000.26 52.9175C1018.86 67.6801 1044.58 78.8285 1046.46 79.6698C1048.35 80.5111 1055.12 81.2695 1059.2 93.1062C1063.29 104.943 1091.86 150.959 1099.72 161.573Z" fill="#263238"/>
<path d="M1016.22 76.5123C1013.63 78.6951 1008.42 84.7259 1008.29 91.3869" stroke="#E6F7FF" stroke-width="0.589975"/>
<path d="M985.956 61.0733C984.874 63.4979 982.83 69.2397 983.304 72.8106" stroke="#E6F7FF" stroke-width="0.589975"/>
<path d="M954.634 57.4356C954.473 58.7632 954.334 62.0178 955.074 64.4149" stroke="#E6F7FF" stroke-width="0.589975"/>
<path d="M1030.63 89.0818C1027.43 93.3604 1021.35 103.805 1022.63 111.354" stroke="#E6F7FF" stroke-width="0.589975"/>
<path d="M1032.44 103.131C1031.04 105.306 1028.12 110.505 1027.63 113.907" stroke="#E6F7FF" stroke-width="0.589975"/>
<path d="M1033.21 114.454C1031.33 114.801 1025.77 114.174 1018.57 108.893C1009.56 102.29 1000.75 109.017 998.08 108.474C995.949 108.04 985.615 105.282 980.715 103.957" stroke="#E6F7FF" stroke-width="0.589975"/>
<path d="M1003.94 94.6152C1005.81 95.9857 1010.97 100.142 1016.71 105.805" stroke="#E6F7FF" stroke-width="0.589975"/>
<path d="M949.49 114.576C952.732 109.045 958.679 104.355 961.247 102.702C957.865 100.87 950.269 96.8995 946.941 95.6728C942.779 94.1394 932.766 100.655 936.082 106.979C938.735 112.039 946.126 114.152 949.49 114.576Z" fill="#263238" stroke="#E6F7FF" stroke-width="0.589975"/>
<path d="M1031.51 192.835C1024.95 185.817 1011.24 170.936 1008.87 167.554C1005.91 163.327 1001.91 156.372 999.544 153.703C997.654 151.568 996.505 149.656 996.166 148.966C995.122 146.239 992.129 140.059 988.515 137.154" stroke="#E6F7FF" stroke-width="0.589975"/>
<path d="M971.297 133.026C967.135 132.461 955.286 128.661 941.188 117.978" stroke="#E6F7FF" stroke-width="0.589975"/>
<path d="M966.482 107.621C965.253 108.688 962.674 111.09 962.193 112.168" stroke="#E6F7FF" stroke-width="0.589975"/>
<path d="M969.148 108.164C967.919 109.231 966.6 110.257 966.119 111.335M1004.79 191.899C1005.35 190.642 1006.23 188.667 1004.5 185.31" stroke="#E6F7FF" stroke-width="0.589975"/>
<path d="M982.787 163.024C982.95 160.728 983.037 155.512 982.082 153.019" stroke="#E6F7FF" stroke-width="0.589975"/>
<mask id="mask7_4605_2855" style="mask-type:alpha" maskUnits="userSpaceOnUse" x="888" y="39" width="90" height="58">
<path d="M940.233 39.3097L895.947 73.8774L888.672 88.9882L901.283 96.3L941.827 85.591L973.846 86.6111L977.847 66.6489L940.233 39.3097Z" fill="#D9D9D9"/>
</mask>
<g mask="url(#mask7_4605_2855)">
<path d="M909.356 78.8078C905.464 82.4718 903.407 82.1773 903.075 85.9642L902.115 88.1086L903.176 93.205C903.241 93.6125 903.365 94.1579 903.471 94.5568C904.719 99.0154 908.59 102.88 914.864 105.183C928.117 110.048 947.316 106.191 957.594 96.5136C962.731 91.6765 964.668 86.3008 963.665 81.5259L962.359 74.8317C960.397 72.0242 956.474 71.7488 952.086 70.1381C938.833 65.2737 919.634 69.1304 909.356 78.8078Z" fill="#0381F6" stroke="#263238" stroke-width="0.789562" stroke-linejoin="round"/>
<mask id="mask8_4605_2855" style="mask-type:alpha" maskUnits="userSpaceOnUse" x="901" y="67" width="64" height="41">
<path d="M909.356 78.8078C905.464 82.4718 903.407 82.1773 903.075 85.9642L902.115 88.1086L903.176 93.205C903.241 93.6125 903.365 94.1579 903.471 94.5568C904.719 99.0154 908.59 102.88 914.864 105.183C928.117 110.048 947.316 106.191 957.594 96.5136C962.731 91.6765 964.668 86.3008 963.665 81.5259L962.359 74.8317C960.397 72.0242 956.474 71.7488 952.086 70.1381C938.833 65.2737 919.634 69.1304 909.356 78.8078Z" fill="#FF9F1A" stroke="black" stroke-width="0.789562" stroke-linejoin="round"/>
</mask>
<g mask="url(#mask8_4605_2855)">
<rect width="27.8363" height="23.831" transform="matrix(0.238741 0.971083 0.971083 -0.238741 921.803 91.4141)" fill="#263238"/>
<rect width="27.8363" height="8.13665" transform="matrix(0.238741 0.971083 0.971083 -0.238741 955.424 70.6932)" fill="#263238"/>
<rect width="27.8363" height="3.98171" transform="matrix(0.238741 0.971083 0.971083 -0.238741 947 78.6232)" fill="#263238"/>
<rect width="27.8363" height="3.98171" transform="matrix(0.238741 0.971083 0.971083 -0.238741 896.934 76.6041)" fill="#263238"/>
</g>
<path d="M907.924 72.3812C913.129 67.4805 920.571 64.0703 928.366 62.4936C936.161 60.9169 944.351 61.1654 951.061 63.6283C957.772 66.0917 961.848 70.352 962.889 75.3004C963.931 80.2502 961.91 85.7597 956.704 90.6618C951.499 95.5624 944.057 98.9727 936.262 100.549C928.467 102.126 920.278 101.878 913.568 99.4146C906.856 96.9513 902.78 92.6909 901.739 87.7425C900.697 82.7927 902.718 77.2833 907.924 72.3812Z" fill="#E3EAED" stroke="#263238" stroke-width="0.789562"/>
<path d="M936.825 86.7887C934.896 88.2996 931.91 87.9525 928.685 86.9878L926.383 89.2206L924.009 88.3535L926.249 86.1793C925.624 85.9522 924.995 85.7121 924.366 85.4728L922.112 87.6615L919.737 86.7951L922.037 84.563C921.529 84.3696 921.029 84.179 920.536 83.9999L920.529 84.0068L917.251 82.8118L918.747 81.3606C918.747 81.3606 920.483 82.0201 920.472 81.9911C921.435 82.3419 922.077 82.1364 922.453 81.8935L925.075 79.3506C925.141 79.3746 925.229 79.4041 925.336 79.4333L925.085 79.3411L928.758 75.778C928.893 75.5896 929 75.2485 928.327 75.0021C928.374 74.9984 926.601 74.3722 926.601 74.3722L927.801 72.5775L930.894 73.7058C931.469 73.9149 932.041 74.1156 932.598 74.3161L934.927 72.0589L937.3 72.9252L934.998 75.158C935.657 75.3889 936.291 75.6162 936.907 75.8406L939.198 73.6167L941.572 74.4837L939.25 76.7372C943.11 78.3256 945.312 79.9208 943.448 82.193C941.948 84.0226 939.732 84.2758 937.144 83.7597C938.109 84.6635 938.241 85.6842 936.825 86.7887ZM938.477 80.7477C940.219 79.0612 934.968 77.4102 933.358 76.8217L930.277 79.8141C931.888 80.4013 936.664 82.5079 938.477 80.7477ZM933.022 84.5656C934.604 83.0301 930.206 81.673 928.866 81.1841L926.07 83.8963C927.41 84.3853 931.371 86.1672 933.022 84.5656Z" fill="#263238"/>
</g>
</g>
<defs>
<linearGradient id="paint0_linear_4605_2855" x1="674.555" y1="123" x2="993.055" y2="123" gradientUnits="userSpaceOnUse">
<stop stop-color="#0482F7"/>
<stop offset="1" stop-color="#D9D9D9"/>
</linearGradient>
<clipPath id="clip0_4605_2855">
<rect width="1110" height="246" rx="24" fill="white"/>
</clipPath>
</defs>
</svg>
