<svg width="151" height="173" viewBox="0 0 151 173" fill="none" xmlns="http://www.w3.org/2000/svg">
<path d="M138.236 66.6695C143.092 66.6695 147.027 62.7336 147.027 57.8785C147.027 53.0233 143.092 49.0874 138.236 49.0874C133.381 49.0874 129.445 53.0233 129.445 57.8785C129.445 62.7336 133.381 66.6695 138.236 66.6695Z" fill="url(#paint0_linear_4433_6654)"/>
<path d="M139.803 52.4016L134.876 57.1351L137.626 60.1009L141.522 59.0144L139.803 52.4016ZM134.685 57.8105L136.671 63.4778L141.331 59.6898L137.435 60.7763L134.685 57.8105Z" fill="white"/>
<path d="M135.602 7.59988C135.133 6.55142 134.082 6.49701 132.877 6.78272L132.368 5.2806L131.462 5.58251L131.956 7.04516C131.718 7.12401 131.476 7.20998 131.235 7.29567L130.738 5.82335L129.831 6.1248L130.339 7.62646C130.144 7.69561 129.952 7.76395 129.764 7.82608L129.762 7.82139L128.511 8.23711L128.842 9.21343C128.842 9.21343 129.508 8.97772 129.501 8.99373C129.868 8.8718 130.06 9.04705 130.158 9.22129L130.737 10.9322C130.762 10.9238 130.795 10.9142 130.835 10.9063L130.739 10.9385L131.55 13.3356C131.573 13.4573 131.568 13.6657 131.311 13.7517C131.327 13.758 130.652 13.971 130.652 13.971L130.841 15.1224L132.022 14.7298C132.242 14.6572 132.459 14.5892 132.671 14.5201L133.186 16.0388L134.092 15.7372L133.583 14.2351C133.834 14.157 134.075 14.0788 134.31 14.0008L134.816 15.4968L135.722 15.1949L135.21 13.6789C136.705 13.0836 137.641 12.3416 137.285 10.8541C136.999 9.65643 136.281 9.31778 135.345 9.39635C135.78 8.95159 135.947 8.36686 135.602 7.59988ZM135.432 11.2701C135.817 12.4051 133.845 12.9172 133.23 13.1222L132.55 11.1093C133.165 10.9052 135.032 10.0861 135.432 11.2701ZM134.049 8.57073C134.399 9.60374 132.75 10.0176 132.238 10.1877L131.621 8.363C132.132 8.19282 133.685 7.49328 134.049 8.57073Z" fill="white"/>
<g clip-path="url(#clip0_4433_6654)">
<path d="M134.79 20.435C130.389 22.4847 125.159 20.5784 123.11 16.1768C121.06 11.7753 122.966 6.54607 127.368 4.49635C131.769 2.44662 136.998 4.35294 139.048 8.75448C141.098 13.156 139.192 18.3852 134.79 20.435ZM128.774 12.5716L129.808 9.73617L132.645 10.7704L133.246 9.1205L128.759 7.48484L127.124 11.9701L128.774 12.5716ZM126.098 14.7851L127.748 15.3866L128.349 13.7367L126.7 13.1353L126.098 14.7851ZM129.515 14.1615L128.911 15.8105L128.913 15.8113L133.398 17.4465L135.034 12.9597L133.384 12.3577L132.35 15.1951L129.515 14.1615ZM133.808 11.1946L135.458 11.796L136.06 10.1462L134.41 9.54471L133.808 11.1946ZM132.22 11.933L130.547 11.3231L130.095 12.56L130.044 12.7023L129.937 12.9956L129.936 12.998L129.939 12.9985L131.611 13.6085L132.221 11.9343L132.222 11.9336L132.22 11.933Z" fill="url(#paint1_linear_4433_6654)"/>
</g>
<path d="M127 44.0863C130.976 41.4624 132.107 36.088 129.526 32.0823C126.944 28.0766 121.629 26.9564 117.654 29.5803C113.678 32.2042 112.547 37.5786 115.129 41.5843C117.71 45.59 123.025 46.7102 127 44.0863Z" fill="url(#paint2_linear_4433_6654)"/>
<path d="M124.985 33.7997C124.514 32.756 123.466 32.7193 122.264 33.0264L121.753 31.5284L120.85 31.8466L121.347 33.3054C121.11 33.3885 120.869 33.4789 120.629 33.5689L120.128 32.1006L119.225 32.4184L119.736 33.916C119.541 33.9887 119.35 34.0605 119.163 34.126L119.161 34.1213L117.914 34.5596L118.247 35.5333C118.247 35.5333 118.91 35.2856 118.903 35.3017C119.269 35.1732 119.461 35.3457 119.559 35.5188L120.142 37.2251C120.167 37.2163 120.2 37.206 120.24 37.1975L120.144 37.2314L120.96 39.622C120.983 39.7437 120.978 39.9528 120.723 40.0435C120.738 40.0495 120.066 40.2746 120.066 40.2746L120.258 41.4264L121.434 41.0125C121.653 40.9359 121.87 40.864 122.081 40.791L122.598 42.3057L123.501 41.9877L122.99 40.4896C123.24 40.407 123.48 40.3245 123.715 40.2422L124.223 41.7342L125.126 41.416L124.611 39.904C126.101 39.2814 127.032 38.5212 126.673 37.0352C126.385 35.8388 125.667 35.5113 124.734 35.606C125.166 35.1525 125.332 34.5631 124.985 33.7997ZM124.826 37.4841C125.213 38.6159 123.247 39.1632 122.635 39.3794L121.95 37.3719C122.563 37.1566 124.423 36.3032 124.826 37.4841ZM123.439 34.8C123.791 35.8302 122.147 36.2734 121.637 36.4528L121.016 34.633C121.526 34.4535 123.073 33.7254 123.439 34.8Z" fill="white"/>
<path d="M78.5287 153.236C79.2253 156.95 80.492 159.576 81.9486 161.561C82.0753 161.753 82.2019 161.881 82.3286 162.073C82.6453 162.458 82.9619 162.778 83.2786 163.098C83.4686 163.29 83.5952 163.418 83.7852 163.546C85.4952 165.083 87.3318 165.98 88.9151 166.684C92.905 168.413 93.095 172.831 93.095 172.831L61.8091 172.639C62.1891 167.388 62.1891 157.463 62.1891 157.463C68.7122 155.478 71.8788 154.261 78.5287 153.236Z" fill="#12101C"/>
<path d="M82.0101 161.497C82.1368 161.689 82.2635 161.817 82.3902 162.009C81.1235 162.586 79.8569 163.226 78.5902 163.802C78.2103 163.995 77.8936 163.418 78.2736 163.29C79.4769 162.714 80.7435 162.137 82.0101 161.497Z" fill="white"/>
<path d="M83.3405 163.034C83.5305 163.226 83.6572 163.354 83.8472 163.482C82.4539 164.187 80.9972 164.827 79.6039 165.532C79.2239 165.724 78.9073 165.147 79.2873 165.019C80.6172 164.315 82.0105 163.675 83.3405 163.034Z" fill="white"/>
<path d="M35.1452 150.291C32.232 152.66 30.522 155.03 29.5087 157.271C29.4454 157.463 29.3187 157.655 29.2554 157.847C29.0654 158.295 28.9387 158.744 28.812 159.192C28.7487 159.384 28.6854 159.64 28.6221 159.832C28.1154 162.073 28.1787 164.187 28.3054 165.916C28.6221 170.27 24.8855 172.511 24.8855 172.511L10.4458 144.464C14.8157 141.39 18.9956 138.508 22.3522 135.114C27.0387 139.981 31.092 144.784 35.1452 150.291Z" fill="#12101C"/>
<path d="M81.695 84.5257C81.695 84.5257 74.1585 81.3239 67.952 80.4914C68.332 74.9843 68.4587 71.3342 68.4587 71.3342L48.4458 72.679C46.2925 85.166 45.4059 103.288 36.2861 119.233C32.1695 126.469 25.0763 132.233 17.6665 138.7C21.7831 144.399 28.3696 151.892 32.5495 157.591C33.7528 155.606 51.6124 146.064 60.7322 121.539C60.4789 141.198 59.7822 161.305 59.7822 161.305L82.455 159.832C82.455 159.832 85.5583 118.273 81.695 84.5257Z" fill="url(#paint3_linear_4433_6654)"/>
<path d="M29.5092 157.271C29.4458 157.463 29.3191 157.655 29.2558 157.847C28.1158 157.014 27.0392 156.118 25.8992 155.285C25.5826 155.029 25.8992 154.453 26.2159 154.709C27.2925 155.606 28.3692 156.438 29.5092 157.271Z" fill="white"/>
<path d="M28.8121 159.192C28.7488 159.384 28.6855 159.64 28.6222 159.832C27.3555 158.872 26.0889 157.975 24.8856 157.014C24.5689 156.758 24.8856 156.182 25.2022 156.438C26.4055 157.335 27.6088 158.231 28.8121 159.192Z" fill="white"/>
<path d="M62.1888 118.401C62.1255 118.401 62.0622 118.401 61.9988 118.337C61.7455 118.273 61.6188 117.952 61.7455 117.696C66.2421 105.914 67.952 92.21 67.952 92.0819L68.0154 91.6977H68.3953C68.4587 91.6977 71.9419 91.5056 74.2852 90.8652C74.5385 90.8012 74.7919 90.9292 74.8552 91.1854C74.9185 91.4415 74.7919 91.6977 74.5385 91.7617C72.5753 92.274 69.852 92.5301 68.8387 92.5942C68.522 94.9635 66.7487 107.258 62.6322 118.017C62.5055 118.273 62.3788 118.401 62.1888 118.401Z" fill="#12101C"/>
<path d="M106.457 28.2378C102.974 31.6317 97.5903 37.9072 92.4605 39.9564C86.0639 42.5178 74.7909 28.558 66.811 29.3904L68.8377 43.4144C68.8377 43.4144 75.5509 57.4382 87.9639 60.1918C100.377 62.9454 113.043 40.981 113.107 40.9169C111.523 37.1388 109.433 30.7352 106.457 28.2378Z" fill="#12101C"/>
<path d="M61.3009 27.9816L60.2876 30.7352L72.194 32.144L72.764 26.5088L61.3009 27.9816Z" fill="#12101C"/>
<path d="M70.6738 31.1194C63.9606 25.8684 52.6241 32.5922 49.2676 42.7099C46.7343 50.3942 43.061 88.0475 43.061 88.0475L83.7834 87.4712C83.7834 87.4712 80.4902 46.8723 75.7403 40.0204C70.9904 33.1685 72.9537 32.8484 70.6738 31.1194Z" fill="#12101C"/>
<path d="M79.6046 52.9557C79.4146 52.9557 79.1612 52.8277 79.1612 52.5715C79.1612 52.5075 78.3379 48.7293 76.628 42.838C76.5646 42.5819 76.6913 42.3257 76.9446 42.2617C77.1979 42.1976 77.4513 42.3257 77.5146 42.5819C79.2879 48.5372 80.0479 52.3154 80.0479 52.3794C80.1112 52.6356 79.9212 52.8917 79.6679 52.9557H79.6046Z" fill="white"/>
<path d="M98.666 35.4738C102.656 27.7895 107.216 27.1491 109.749 27.2772C112.282 27.4053 111.649 30.6071 111.649 30.6071L98.666 35.4738Z" fill="white"/>
<path d="M97.6528 36.3704L98.2228 35.2818C101.263 29.4545 105.126 26.6369 109.749 26.829C110.509 26.8931 111.143 27.1492 111.586 27.7255C112.472 28.8782 112.092 30.6712 112.092 30.7352L112.029 30.9914L97.6528 36.3704ZM109.306 27.7255C105.506 27.7255 102.339 29.9668 99.6795 34.5774L111.206 30.2229C111.269 29.7106 111.269 28.8141 110.826 28.2378C110.573 27.9176 110.193 27.7255 109.686 27.7255C109.623 27.7255 109.433 27.7255 109.306 27.7255Z" fill="#12101C"/>
<path d="M115.321 32.144C115.321 32.144 116.588 28.8782 113.104 29.3264C109.621 29.7747 102.465 29.5826 95.4981 38.2915C94.9281 38.9959 94.2948 39.7643 93.5981 40.5968C97.3981 43.9907 100.881 47.6407 104.365 51.3548C105.061 49.818 105.568 48.4732 106.011 47.5767C109.368 40.8529 117.538 44.3109 116.271 37.0108C116.271 37.0748 118.424 32.5923 115.321 32.144Z" fill="white"/>
<path d="M104.555 52.2515L104.048 51.7392C101.198 48.6655 97.3986 44.6312 93.282 40.9811L92.9653 40.6609L93.282 40.2767C93.9786 39.4443 94.6753 38.6118 95.1819 37.9715C101.515 30.031 107.975 29.3906 111.838 29.0064C112.282 28.9424 112.725 28.9424 113.105 28.8783C114.308 28.6862 115.195 28.9423 115.701 29.5827C116.271 30.2871 116.145 31.2476 116.018 31.824C116.588 32.0161 116.968 32.3363 117.221 32.8486C117.981 34.3214 117.095 36.5627 116.841 37.203C117.538 41.4294 115.068 42.3259 112.535 43.2864C110.445 44.0549 108.038 45.0154 106.582 47.8971C106.265 48.4734 105.948 49.2418 105.568 50.1383C105.378 50.5866 105.125 51.0988 104.935 51.6752L104.555 52.2515ZM94.2953 40.5329C98.0319 43.9268 101.515 47.5769 104.238 50.5225C104.365 50.2023 104.492 49.9462 104.618 49.6901C104.998 48.7936 105.315 48.0251 105.632 47.3847C107.278 44.1829 109.938 43.1584 112.155 42.3259C114.752 41.3654 116.461 40.725 115.828 37.139V37.0109L115.891 36.8828C116.208 36.2425 116.905 34.2573 116.335 33.2968C116.145 32.9126 115.828 32.7205 115.258 32.6564L114.688 32.5924L114.878 32.0161C115.005 31.6959 115.258 30.6713 114.878 30.2231C114.562 29.7748 113.802 29.7748 113.168 29.9029C112.788 29.9669 112.345 30.031 111.902 30.031C108.165 30.4152 101.958 31.0555 95.8786 38.6758C95.4353 39.1881 94.8653 39.8285 94.2953 40.5329Z" fill="#12101C"/>
<path d="M94.5492 39.5081C89.2293 46.0398 77.8296 58.3347 69.1532 52.5074C59.8434 46.2319 58.5767 39.4441 58.5767 39.4441L51.6736 39.6362C45.7837 52.5075 50.2169 73.3832 75.8663 71.7183C95.9425 70.3735 102.022 57.3102 104.936 50.4583C101.579 46.6161 98.0325 43.0941 94.5492 39.5081Z" fill="#12101C"/>
<path d="M75.5491 53.404C66.8726 53.404 61.1728 47.1284 59.8428 42.0696C59.7795 41.8134 59.9061 41.5573 60.1595 41.4933C60.4128 41.4292 60.6661 41.5573 60.7295 41.8135C62.1228 47.2565 69.0893 54.2365 79.4757 51.9952C86.7589 50.3943 92.5854 41.045 92.6487 40.981C92.7754 40.7248 93.092 40.6608 93.282 40.8529C93.5354 40.981 93.5987 41.3012 93.4087 41.4933C93.1554 41.8775 87.3289 51.2908 79.6024 52.9557C78.2091 53.2759 76.8157 53.404 75.5491 53.404Z" fill="white"/>
<path d="M115.258 36.8826C112.662 36.9466 110.255 37.587 107.912 38.8037C107.532 38.9958 107.848 39.5721 108.228 39.38C110.445 38.2273 112.725 37.587 115.258 37.5229C115.638 37.5229 115.638 36.8826 115.258 36.8826Z" fill="#12101C"/>
<path d="M113.549 32.5921C111.523 32.7202 109.559 33.1685 107.659 34.0009C107.279 34.129 107.469 34.7694 107.849 34.6413C109.686 33.8729 111.586 33.4246 113.549 33.2965C113.929 33.1684 113.992 32.5281 113.549 32.5921Z" fill="#12101C"/>
<path d="M77.3866 71.7825C66.3668 71.7825 57.247 63.842 53.0671 55.7735C52.9404 55.5173 53.0671 55.2612 53.2571 55.1331C53.5104 55.005 53.7638 55.1331 53.8904 55.3252C58.2603 63.778 68.3301 72.1667 80.2365 70.6299C80.4898 70.5658 80.7431 70.7579 80.7431 71.0141C80.8065 71.2702 80.6165 71.5263 80.3632 71.5263C79.3499 71.7184 78.3365 71.7825 77.3866 71.7825Z" fill="white"/>
<path d="M74.3465 15.7511C72.2565 11.0765 67.19 8.83521 63.0734 10.7563C58.9568 12.6774 57.2468 17.9924 59.3368 22.667C59.3368 22.667 59.3368 22.667 59.3368 22.731C58.8935 22.9231 58.5135 23.1793 58.2601 23.4354C56.1702 25.2285 56.6135 27.8539 58.6402 28.7504C60.4135 29.5189 62.8834 29.3908 64.4033 27.5337C66.43 28.3022 68.6466 28.3662 70.6099 27.6618C76.6897 25.4846 76.4364 20.4257 74.3465 15.7511Z" fill="white"/>
<path d="M60.7298 29.6468C59.9065 29.6468 59.0831 29.4547 58.3865 29.1345C57.3098 28.6222 56.6132 27.7257 56.4232 26.573C56.2332 25.2923 56.8032 24.0116 57.9432 22.987C58.1965 22.7949 58.4498 22.6028 58.7665 22.4107C56.8032 17.544 58.5765 12.1649 62.883 10.2438C65.0363 9.28329 67.4429 9.28332 69.6596 10.3079C71.8762 11.3325 73.7128 13.1255 74.7895 15.4948C76.3094 18.8887 76.5627 21.7063 75.6761 23.9476C74.9161 25.8046 73.2695 27.2134 70.8629 28.0459C68.8996 28.7503 66.683 28.7503 64.593 28.0459C63.453 29.1986 62.0597 29.6468 60.7298 29.6468ZM66.1763 10.564C65.163 10.564 64.213 10.7561 63.263 11.2044C59.3365 12.9974 57.8165 18.0563 59.7798 22.4748L59.9698 22.859L59.5898 23.1151C59.2098 23.3072 58.8298 23.5634 58.5765 23.7555C57.6898 24.5239 57.2465 25.4845 57.4365 26.445C57.5632 27.2775 58.0698 27.9178 58.8298 28.238C60.3498 28.9424 62.6297 28.8784 64.0864 27.1494L64.2763 26.8932L64.593 27.0213C66.493 27.7897 68.5829 27.8538 70.4829 27.1494C72.6361 26.381 74.0928 25.1643 74.7895 23.5634C75.6128 21.5783 75.3594 19.0168 73.9661 15.879C73.0161 13.7018 71.3695 12.0369 69.3429 11.1404C68.2663 10.7561 67.1896 10.564 66.1763 10.564Z" fill="#12101C"/>
<path d="M68.4327 19.1587C68.7824 19.1483 69.0574 18.8532 69.0471 18.4997C69.0367 18.1462 68.7449 17.8681 68.3953 17.8785C68.0456 17.889 67.7706 18.184 67.7809 18.5376C67.7913 18.8911 68.0831 19.1692 68.4327 19.1587Z" fill="#12101C"/>
<path d="M73.7135 19.0806C72.9535 17.8639 72.0669 16.7753 70.9903 15.8148C70.6736 15.5586 70.2303 16.0069 70.5469 16.263C71.5602 17.1595 72.4469 18.2482 73.2069 19.4008C73.3969 19.785 73.9035 19.4008 73.7135 19.0806Z" fill="#12101C"/>
<path d="M68.2668 11.9727C66.8735 13.5095 59.9704 16.9675 62.567 20.4254C63.2003 21.322 63.9603 21.6421 63.2636 22.5386C62.4403 23.3071 61.6803 22.3465 61.6803 22.3465C60.4137 22.6667 59.0204 23.115 58.3238 23.7553C54.9672 20.8097 54.9671 17.0956 56.4871 15.8789C56.4871 15.8789 65.3536 3.0076 69.4702 6.40152C73.0801 9.47525 68.2668 11.9727 68.2668 11.9727Z" fill="#12101C"/>
<path d="M62.6297 24.7157C61.2997 24.0754 59.6531 24.4595 58.7031 25.6122C58.4498 25.9324 58.8931 26.3806 59.1464 26.0605C59.9064 25.0999 61.173 24.7157 62.313 25.292C62.693 25.4841 63.0097 24.9078 62.6297 24.7157Z" fill="#12101C"/>
<defs>
<linearGradient id="paint0_linear_4433_6654" x1="141.167" y1="49.9289" x2="136.329" y2="66.6695" gradientUnits="userSpaceOnUse">
<stop stop-color="#FFD24D"/>
<stop offset="1" stop-color="#FF9F1A"/>
</linearGradient>
<linearGradient id="paint1_linear_4433_6654" x1="131.759" y1="3.60498" x2="129.967" y2="20.898" gradientUnits="userSpaceOnUse">
<stop stop-color="#FFD24D"/>
<stop offset="1" stop-color="#FF9F1A"/>
</linearGradient>
<linearGradient id="paint2_linear_4433_6654" x1="117.654" y1="29.5803" x2="127.159" y2="43.9819" gradientUnits="userSpaceOnUse">
<stop stop-color="#FFD24D"/>
<stop offset="1" stop-color="#FF9F1A"/>
</linearGradient>
<linearGradient id="paint3_linear_4433_6654" x1="35.6867" y1="108.665" x2="81.7826" y2="158.307" gradientUnits="userSpaceOnUse">
<stop stop-color="#4DD1F6"/>
<stop offset="1" stop-color="#0381F6"/>
</linearGradient>
<clipPath id="clip0_4433_6654">
<rect width="17.5821" height="17.5821" fill="white" transform="translate(119.398 8.20752) rotate(-24.9706)"/>
</clipPath>
</defs>
</svg>
