<?xml version="1.0" encoding="UTF-8"?>
<svg width="76px" height="54px" viewBox="0 0 76 54" version="1.1" xmlns="http://www.w3.org/2000/svg" xmlns:xlink="http://www.w3.org/1999/xlink">
    <!-- Generator: Sketch 49.3 (51167) - http://www.bohemiancoding.com/sketch -->
    <title>quote</title>
    <desc>Created with Sketch.</desc>
    <defs></defs>
    <g id="Blog" stroke="none" stroke-width="1" fill="none" fill-rule="evenodd">
        <g id="Tablet_03_Blog_Entry_01a" transform="translate(-346.000000, -2202.000000)" fill="#E7E7E7" fill-rule="nonzero">
            <g id="Group-2" transform="translate(0.000000, 120.000000)">
                <g id="QUOTE" transform="translate(40.000000, 2082.000000)">
                    <path d="M322.888514,19.8028291 C332.202529,19.8028291 339.777027,27.4732545 339.777027,36.9014146 C339.777027,46.3295746 332.20084,54 322.888514,54 C313.576187,54 306,46.3295746 306,36.9014146 C306,21.9606706 314.168974,6.61640003 325.423479,0.416452948 C327.063354,-0.486352364 329.11362,0.127486854 330.005333,1.78604964 C330.897047,3.44632229 330.290749,5.52209056 328.652563,6.42489587 C323.494811,9.26668077 319.063265,14.739938 316.197285,21.2083328 C318.249239,20.3072374 320.510611,19.8028291 322.888514,19.8028291 Z M365.111486,19.8028291 C374.423813,19.8028291 382,27.4732545 382,36.9014146 C382,46.3295746 374.423813,54 365.111486,54 C355.79916,54 348.222973,46.3295746 348.222973,36.9014146 C348.222973,21.9606706 356.391947,6.61640003 367.646452,0.416452948 C369.288016,-0.484642505 371.338281,0.129196712 372.228306,1.78604964 C373.12002,3.44632229 372.513722,5.52209056 370.875536,6.42489587 C365.716095,9.26668077 361.284549,14.739938 358.418568,21.2100427 C360.473901,20.3072374 362.735273,19.8028291 365.111486,19.8028291 Z" id="quote"></path>
                </g>
            </g>
        </g>
    </g>
</svg>