<svg width="41" height="41" viewBox="0 0 41 41" fill="none" xmlns="http://www.w3.org/2000/svg">
<rect x="0.945801" y="0.831543" width="40" height="40" rx="20" fill="white"/>
<path fill-rule="evenodd" clip-rule="evenodd" d="M29.4451 17.6668C30.7794 17.6219 31.8962 18.6554 31.9454 19.979C31.9618 20.9022 31.4404 21.7519 30.6111 22.1645C30.6275 22.4055 30.6275 22.6465 30.6111 22.8876C30.6111 26.5723 26.3002 29.5626 20.9834 29.5626C15.6666 29.5626 11.3557 26.5682 11.3557 22.8876C11.3393 22.6465 11.3393 22.4055 11.3557 22.1645C11.1135 22.0583 10.8959 21.9071 10.707 21.7315C9.73397 20.8246 9.68881 19.3049 10.6003 18.3409C11.5117 17.3727 13.039 17.3278 14.0079 18.2346C15.9129 16.9519 18.1505 16.2493 20.4497 16.2125L21.669 10.5097V10.5016C21.7306 10.2238 22.0057 10.0522 22.2808 10.1135L26.3289 10.9182C26.5876 10.4689 27.0556 10.1666 27.577 10.1135C28.4844 10.0154 29.2973 10.669 29.3958 11.5719C29.4944 12.4747 28.8375 13.2835 27.9301 13.3816C27.0228 13.4796 26.2099 12.826 26.1113 11.9232L22.5764 11.1838L21.5048 16.3106C23.7752 16.3596 25.9841 17.0581 27.8644 18.3327C28.2914 17.9283 28.8539 17.6872 29.4451 17.6668ZM17.0808 19.978C16.1694 19.978 15.4263 20.7174 15.4263 21.6243C15.4263 22.5312 16.1653 23.2624 17.0808 23.2706C17.9923 23.2706 18.7354 22.5312 18.7354 21.6243C18.7354 20.7174 17.9923 19.978 17.0808 19.978ZM25.0289 26.1436C23.8546 27.0219 22.4177 27.4713 20.9479 27.41C19.478 27.4713 18.0411 27.0219 16.8669 26.1436C16.7108 25.9557 16.7396 25.6738 16.9284 25.5186C17.0927 25.3838 17.3267 25.3838 17.495 25.5186C18.4886 26.2416 19.6997 26.6093 20.9314 26.5521C22.1631 26.6175 23.3784 26.2662 24.3843 25.5513C24.5649 25.3756 24.8605 25.3797 25.0371 25.5594C25.2136 25.7392 25.2095 26.0333 25.0289 26.209V26.1436ZM23.0708 21.6849C23.0708 22.5918 23.8139 23.3312 24.7254 23.3312L24.7131 23.3924H24.7952C25.7066 23.3557 26.4169 22.5918 26.3799 21.6849C26.3799 20.778 25.6368 20.0386 24.7254 20.0386C23.8139 20.0386 23.0708 20.778 23.0708 21.6849Z" fill="#6B7073"/>
</svg>
