<?xml version="1.0" encoding="UTF-8"?>
<svg width="24px" height="24px" viewBox="0 0 24 24" version="1.1" xmlns="http://www.w3.org/2000/svg" xmlns:xlink="http://www.w3.org/1999/xlink">
    <!-- Generator: Sketch 49.3 (51167) - http://www.bohemiancoding.com/sketch -->
    <title>search-icon</title>
    <desc>Created with Sketch.</desc>
    <defs></defs>
    <g id="Blog" stroke="none" stroke-width="1" fill="none" fill-rule="evenodd">
        <g id="Tablet_04_Blog_Menu_01a" transform="translate(-20.000000, -121.000000)" fill="#33c7f5" fill-rule="nonzero">
            <g id="SEARCH" transform="translate(20.000000, 120.000000)">
                <path d="M18.6961724,18.0531201 C20.1347521,16.2568066 20.9998765,13.9810619 21.0001588,11.5000485 C20.9993118,5.70028794 16.2992924,1.00028235 10.5000794,1 C4.70058411,1.00028235 0.000564702561,5.70028794 0,11.5000485 C0.000564702561,17.2992444 4.70058411,21.99925 10.5000794,21.9998147 C12.9811001,21.9998147 15.2568514,21.1341282 17.053735,19.695835 L22.0174705,24.6601206 C22.4709266,25.1132931 23.2061694,25.1132931 23.6599079,24.6601206 C24.113364,24.2063835 24.113364,23.4711429 23.6599079,23.0176881 L18.6961724,18.0531201 Z M4.71752519,17.2823034 C3.23574567,15.7985518 2.32290398,13.7616756 2.32233928,11.5000485 C2.32290398,9.23785672 3.23574567,7.20126293 4.71752519,5.71751132 C6.20099882,4.23601851 8.2381633,3.3231795 10.5000794,3.32233245 C12.7619955,3.3231795 14.7988777,4.23601851 16.2823513,5.71751132 C17.7641308,7.20126293 18.6769725,9.23813908 18.6775372,11.5000485 C18.6769725,13.7613933 17.7641308,15.7977047 16.282916,17.2814563 L16.2823513,17.2817387 L16.2817866,17.2825857 C14.7980306,18.7637962 12.7614308,19.6766352 10.4997971,19.6774823 C8.2381633,19.6766352 6.20128117,18.7637962 4.71752519,17.2823034 Z" id="search-icon"></path>
            </g>
        </g>
    </g>
</svg>
