<svg width="608" height="965" viewBox="0 0 608 965" fill="none" xmlns="http://www.w3.org/2000/svg">
<g clip-path="url(#clip0_1404_13278)">
<g clip-path="url(#clip1_1404_13278)">
<g filter="url(#filter0_b_1404_13278)">
<path fill-rule="evenodd" clip-rule="evenodd" d="M431.746 642.727C416.477 657.992 391.723 657.988 376.454 642.731C361.185 627.454 361.181 602.703 376.446 587.43L502.248 461.626C517.521 446.357 542.279 446.357 557.548 461.63C572.813 476.899 572.821 501.654 557.552 516.927L431.746 642.727Z" fill="white" fill-opacity="0.35" stroke="white" stroke-opacity="0.65"/>
<path fill-rule="evenodd" clip-rule="evenodd" d="M231.746 846.552C216.477 861.817 191.723 861.813 176.454 846.556C161.185 831.279 161.181 806.528 176.446 791.255L302.248 665.451C317.521 650.182 342.279 650.182 357.548 665.455C372.813 680.724 372.821 705.479 357.552 720.752L231.746 846.552Z" fill="white" fill-opacity="0.35" stroke="white" stroke-opacity="0.65"/>
<path fill-rule="evenodd" clip-rule="evenodd" d="M628.444 445.767C613.249 460.977 588.604 460.977 573.398 445.767C558.199 430.564 558.203 405.93 573.398 390.731L644.554 319.578C659.757 304.375 684.394 304.375 699.597 319.57C714.803 334.773 714.799 359.422 699.597 374.613L628.444 445.767Z" fill="white" fill-opacity="0.35" stroke="white" stroke-opacity="0.65"/>
<path fill-rule="evenodd" clip-rule="evenodd" d="M439.867 485.702C424.575 500.994 399.769 501.002 384.478 485.706C369.17 470.399 369.178 445.609 384.478 430.309L603.14 211.65C618.428 196.35 643.234 196.35 658.525 211.646C673.825 226.945 673.825 251.74 658.525 267.043L439.867 485.702Z" fill="white" fill-opacity="0.35" stroke="white" stroke-opacity="0.65"/>
<path fill-rule="evenodd" clip-rule="evenodd" d="M636.782 905.715C621.506 920.995 596.736 920.995 581.46 905.715C566.18 890.431 566.18 865.673 581.46 850.397L1083.22 348.63C1098.49 333.354 1123.26 333.358 1138.55 348.63C1153.82 363.914 1153.82 388.68 1138.55 403.952L636.782 905.715Z" fill="white" fill-opacity="0.35" stroke="white" stroke-opacity="0.65"/>
<path fill-rule="evenodd" clip-rule="evenodd" d="M370.778 384.716C355.506 399.992 330.736 399.996 315.46 384.716C300.18 369.44 300.18 344.674 315.46 329.402L817.221 -172.37C832.493 -187.646 857.263 -187.642 872.547 -172.37C887.819 -157.086 887.819 -132.316 872.539 -117.048L370.778 384.716Z" fill="white" fill-opacity="0.35" stroke="white" stroke-opacity="0.65"/>
<path fill-rule="evenodd" clip-rule="evenodd" d="M279.87 474.703C264.579 489.996 239.77 490 224.474 474.707C209.175 459.407 209.175 434.604 224.474 419.304L239.143 404.655C254.426 389.351 279.236 389.347 294.527 404.651C309.826 419.939 309.822 444.75 294.527 460.046L279.87 474.703Z" fill="white" fill-opacity="0.35" stroke="white" stroke-opacity="0.65"/>
<path fill-rule="evenodd" clip-rule="evenodd" d="M444.186 945.477C428.813 960.841 403.894 960.841 388.529 945.477C373.161 930.1 373.153 905.184 388.529 889.815L619.817 658.523C635.182 643.159 660.102 643.159 675.47 658.523C690.842 673.9 690.842 698.82 675.478 714.185L444.186 945.477Z" fill="white" fill-opacity="0.35" stroke="white" stroke-opacity="0.65"/>
<path fill-rule="evenodd" clip-rule="evenodd" d="M607.447 1085.77C592.244 1100.98 567.605 1100.98 552.398 1085.77C537.199 1070.57 537.203 1045.93 552.398 1030.74L623.557 959.577C638.76 944.375 663.399 944.375 678.602 959.57C693.801 974.776 693.797 999.421 678.602 1014.62L607.447 1085.77Z" fill="white" fill-opacity="0.35" stroke="white" stroke-opacity="0.65"/>
<path fill-rule="evenodd" clip-rule="evenodd" d="M395.446 840.772C380.243 855.975 355.606 855.975 340.399 840.776C325.196 825.569 325.204 800.931 340.399 785.732L411.556 714.579C426.759 699.372 451.396 699.376 466.599 714.571C481.802 729.774 481.798 754.42 466.599 769.619L395.446 840.772Z" fill="white" fill-opacity="0.35" stroke="white" stroke-opacity="0.65"/>
<path fill-rule="evenodd" clip-rule="evenodd" d="M540.866 699.701C525.574 714.997 500.768 715.001 485.477 699.701C470.177 684.402 470.173 659.608 485.473 644.308L704.136 425.646C719.432 410.35 744.234 410.35 759.525 425.65C774.825 440.949 774.825 465.743 759.525 481.043L540.866 699.701Z" fill="white" fill-opacity="0.35" stroke="white" stroke-opacity="0.65"/>
</g>
</g>
<g opacity="0.45">
<g filter="url(#filter1_f_1404_13278)">
<circle cx="596.294" cy="358.706" r="125.007" transform="rotate(-25.557 596.294 358.706)" fill="#AD168C" fill-opacity="0.85"/>
</g>
<g filter="url(#filter2_f_1404_13278)">
<circle cx="581.899" cy="597.183" r="178.115" transform="rotate(-25.557 581.899 597.183)" fill="#03A9F4"/>
</g>
</g>
</g>
<defs>
<filter id="filter0_b_1404_13278" x="-1426.5" y="-499.5" width="3360" height="2798.19" filterUnits="userSpaceOnUse" color-interpolation-filters="sRGB">
<feFlood flood-opacity="0" result="BackgroundImageFix"/>
<feGaussianBlur in="BackgroundImage" stdDeviation="1.5"/>
<feComposite in2="SourceAlpha" operator="in" result="effect1_backgroundBlur_1404_13278"/>
<feBlend mode="normal" in="SourceGraphic" in2="effect1_backgroundBlur_1404_13278" result="shape"/>
</filter>
<filter id="filter1_f_1404_13278" x="131.258" y="-106.331" width="930.072" height="930.073" filterUnits="userSpaceOnUse" color-interpolation-filters="sRGB">
<feFlood flood-opacity="0" result="BackgroundImageFix"/>
<feBlend mode="normal" in="SourceGraphic" in2="BackgroundImageFix" result="shape"/>
<feGaussianBlur stdDeviation="170" result="effect1_foregroundBlur_1404_13278"/>
</filter>
<filter id="filter2_f_1404_13278" x="6.74219" y="22.0269" width="1150.31" height="1150.31" filterUnits="userSpaceOnUse" color-interpolation-filters="sRGB">
<feFlood flood-opacity="0" result="BackgroundImageFix"/>
<feBlend mode="normal" in="SourceGraphic" in2="BackgroundImageFix" result="shape"/>
<feGaussianBlur stdDeviation="198.5" result="effect1_foregroundBlur_1404_13278"/>
</filter>
<clipPath id="clip0_1404_13278">
<rect width="819" height="965" fill="white"/>
</clipPath>
<clipPath id="clip1_1404_13278">
<rect width="990" height="965" fill="white" transform="translate(-360)"/>
</clipPath>
</defs>
</svg>
