<?xml version="1.0" encoding="UTF-8"?>
<svg width="27px" height="24px" viewBox="0 0 27 24" version="1.1" xmlns="http://www.w3.org/2000/svg" xmlns:xlink="http://www.w3.org/1999/xlink">
    <!-- Generator: Sketch 49.3 (51167) - http://www.bohemiancoding.com/sketch -->
    <title>send</title>
    <desc>Created with Sketch.</desc>
    <defs></defs>
    <g id="Blog" stroke="none" stroke-width="1" fill="none" fill-rule="evenodd">
        <g id="Tablet_01_Blog_MainPage_01a" transform="translate(-682.000000, -2049.000000)" fill="#33C7F5" fill-rule="nonzero">
            <g id="SUBSCRIBE" transform="translate(20.000000, 1936.000000)">
                <path d="M686.600786,113.07656 C688.061504,112.652138 689.415339,114.066878 688.880931,115.481617 L681.221071,135.818494 C680.686662,137.233233 678.798418,137.410075 677.978991,136.172178 L672.599275,127.789848 C672.243003,127.259321 672.349884,126.551952 672.848666,126.162898 L684.641287,116.648777 C684.855051,116.507303 684.641287,116.188986 684.427524,116.33046 L670.390385,124.854264 C669.962858,125.101844 669.464077,125.137212 669.000923,124.995738 L663.051171,123.015103 C661.626081,122.555313 661.661708,120.53931 663.086798,120.114888 L686.600786,113.07656 Z M669.891604,126.976373 L673.276193,131.71575 C673.525584,132.069435 673.489957,132.529225 673.204939,132.847541 L671.851103,134.297649 C670.889167,135.323335 669.179059,134.651334 669.179059,133.271963 L669.179059,127.188584 C669.179059,126.834899 669.67784,126.658057 669.891604,126.976373 Z" id="send"></path>
            </g>
        </g>
    </g>
</svg>