<svg xmlns="http://www.w3.org/2000/svg" width="64" height="64" viewBox="0 0 64 64">
    <path fill="#3CAA88" fill-rule="evenodd" d="M0 0h64v64H0V0zm30.274 45.333c.21 0 .416-.029.614-.086a2.267 2.267 0 0 0 1.367-1.11 2.077 2.077 0 0 0 .154-1.628l-.874-2.688 5.44-1.767.87 2.68a2.22 2.22 0 0 0 2.698 1.375 2.268 2.268 0 0 0 1.367-1.11 2.077 2.077 0 0 0 .153-1.627l-.873-2.688 2.609-.848a2.205 2.205 0 0 0 1.291-1.102c.27-.529.317-1.13.134-1.692a2.203 2.203 0 0 0-1.102-1.291 2.19 2.19 0 0 0-1.692-.133l-2.61.848-1.767-5.437 2.61-.849a2.203 2.203 0 0 0 1.29-1.102c.27-.528.317-1.129.134-1.692a2.203 2.203 0 0 0-1.102-1.29 2.191 2.191 0 0 0-1.692-.134l-2.61.849-.849-2.611a2.199 2.199 0 0 0-.818-1.118 2.206 2.206 0 0 0-1.976-.306 2.202 2.202 0 0 0-1.29 1.102 2.202 2.202 0 0 0-.133 1.692l.848 2.612-5.437 1.767-.848-2.612a2.2 2.2 0 0 0-.818-1.118 2.208 2.208 0 0 0-1.976-.306 2.203 2.203 0 0 0-1.291 1.103 2.203 2.203 0 0 0-.133 1.692l.849 2.613-2.683.871c-.528.191-.96.572-1.217 1.073a2.21 2.21 0 0 0-.157 1.624c.167.583.572 1.081 1.11 1.367.313.166.658.254.999.254.213 0 .425-.034.63-.1l2.688-.874 1.768 5.44-2.684.872c-.528.19-.96.571-1.217 1.073a2.208 2.208 0 0 0-.157 1.624A2.268 2.268 0 0 0 23 41.912c.313.166.658.254.999.254.214 0 .426-.034.63-.1l2.689-.875.872 2.682a2.22 2.22 0 0 0 2.083 1.46zm-1.845-15.167l5.412-1.76 1.716 5.233-.002.035v.18l-5.388 1.75-1.738-5.438z"/>
</svg>
