<svg width="25" height="25" viewBox="0 0 25 25" fill="none" xmlns="http://www.w3.org/2000/svg">
<g clip-path="url(#clip0_4433_6730)">
<path d="M20.5817 5.06778C21.4728 5.06778 21.7073 5.74177 21.4438 7.32428C21.1421 9.13392 20.2732 15.1254 19.5802 18.8551C19.3151 20.2823 18.837 20.8976 18.1414 20.8976C17.759 20.8976 17.3111 20.7117 16.7966 20.3721C16.0993 19.9115 12.5794 17.5837 11.815 17.037C11.1178 16.5389 10.1559 15.9393 11.3624 14.7593C11.7918 14.3389 14.6056 11.6519 16.7976 9.56071C17.0316 9.33728 16.8357 8.99659 16.5758 8.99659C16.5166 8.99659 16.4538 9.01455 16.3925 9.05522C13.4377 11.0149 9.3404 13.7346 8.81906 14.089C8.29771 14.4429 7.78958 14.6701 7.11242 14.6701C6.76644 14.6701 6.37609 14.6109 5.91708 14.4789C4.89077 14.1841 3.88876 13.8329 3.49842 13.6987C1.99567 13.1832 2.35221 12.515 3.81165 11.8727C9.66313 9.29872 17.235 6.16011 18.2803 5.72592C19.2987 5.30283 20.0551 5.06778 20.5817 5.06778ZM20.5817 3.48315C19.8591 3.48315 18.9892 3.71609 17.6734 4.26173L17.5155 4.32723C11.898 6.6598 6.80447 8.82439 3.17357 10.4217C2.60628 10.6715 0.880621 11.4306 0.947703 13.0184C0.976226 13.7034 1.35337 14.6373 2.98447 15.1967L3.1049 15.2379C3.56022 15.3948 4.50835 15.7217 5.48025 16.0011C6.07185 16.1712 6.60639 16.2536 7.11294 16.2536C7.99188 16.2536 8.67274 16.0027 9.20517 15.7106C9.20253 15.7994 9.20465 15.8886 9.21151 15.9784C9.30765 17.1997 10.2521 17.8694 10.8162 18.2698L10.8949 18.3258C11.7279 18.9216 15.4977 21.4121 15.9245 21.6936C16.7279 22.224 17.4531 22.4812 18.1425 22.4812C19.2263 22.4812 20.6266 21.9023 21.139 19.144C21.6255 16.5278 22.1875 12.8731 22.5979 10.2046C22.7727 9.06578 22.9164 8.13191 23.0078 7.58416C23.1921 6.47809 23.2766 5.22518 22.507 4.31719C22.1838 3.93688 21.588 3.48315 20.5817 3.48315Z" fill="#263238"/>
</g>
<defs>
<clipPath id="clip0_4433_6730">
<rect width="24" height="24" fill="white" transform="translate(0.945801 0.831543)"/>
</clipPath>
</defs>
</svg>
