<svg width="41" height="41" viewBox="0 0 41 41" fill="none" xmlns="http://www.w3.org/2000/svg">
<rect x="0.945801" y="0.831543" width="40" height="40" rx="20" fill="white"/>
<path d="M28.6555 11.986C28.6555 11.986 30.5981 11.2285 30.4362 13.0682C30.3823 13.8257 29.8966 16.4769 29.5189 19.3446L28.2238 27.8395C28.2238 27.8395 28.1159 29.084 27.1445 29.3004C26.1732 29.5168 24.7162 28.5429 24.4464 28.3265C24.2305 28.1642 20.3992 25.7293 19.0501 24.5389C18.6724 24.2143 18.2407 23.565 19.1041 22.8075L24.7702 17.3968C25.4177 16.7475 26.0653 15.2325 23.3671 17.0721L15.8124 22.2123C15.8124 22.2123 14.949 22.7534 13.3301 22.2664L9.82251 21.1843C9.82251 21.1843 8.52741 20.3727 10.7399 19.561C16.1362 17.018 22.7736 14.4208 28.6555 11.986Z" fill="#6B7073"/>
</svg>
