<svg xmlns="http://www.w3.org/2000/svg" width="64" height="64" viewBox="0 0 64 64">
    <path fill="#598DCA" fill-rule="evenodd" d="M36.445 19.502c-2.794 1.016-4.56 3.638-4.359 6.508l.068 1.107-1.118-.136c-4.067-.52-7.622-2.281-10.64-5.242l-1.474-1.47-.38 1.086c-.804 2.419-.29 4.971 1.385 6.689.894.95.693 1.085-.849.52-.536-.181-1.005-.317-1.05-.25-.156.16.38 2.215.804 3.029.581 1.13 1.765 2.238 3.062 2.893l1.096.52-1.296.022c-1.251 0-1.296.022-1.162.497.447 1.468 2.213 3.028 4.18 3.706l1.385.474-1.206.723a12.571 12.571 0 0 1-5.99 1.673c-1.008.022-1.834.113-1.834.18 0 .226 2.727 1.491 4.313 1.988 4.76 1.469 10.416.836 14.663-1.671 3.017-1.786 6.034-5.334 7.443-8.768.76-1.83 1.52-5.176 1.52-6.779 0-1.04.067-1.175 1.318-2.418.738-.724 1.43-1.514 1.565-1.74.224-.43.2-.43-.939-.047-1.9.68-2.168.59-1.228-.427.692-.724 1.52-2.035 1.52-2.42 0-.066-.335.045-.716.249-.402.226-1.296.565-1.967.768l-1.206.385-1.096-.747c-.604-.406-1.452-.858-1.9-.994-1.14-.315-2.884-.27-3.912.092zM0 0h64v64H0V0z"/>
</svg>
