<?xml version="1.0" encoding="UTF-8"?>
<svg width="35px" height="35px" viewBox="0 0 35 35" version="1.1" xmlns="http://www.w3.org/2000/svg" xmlns:xlink="http://www.w3.org/1999/xlink">
    <!-- Generator: Sketch 49.3 (51167) - http://www.bohemiancoding.com/sketch -->
    <title>Twitter</title>
    <desc>Created with Sketch.</desc>
    <defs></defs>
    <g id="Blog" stroke="none" stroke-width="1" fill="none" fill-rule="evenodd">
        <g id="Tablet_01_Blog_MainPage_01a" transform="translate(-312.000000, -2650.000000)" fill-rule="nonzero">
            <g id="FOOTER" transform="translate(0.000000, 2626.000000)">
                <g id="Socials" transform="translate(257.000000, 24.000000)">
                    <g id="Twitter" transform="translate(55.000000, 0.000000)">
                        <path d="M17.5,0 C7.83453125,0 0,7.83453125 0,17.5 C0,27.164375 7.83453125,35 17.5,35 C27.1654687,35 35,27.164375 35,17.5 C35,7.83453125 27.1654687,0 17.5,0 Z" id="Shape" fill="#00ABEB"></path>
                        <path d="M19.9346875,9.7190625 C18.195625,10.3523437 17.0964062,11.9842187 17.2210937,13.7703125 L17.2626562,14.459375 L16.5670312,14.3751562 C14.035,14.0514062 11.8223438,12.954375 9.94328125,11.1114062 L9.02453125,10.1970312 L8.789375,10.871875 C8.2884375,12.376875 8.60890625,13.9671875 9.65234375,15.036875 C10.2090625,15.6275 10.0832812,15.7117187 9.1240625,15.360625 C8.79046875,15.2479687 8.49734375,15.16375 8.47,15.2064062 C8.37265625,15.3048437 8.70625,16.5845312 8.9709375,17.0920312 C9.33296875,17.7964062 10.0701562,18.484375 10.8773437,18.8934375 L11.5598437,19.2171875 L10.7515625,19.2292187 C9.9728125,19.2292187 9.944375,19.2434375 10.0285938,19.5398437 C10.3064063,20.4542187 11.405625,21.4254687 12.630625,21.8476562 L13.4935937,22.1429687 L12.7421875,22.5935937 C11.62875,23.2421875 10.320625,23.6075 9.0125,23.63375 C8.38578125,23.6479687 7.870625,23.70375 7.870625,23.7464062 C7.870625,23.8864062 9.56921875,24.6739062 10.5557812,24.9845312 C13.5198437,25.8989062 17.040625,25.5040625 19.6842187,23.9432812 C21.5632812,22.8320312 23.44125,20.6226562 24.3184375,18.4832812 C24.7920312,17.3446875 25.2645312,15.2621875 25.2645312,14.2635937 C25.2645312,13.6160937 25.3060937,13.531875 26.0848437,12.7585937 C26.5442187,12.3079687 26.9751562,11.8157812 27.059375,11.6757812 C27.199375,11.4078125 27.1840625,11.4078125 26.4753125,11.6473437 C25.2929688,12.0695312 25.125625,12.01375 25.7107812,11.3804687 C26.1417187,10.9298437 26.656875,10.1139062 26.656875,9.87546875 C26.656875,9.83390625 26.4479687,9.90390625 26.2117187,10.0296875 C25.96125,10.1707812 25.4045312,10.381875 24.9867187,10.5076562 L24.2353125,10.7471875 L23.5539062,10.28125 C23.1776562,10.0285937 22.6504687,9.74640625 22.3715625,9.6621875 C21.660625,9.4653125 20.575625,9.49375 19.9346875,9.7190625 Z" id="Shape" fill="#FFFFFF"></path>
                    </g>
                </g>
            </g>
        </g>
    </g>
</svg>