<svg width="41" height="41" viewBox="0 0 41 41" fill="none" xmlns="http://www.w3.org/2000/svg">
<rect x="0.945801" y="0.831543" width="40" height="40" rx="20" fill="white"/>
<path d="M32.9441 13.3908C32.0615 13.7818 31.1135 14.0461 30.1168 14.1655C31.1452 13.5502 31.9146 12.5817 32.2814 11.4408C31.3152 12.0147 30.2577 12.4186 29.155 12.6351C28.4135 11.8433 27.4313 11.3185 26.3609 11.1422C25.2905 10.9658 24.1919 11.1478 23.2355 11.6598C22.2791 12.1719 21.5186 12.9853 21.0719 13.9739C20.6252 14.9625 20.5174 16.0709 20.7653 17.127C18.8075 17.0287 16.8923 16.5198 15.144 15.6335C13.3956 14.7471 11.8532 13.503 10.6168 11.9819C10.194 12.7112 9.95092 13.5567 9.95092 14.4572C9.95045 15.2679 10.1501 16.0661 10.5321 16.7811C10.9141 17.4961 11.4667 18.1057 12.1408 18.5559C11.359 18.531 10.5944 18.3198 9.91076 17.9397V18.0032C9.91068 19.1401 10.304 20.2421 11.0239 21.1221C11.7438 22.0021 12.746 22.6059 13.8604 22.8311C13.1352 23.0274 12.3748 23.0563 11.6367 22.9157C11.9511 23.894 12.5636 24.7495 13.3884 25.3624C14.2132 25.9753 15.209 26.3149 16.2364 26.3337C14.4923 27.7029 12.3384 28.4455 10.1211 28.4423C9.72832 28.4424 9.33588 28.4194 8.9458 28.3736C11.1965 29.8207 13.8164 30.5887 16.4922 30.5857C25.5499 30.5857 30.5015 23.0837 30.5015 16.5774C30.5015 16.366 30.4962 16.1525 30.4867 15.9411C31.4499 15.2446 32.2813 14.3821 32.9419 13.394L32.9441 13.3908Z" fill="#6B7073"/>
</svg>
