<svg width="25" height="25" viewBox="0 0 25 25" fill="none" xmlns="http://www.w3.org/2000/svg">
<path d="M24.4162 4.89079C23.5337 5.28185 22.5856 5.54607 21.589 5.66551C22.6174 5.05016 23.3867 4.08169 23.7535 2.94079C22.7874 3.51468 21.7299 3.91864 20.6272 4.1351C19.8856 3.34333 18.9034 2.81853 17.8331 2.64218C16.7627 2.46583 15.664 2.6478 14.7077 3.15983C13.7513 3.67187 12.9908 4.48532 12.5441 5.47389C12.0974 6.46247 11.9896 7.57085 12.2374 8.62697C10.2797 8.52868 8.3645 8.01983 6.61615 7.13346C4.8678 6.24708 3.32537 5.00299 2.08895 3.48193C1.66618 4.21119 1.42309 5.05672 1.42309 5.95721C1.42262 6.76786 1.62225 7.56609 2.00427 8.28108C2.38628 8.99607 2.93888 9.60571 3.61301 10.0559C2.83119 10.031 2.06662 9.81979 1.38293 9.43974V9.50315C1.38285 10.6401 1.77614 11.7421 2.49605 12.6221C3.21597 13.5021 4.21817 14.1059 5.33261 14.3311C4.60734 14.5274 3.84695 14.5563 3.10887 14.4157C3.4233 15.394 4.03577 16.2495 4.86056 16.8624C5.68534 17.4753 6.68114 17.8149 7.70855 17.8337C5.96447 19.2029 3.81054 19.9455 1.59326 19.9423C1.20049 19.9424 0.80805 19.9194 0.417969 19.8736C2.66864 21.3207 5.28858 22.0887 7.96432 22.0857C17.0221 22.0857 21.9737 14.5837 21.9737 8.07738C21.9737 7.866 21.9684 7.6525 21.9589 7.44112C22.9221 6.74459 23.7534 5.88206 24.4141 4.89396L24.4162 4.89079Z" fill="#959A9D"/>
</svg>
