<?xml version="1.0" encoding="UTF-8"?>
<svg width="36px" height="37px" viewBox="0 0 36 37" version="1.1" xmlns="http://www.w3.org/2000/svg" xmlns:xlink="http://www.w3.org/1999/xlink">
    <!-- Generator: Sketch 51.1 (57501) - http://www.bohemiancoding.com/sketch -->
    <title>Twitter</title>
    <desc>Created with Sketch.</desc>
    <defs></defs>
    <g id="Blog" stroke="none" stroke-width="1" fill="none" fill-rule="evenodd">
        <g id="Blog-Page-1440" transform="translate(-215.000000, -241.000000)" fill-rule="nonzero">
            <g id="Group" transform="translate(215.000000, 186.000000)">
                <g id="Twitter" transform="translate(0.000000, 55.000000)">
                    <path d="M17.9018057,0.125 C8.01441463,0.125 0,8.24301758 0,18.2582237 C0,28.2722965 8.01441463,36.3914474 17.9018057,36.3914474 C27.7891967,36.3914474 35.8036114,28.2722965 35.8036114,18.2582237 C35.8036114,8.24301758 27.7891967,0.125 17.9018057,0.125 Z" id="Shape" fill="#03A9F4"></path>
                    <path d="M20.4984137,10.5352357 C18.7194218,11.1914318 17.5949646,12.8823549 17.722515,14.733077 L17.7650317,15.4470727 L17.053435,15.3598066 C14.4632675,15.0243419 12.1998079,13.8876155 10.2776015,11.9779603 L9.33775672,11.0304994 L9.09720121,11.7297618 C8.58476202,13.2892191 8.91258884,14.9370758 9.979984,16.0454691 C10.5494852,16.6574654 10.420816,16.7447315 9.43957324,16.3809337 C9.09832007,16.2642011 8.79846483,16.1769349 8.77049326,16.2211347 C8.67091446,16.3231341 9.01216763,17.649126 9.28293244,18.1749895 C9.65327605,18.9048518 10.4073896,19.6177141 11.2331104,20.0415782 L11.9312808,20.3770429 L11.1044412,20.3895095 C10.3078108,20.3895095 10.2787204,20.4042427 10.3648728,20.7113742 C10.649064,21.6588351 11.7735212,22.665229 13.0266476,23.1026931 L13.9094304,23.4086912 L13.1407716,23.8756217 C12.0017692,24.5476843 10.6636092,24.9262154 9.32544923,24.9534152 C8.68434082,24.9681485 8.15735641,25.0259481 8.15735641,25.0701478 C8.15735641,25.2152136 9.89495043,26.0312087 10.9041647,26.3530734 C13.9362831,27.3005343 17.5379026,26.8914035 20.2421941,25.2741466 C22.1644005,24.1226869 24.085488,21.8333674 24.982816,19.6165808 C25.4672836,18.4367879 25.9506324,16.2789343 25.9506324,15.2442073 C25.9506324,14.573278 25.9931492,14.4860118 26.7897795,13.68475 C27.2597019,13.2178195 27.7005339,12.7078226 27.7866863,12.5627568 C27.9299008,12.2850918 27.9142367,12.2850918 27.1892136,12.5332903 C25.9797228,12.9707543 25.8085368,12.9129547 26.4071284,12.2567586 C26.8479604,11.7898281 27.3749448,10.9443666 27.3749448,10.6973014 C27.3749448,10.654235 27.161242,10.7267679 26.9195676,10.8571004 C26.663348,11.0032996 26.0938468,11.2220316 25.6664412,11.3523641 L24.8977824,11.6005626 L24.2007309,11.1177655 C23.8158421,10.8559671 23.2765502,10.5635689 22.9912401,10.4763027 C22.2639793,10.272304 21.1540673,10.3017705 20.4984137,10.5352357 Z" id="Shape" fill="#FFFFFF"></path>
                </g>
            </g>
        </g>
    </g>
</svg>