<?xml version="1.0" encoding="UTF-8"?>
<svg width="20px" height="20px" viewBox="0 0 20 20" version="1.1" xmlns="http://www.w3.org/2000/svg" xmlns:xlink="http://www.w3.org/1999/xlink">
    <!-- Generator: Sketch 51.1 (57501) - http://www.bohemiancoding.com/sketch -->
    <title>world (1)</title>
    <desc>Created with Sketch.</desc>
    <defs/>
    <g id="Page-1" stroke="none" stroke-width="1" fill="none" fill-rule="evenodd">
        <g id="A-ADS-Design-Concept" transform="translate(-150.000000, -6813.000000)" fill="#03A9F4" fill-rule="nonzero" stroke="#03A9F4" stroke-width="0.5">
            <g id="world-(1)" transform="translate(150.000000, 6813.000000)">
                <path d="M10,0.476029741 C4.75809375,0.476029741 0.493317187,4.72535421 0.493317187,9.94826805 C0.493317187,15.1711819 4.75809375,19.4204581 10,19.4204581 C15.2419062,19.4204581 19.5066828,15.1711336 19.5066828,9.94821979 C19.5066828,4.72530595 15.2419062,0.476029741 10,0.476029741 Z M10,18.5967705 C5.21403594,18.5967705 1.32,14.7172778 1.32,9.94821979 C1.32,5.17916182 5.21403594,1.29966906 10,1.29966906 C14.7864,1.29966906 18.68,5.17916182 18.68,9.94821979 C18.68,14.7172778 14.7864,18.5967705 10,18.5967705 Z" id="Shape"/>
                <path d="M13.9895062,1.35116462 C13.9514828,1.33388682 13.9113766,1.32191785 13.8700594,1.31656076 L13.7745891,1.30377133 C13.6274359,1.28277736 13.4815422,1.34411837 13.3918359,1.46149156 C13.3017422,1.57886474 13.2814953,1.73455796 13.3385063,1.87084986 C13.6224469,2.54709702 13.9605891,3.91397344 13.5282359,4.22777298 L12.5701422,4.60952541 C11.8447422,4.8986148 11.3363422,5.5625069 11.2433422,6.34459264 L11.2371422,6.39193766 C11.214425,6.55583542 11.0800594,6.60033298 11.0234359,6.6118676 C10.9209422,6.63247548 10.7841062,6.60776533 10.7055891,6.47678226 L10.2951297,5.79517801 C10.1442469,5.54436038 9.86568281,5.39527906 9.57636562,5.41299122 C9.28496562,5.42780765 9.02747187,5.60039257 8.90347187,5.86395136 C8.53437812,6.64931892 8.071025,7.78270377 7.95860156,8.72125492 C7.92387188,9.01241957 7.97594219,9.30647995 8.10904844,9.57211401 L8.585625,10.5218137 C8.75467187,10.857862 9.01386094,11.1428491 9.335825,11.3455013 C9.63260156,11.5320822 10.1827547,11.9084775 10.5332484,12.3301909 C10.9321312,12.8107839 11.4694484,13.1213499 12.0464844,13.2140129 C12.0233312,13.9853845 12.0741906,15.2534203 12.6011906,15.8135009 C12.7855437,16.0091068 13.0165906,16.1166345 13.2724375,16.1252734 C13.3187437,16.1314509 13.4001672,16.1397037 13.5055672,16.1397037 C13.8122734,16.1397037 14.3244031,16.070496 14.7926969,15.6850274 C15.4449562,15.1480161 15.7793203,14.2032392 15.7867797,12.8767098 L16.3786859,10.2220101 L16.6035328,10.5951237 C16.7862391,10.8986434 17.0916859,11.1119614 17.4405328,11.1803487 C17.7893797,11.248736 18.1530969,11.1655323 18.4379094,10.9530347 L19.3414625,10.277608 C19.4456031,10.1997613 19.5067797,10.0778515 19.5067797,9.94812326 C19.5066828,6.27176528 17.3408,2.89718959 13.9895062,1.35116462 Z M17.9417641,10.2941618 C17.8425641,10.3678579 17.7206469,10.3954638 17.5995047,10.3720084 C17.477975,10.3485531 17.3758688,10.276884 17.3122219,10.1710455 L16.8835984,9.45898788 C16.7422578,9.22380714 16.4760453,9.10025642 16.2032453,9.14436789 C15.9317047,9.18843109 15.7175625,9.38982843 15.6576453,9.65753775 L14.9698813,12.7417692 C14.9632453,12.771016 14.9599516,12.8010832 14.9599516,12.8311505 C14.9599516,13.9006847 14.7235281,14.6650583 14.2763047,15.041888 C13.8675406,15.3861891 13.4000219,15.3116243 13.3851516,15.3095973 C13.3318219,15.2997036 13.2913281,15.3425603 13.2045281,15.2502833 C12.9470344,14.9763964 12.8168344,14.0205192 12.8879406,12.9250683 C12.8962234,12.7949057 12.8494813,12.6651774 12.7598234,12.570053 C12.6697297,12.4741082 12.5415641,12.4193308 12.4093297,12.4193308 C11.9459766,12.4193308 11.4942,12.1956847 11.1697656,11.8056795 C10.7675891,11.3209359 10.1901656,10.9091162 9.77684844,10.6492254 C9.58256563,10.5269295 9.42635469,10.3555993 9.32507188,10.1537677 L8.84849531,9.20406798 C8.78775469,9.08297862 8.76377813,8.94953418 8.77947188,8.81859937 C8.88075469,7.97599308 9.33790781,6.89038762 9.62223594,6.27799107 L9.99714219,6.90028133 C10.2451422,7.31210099 10.7126125,7.51431877 11.189625,7.41837392 C11.6521547,7.32406996 11.9927188,6.9653385 12.0563656,6.50366419 L12.0650359,6.43860702 C12.1216594,5.95883446 12.4329188,5.55111707 12.8772359,5.37399552 L13.8737891,4.97699229 C13.8944719,4.96873949 13.9151063,4.95845968 13.9345297,4.94692506 C14.7198469,4.47168913 14.6181766,3.33415375 14.4119297,2.50144117 C16.9717063,4.01165573 18.6060359,6.75694318 18.6775297,9.74440935 L17.9417641,10.2941618 Z" id="Shape"/>
                <path d="M8.05111719,15.6607999 L7.80064688,15.4116232 C7.49684688,15.1084895 7.1421875,14.8696409 6.74708281,14.7007722 L5.47235313,14.1563285 C4.95857656,13.9368329 4.62668281,13.4351977 4.62668281,12.8780129 L4.62668281,12.258184 C4.62668281,11.8788929 4.43985938,11.5238776 4.12695313,11.3076639 C3.81404688,11.0918844 3.41438906,11.0428503 3.05808281,11.1754742 L1.07325938,11.9167786 C0.874035938,11.9913434 0.763695313,12.2042271 0.819059375,12.4093406 C1.74944688,15.8617629 4.62256563,18.5423792 8.13878906,19.2379795 C8.16605938,19.2433366 8.19332969,19.2457979 8.219825,19.2457979 C8.40127187,19.2457979 8.56576563,19.1267838 8.61744844,18.9472009 L8.76871875,18.4192146 C9.04975313,17.4387238 8.77487031,16.3815446 8.05111719,15.6607999 Z M7.97385938,18.1927693 L7.9292,18.3476421 C5.00982344,17.6331231 2.63028281,15.4120575 1.723,12.5539335 L3.34822344,11.9468941 C3.4528,11.9073675 3.5647875,11.9213635 3.65614063,11.9847797 C3.74749375,12.0478099 3.8,12.1474709 3.8,12.2582322 L3.8,12.8780611 C3.8,13.765165 4.32864688,14.5640942 5.14665938,14.9133663 L6.42138906,15.4578099 C6.7198125,15.5854629 6.98723594,15.7658663 7.21624844,15.9940008 L7.46671875,16.2431775 C7.97797656,16.7525829 8.17264688,17.4996304 7.97385938,18.1927693 Z" id="Shape"/>
                <path d="M5.66702344,1.90468152 C5.53764687,1.74570648 5.31071719,1.70574555 5.13421094,1.81076366 C2.40456406,3.43463524 0.674764063,6.28701607 0.507364063,9.44045527 C0.499904688,9.58007724 0.5639875,9.71390777 0.677670312,9.79585665 C0.749164062,9.8477383 0.833929688,9.87408935 0.91990625,9.87408935 C0.970765625,9.87408935 1.02157656,9.86463 1.06952969,9.84648349 L3.63342344,8.83829027 C4.24765938,8.59326409 4.56468281,7.91209419 4.35552969,7.28690822 C4.30467031,7.13411072 4.34395313,6.96857206 4.45802344,6.85448069 L5.64924688,5.66757328 C6.05597656,5.2627516 6.28,4.72405114 6.28,4.15079508 L6.28,3.61499034 C6.28,2.99728498 6.06217656,2.38981116 5.66702344,1.90468152 Z M5.45331719,4.15040899 C5.45331719,4.50378336 5.31527031,4.83529505 5.06436406,5.08485787 L3.87314063,6.27176528 C3.53625781,6.60781359 3.42054063,7.09627332 3.57142344,7.5467991 C3.64252969,7.7589106 3.53465938,7.9899408 3.32671719,8.07271014 L1.39149375,8.83708372 C1.71263438,6.34589571 3.10724688,4.11662559 5.2263875,2.72503903 C5.37436406,2.99892589 5.45331719,3.30529307 5.45331719,3.61460424 L5.45331719,4.15040899 Z" id="Shape"/>
            </g>
        </g>
    </g>
</svg>