<?xml version="1.0" encoding="UTF-8"?>
<svg width="170px" height="45px" viewBox="0 0 170 45" version="1.1" xmlns="http://www.w3.org/2000/svg" xmlns:xlink="http://www.w3.org/1999/xlink">
    <!-- Generator: Sketch 51.1 (57501) - http://www.bohemiancoding.com/sketch -->
    <title>Group</title>
    <desc>Created with Sketch.</desc>
    <defs/>
    <g id="Main-pages" stroke="none" stroke-width="1" fill="none" fill-rule="evenodd">
        <g id="NewLogo" transform="translate(-151.000000, -30.000000)">
            <g id="Group" transform="translate(151.000000, 30.000000)">
                <g id="Group-8" transform="translate(72.000000, 12.000000)">
                    <path d="M0.31377471,19.1251954 L7.56781875,2.17009188 C8.09135771,0.946407939 9.29411804,0.152777778 10.6250934,0.152777778 L10.6250934,0.152777778 C11.9565831,0.152777778 13.1603323,0.945203251 13.6867058,2.16823051 L20.8125173,18.725032 C21.298225,19.8535723 20.7771061,21.1621788 19.6485658,21.6478865 C19.3990271,21.7552844 19.1319271,21.816067 18.8604876,21.8272254 L18.8604876,21.8272254 C17.7901136,21.7458032 16.8568588,21.0684501 16.4476883,20.0760239 L15.1370903,16.8972222 L5.98948019,16.8972222 L4.70466981,20.0696943 C4.27444215,21.1320239 3.24284699,21.8272254 2.09670557,21.8272254 C2.09670557,21.8272254 2.09670557,21.8272254 2.09670557,21.8272254 C2.09670557,21.8272254 2.09670557,21.8272254 2.09670557,21.8272254 L2.09670557,21.8272254 C1.02570185,21.8272254 0.157481784,20.9590054 0.157481784,19.8880016 C0.157481784,19.6257834 0.210661283,19.3662888 0.313804802,19.1252082 Z M7.68920504,12.7416667 L13.4373654,12.7416667 L11.4259116,7.3160851 C11.2492877,6.83966972 10.7198947,6.59664074 10.2434793,6.77326467 C9.99208704,6.86646463 9.79385885,7.06469281 9.7006589,7.3160851 L7.68920504,12.7416667 Z M33.2040633,18.990103 L40.4439576,2.16823051 C40.9703311,0.945203251 42.1740803,0.152777778 43.50557,0.152777778 L43.50557,0.152777778 C44.8370596,0.152777778 46.0408089,0.945203251 46.5671824,2.16823051 L53.7149674,18.7760875 C54.1716156,19.8371083 53.6816749,21.067422 52.6206542,21.5240702 C52.3594882,21.6364723 52.0781466,21.6944444 51.7938195,21.6944444 C51.7938195,21.6944444 51.7938195,21.6944444 51.7938195,21.6944444 C51.7938195,21.6944444 51.7938195,21.6944444 51.7938195,21.6944444 L51.7938195,21.6944444 C50.7055425,21.6944444 49.7247561,21.0379398 49.3099404,20.0318211 L48.0175668,16.8972222 L38.8699567,16.8972222 L37.6192749,19.9306998 C37.1792299,20.9980109 36.1387917,21.6944444 34.9843253,21.6944444 L34.9843253,21.6944444 C33.913919,21.6944444 33.0461833,20.8267087 33.0461833,19.7563024 C33.0461833,19.4928263 33.0999041,19.2321166 33.2040633,18.990103 Z M40.5696816,12.7416667 L46.317842,12.7416667 L44.3063881,7.3160851 C44.1297642,6.83966972 43.6003713,6.59664074 43.1239559,6.77326467 C42.8725636,6.86646463 42.6743354,7.06469281 42.5811355,7.3160851 L40.5696816,12.7416667 Z M57.9139389,18.0144444 L57.9139389,3.98555562 C57.9139389,1.95314771 59.561531,0.305555556 61.5939389,0.305555556 L66.3507549,0.305555556 C73.1496543,0.305555556 77.3789549,4.91944444 77.3789549,11 C77.3789549,17.0194444 73.1496543,21.6944444 66.3507549,21.6944444 L61.5939389,21.6944444 C59.561531,21.6944444 57.9139389,20.0468523 57.9139389,18.0144444 Z M63.5931685,17.4472222 L66.3507549,17.4472222 C70.24467,17.4472222 72.4033967,14.85 72.4033967,11 C72.4033967,7.21111111 70.24467,4.55277778 66.3507549,4.55277778 L63.5931685,4.55277778 C63.0850665,4.55277778 62.6731685,4.96467582 62.6731685,5.47277779 L62.6731685,16.5272222 C62.6731685,17.0353242 63.0850665,17.4472222 63.5931685,17.4472222 Z M89.9552975,22 C94.6218145,22 97.8976482,19.6166667 97.8976482,15.3694444 C97.8976482,11.5805556 95.4253211,10.0222222 91.0369406,8.89166667 C87.2975459,7.94444444 86.3704233,7.48611111 86.3704233,6.08055556 C86.3704233,4.98055556 87.6160443,4.07026423 89.0707064,4.07026423 C90.5253684,4.07026423 93.1693227,5.07321322 94.2088921,5.45912201 C95.2484615,5.84503081 96.6249431,5.90830719 97.1747964,4.98928571 C97.7246496,4.07026423 97.6457212,3.05888702 96.8071753,2.28293651 C95.9686295,1.506986 92.3658164,0 89.2135994,0 C84.7943148,0 81.6420978,2.56666667 81.6420978,6.44722222 C81.6420978,10.7555556 84.4543698,11.9472222 88.8118462,13.0472222 C92.4276246,13.9638889 93.1693227,14.575 93.1693227,15.7666667 C93.1693227,17.0805556 91.9022551,18.0678193 89.9552975,18.0678193 C87.4829705,18.0678193 84.7970656,16.2099283 84.0161102,15.8059524 C83.2351549,15.4019765 81.9524775,15.3056258 81.2029013,16.3197785 C80.453325,17.3339312 81.0216451,18.570894 81.7491986,19.2480421 C82.4767521,19.9251903 85.6445288,22 89.9552975,22 Z" id="A-ADS" fill="#263238"/>
                    <path d="M27.2670421,12.7144699 C28.4820685,12.7144699 29.4670421,11.7294964 29.4670421,10.5144699 C29.4670421,9.29944346 28.4820685,8.31446991 27.2670421,8.31446991 C26.0520156,8.31446991 25.0670421,9.29944346 25.0670421,10.5144699 C25.0670421,11.7294964 26.0520156,12.7144699 27.2670421,12.7144699 Z" id="Oval-2" fill="#03A9F4"/>
                </g>
                <g id="a-ads-icon" fill="#03A9F4" fill-rule="nonzero">
                    <path d="M11.8224852,42.5057737 C10.6508876,41.743649 9.72781065,40.73903 9.12426036,39.5612009 C8.4852071,38.4180139 8.13017751,37.1016166 8.13017751,35.7505774 C8.13017751,34.1916859 8.55621302,32.7367206 9.37278107,31.4896074 C10.1538462,30.2078522 11.2899408,29.1685912 12.7100592,28.4757506 C13.2426036,28.1986143 13.8816568,28.4064665 14.1301775,28.926097 C14.3431953,29.3071594 14.2721893,29.7575058 13.9881657,30.0692841 C13.8461538,30.2424942 13.739645,30.4503464 13.6686391,30.6581986 C13.5621302,30.8660508 13.5266272,31.108545 13.5266272,31.3510393 C13.5266272,31.9399538 13.7751479,32.4595843 14.1656805,32.8406467 C14.556213,33.221709 15.0887574,33.4642032 15.6923077,33.4642032 C15.9408284,33.4642032 16.1893491,33.3949192 16.4378698,33.3256351 C16.6508876,33.256351 16.8639053,33.1177829 17.0769231,32.9445727 C18.2130178,32.0092379 19.4911243,31.2124711 20.8402367,30.5542725 C21.6213018,30.2078522 22.4023669,29.8960739 23.183432,29.6535797 C22.4023669,28.8221709 21.7988166,27.852194 21.3727811,26.778291 C20.2721893,26.7090069 19.3136095,26.2586605 18.5680473,25.5311778 C17.7514793,24.7344111 17.2544379,23.6605081 17.2544379,22.448037 C17.2544379,21.2702079 17.7514793,20.1963048 18.5680473,19.3995381 C18.6035503,19.3648961 18.6035503,19.3648961 18.6390533,19.330254 C19.4556213,18.5681293 20.5207101,18.1177829 21.7278107,18.1177829 L22.5088757,14.5496536 C21.0532544,15.5889145 19.2781065,16.2124711 17.3609467,16.2124711 L10.7928994,16.2124711 C8.66272189,16.2124711 6.71005917,15.4849885 5.21893491,14.2032333 C3.69230769,12.9561201 2.66272189,11.1893764 2.30769231,9.18013857 L1.49112426,4.15704388 C1.49112426,4.15704388 1.49112426,4.12240185 1.49112426,4.08775982 L1.49112426,4.05311778 C1.13609467,3.94919169 0.852071006,3.77598152 0.603550296,3.5334873 C0.213017751,3.15242494 0,2.63279446 0,2.07852194 C0,1.55889145 0.213017751,1.073903 0.532544379,0.692840647 C0.568047337,0.658198614 0.568047337,0.623556582 0.603550296,0.623556582 C0.99408284,0.242494226 1.52662722,0 2.09467456,0 L5.14792899,0 L23.2544379,0 L23.2899408,0 C24.3195266,0 25.2071006,0.415704388 25.8816568,1.073903 C25.9881657,1.1778291 26.1301775,1.31639723 26.2366864,1.45496536 C26.6272189,1.24711316 27.0532544,1.073903 27.4792899,0.935334873 C28.295858,0.692840647 29.147929,0.554272517 30,0.554272517 C30.852071,0.554272517 31.704142,0.692840647 32.5207101,0.935334873 C32.9467456,1.073903 33.3727811,1.24711316 33.7633136,1.45496536 C33.8698225,1.31639723 34.0118343,1.1778291 34.1183432,1.073903 C34.7928994,0.415704388 35.6804734,0 36.7100592,0 L36.7455621,0 L54.852071,0 L57.8698225,0 L57.9053254,0 C58.4733728,0 59.0059172,0.242494226 59.3964497,0.623556582 C59.3964497,0.623556582 59.4319527,0.658198614 59.4674556,0.692840647 C59.7869822,1.073903 60,1.55889145 60,2.07852194 C60,2.63279446 59.7514793,3.15242494 59.3964497,3.5334873 C59.147929,3.77598152 58.8284024,3.94919169 58.5088757,4.05311778 L58.5088757,4.08775982 C58.5088757,4.12240185 58.5088757,4.15704388 58.4733728,4.15704388 L57.6923077,9.18013857 C57.3372781,11.1893764 56.2721893,12.9561201 54.7810651,14.2032333 C53.2899408,15.4849885 51.3372781,16.2124711 49.2071006,16.2124711 L42.6390533,16.2124711 C40.7218935,16.2124711 38.9467456,15.5889145 37.4911243,14.5496536 L38.2721893,18.1177829 C39.5147929,18.1177829 40.6153846,18.6027714 41.4319527,19.3995381 C42.2130178,20.1963048 42.7100592,21.2702079 42.7100592,22.448037 C42.7100592,23.6605081 42.2130178,24.7344111 41.4319527,25.5311778 C40.6863905,26.2586605 39.6923077,26.7090069 38.6272189,26.778291 C38.2011834,27.852194 37.5621302,28.8221709 36.816568,29.6535797 C37.5976331,29.8960739 38.3786982,30.2078522 39.1597633,30.5542725 C40.5088757,31.2124711 41.7514793,32.0092379 42.9230769,32.9445727 C43.1360947,33.1177829 43.3491124,33.256351 43.5621302,33.3256351 C43.8106509,33.3949192 44.0591716,33.4642032 44.3076923,33.4642032 C44.9112426,33.4642032 45.443787,33.221709 45.8343195,32.8406467 C46.2248521,32.4595843 46.4733728,31.9399538 46.4733728,31.3510393 C46.4733728,31.108545 46.4378698,30.8660508 46.3313609,30.6581986 C46.260355,30.4503464 46.1538462,30.2424942 46.0118343,30.0692841 C45.7278107,29.7575058 45.6568047,29.3071594 45.8698225,28.926097 C46.1183432,28.4064665 46.7573964,28.1986143 47.2899408,28.4757506 C48.6745562,29.1685912 49.8461538,30.2078522 50.6272189,31.4896074 C51.443787,32.7367206 51.8698225,34.1916859 51.8698225,35.7505774 C51.8698225,37.1016166 51.5147929,38.4180139 50.8757396,39.5612009 C50.2721893,40.73903 49.3491124,41.743649 48.1775148,42.5057737 C46.9349112,43.3371824 45.5857988,43.960739 44.1656805,44.3764434 C42.7455621,44.7921478 41.2899408,45 39.7988166,45 C37.8461538,45 35.8934911,44.6189376 34.0828402,43.891455 C32.6272189,43.3025404 31.2426036,42.4711316 30,41.4318707 C28.7573964,42.4711316 27.3727811,43.3025404 25.8816568,43.891455 C24.1065089,44.6189376 22.1538462,45 20.2011834,45 C18.7100592,45 17.2189349,44.7921478 15.7988166,44.3764434 C14.4142012,43.960739 13.0650888,43.3371824 11.8224852,42.5057737 Z M33.6213018,6.72055427 C33.443787,5.8891455 32.9822485,5.23094688 32.3431953,4.7113164 C31.704142,4.22632794 30.887574,3.91454965 30,3.91454965 C29.112426,3.91454965 28.295858,4.22632794 27.6568047,4.7113164 C27.0177515,5.23094688 26.556213,5.8891455 26.3786982,6.72055427 L26.2366864,7.20554273 L26.2366864,7.24018476 L25.739645,9.63048499 L25.739645,9.66512702 L25.704142,9.66512702 L23.6094675,19.4688222 C23.5029586,20.0230947 22.9349112,20.404157 22.3668639,20.2655889 C22.3313609,20.2655889 22.295858,20.2655889 22.260355,20.2655889 C22.1893491,20.2309469 22.0828402,20.2309469 22.0118343,20.1963048 C21.9408284,20.1963048 21.8343195,20.1963048 21.7278107,20.1963048 C21.0887574,20.1963048 20.5207101,20.4387991 20.1301775,20.8198614 C20.0946746,20.8198614 20.0946746,20.8545035 20.0591716,20.8545035 C19.6331361,21.2702079 19.3846154,21.8244804 19.3846154,22.448037 C19.3846154,23.1062356 19.6331361,23.6605081 20.0591716,24.0762125 C20.2721893,24.2840647 20.556213,24.4572748 20.8402367,24.5612009 C20.8047337,24.2494226 20.7692308,23.9030023 20.7692308,23.556582 C20.7692308,23.0023095 21.2307692,22.517321 21.8343195,22.517321 C22.4023669,22.517321 22.8994083,23.0023095 22.8994083,23.556582 C22.8994083,24.2147806 22.9704142,24.8383372 23.147929,25.4272517 C23.147929,25.4618938 23.147929,25.4618938 23.183432,25.4965358 C23.5029586,26.6397229 24.1420118,27.6443418 24.9585799,28.4757506 C26.2366864,29.7228637 28.0118343,30.4849885 29.964497,30.4849885 L30,30.4849885 L30.035503,30.4849885 C31.9881657,30.4849885 33.7633136,29.7228637 35.0414201,28.4757506 C35.8579882,27.6443418 36.4970414,26.6397229 36.816568,25.4965358 C36.852071,25.4618938 36.852071,25.4618938 36.852071,25.4272517 C37.0295858,24.8383372 37.1005917,24.2147806 37.1005917,23.556582 C37.1005917,23.0023095 37.5976331,22.517321 38.1656805,22.517321 C38.7692308,22.517321 39.2307692,23.0023095 39.2307692,23.556582 C39.2307692,23.9030023 39.1952663,24.2494226 39.1597633,24.5612009 C39.443787,24.4572748 39.7278107,24.2840647 39.9408284,24.0762125 C40.3313609,23.6605081 40.6153846,23.1062356 40.6153846,22.448037 C40.6153846,21.8244804 40.3313609,21.2702079 39.9408284,20.8545035 C39.5147929,20.4387991 38.9112426,20.1963048 38.2721893,20.1963048 C38.1656805,20.1963048 38.0591716,20.1963048 37.9881657,20.1963048 C37.8816568,20.2309469 37.8106509,20.2309469 37.739645,20.2655889 C37.704142,20.2655889 37.6686391,20.2655889 37.6331361,20.2655889 C37.0650888,20.404157 36.4970414,20.0230947 36.3905325,19.4688222 L34.260355,9.66512702 L34.260355,9.63048499 L33.7633136,7.24018476 L33.7278107,7.20554273 L33.6213018,6.72055427 Z M36.3195266,9.2147806 L36.3550296,9.2147806 C36.6745562,10.669746 37.4911243,11.8822171 38.591716,12.7829099 C39.6923077,13.6489607 41.112426,14.1685912 42.6390533,14.1685912 L49.2071006,14.1685912 C50.8047337,14.1685912 52.260355,13.5796767 53.3964497,12.6443418 C54.5325444,11.7090069 55.3491124,10.3579677 55.5976331,8.83371824 L56.4142012,3.84526559 L56.4142012,3.81062356 C56.4142012,3.77598152 56.4142012,3.74133949 56.4142012,3.70669746 C56.4142012,3.70669746 56.4142012,3.67205543 56.4142012,3.60277136 C56.4142012,3.18706697 56.2366864,2.80600462 55.9526627,2.52886836 C55.6686391,2.2517321 55.2781065,2.07852194 54.852071,2.07852194 L36.7455621,2.07852194 C36.2840237,2.07852194 35.8934911,2.2517321 35.6094675,2.52886836 C35.3254438,2.80600462 35.147929,3.18706697 35.147929,3.60277136 C35.147929,3.67205543 35.147929,3.74133949 35.183432,3.77598152 C35.183432,3.81062356 35.183432,3.84526559 35.183432,3.87990762 L35.183432,3.91454965 L35.8224852,6.78983834 L35.8224852,6.82448037 L36.3195266,9.2147806 Z M23.6449704,9.2147806 L24.1775148,6.82448037 L24.1775148,6.78983834 L24.816568,3.91454965 L24.816568,3.87990762 C24.816568,3.84526559 24.816568,3.81062356 24.816568,3.77598152 C24.816568,3.74133949 24.852071,3.67205543 24.852071,3.60277136 C24.852071,3.18706697 24.6745562,2.80600462 24.3905325,2.52886836 C24.1065089,2.2517321 23.7159763,2.07852194 23.2544379,2.07852194 L5.14792899,2.07852194 C4.72189349,2.07852194 4.33136095,2.2517321 4.04733728,2.52886836 C3.76331361,2.80600462 3.58579882,3.18706697 3.58579882,3.60277136 C3.58579882,3.67205543 3.58579882,3.70669746 3.58579882,3.70669746 C3.58579882,3.74133949 3.58579882,3.77598152 3.58579882,3.81062356 L3.58579882,3.84526559 L4.40236686,8.83371824 C4.65088757,10.3579677 5.46745562,11.7090069 6.6035503,12.6443418 C7.70414201,13.5796767 9.19526627,14.1685912 10.7928994,14.1685912 L17.3609467,14.1685912 C18.887574,14.1685912 20.2721893,13.6489607 21.408284,12.7829099 C22.5088757,11.8822171 23.3254438,10.669746 23.6449704,9.2147806 Z" id="Shape"/>
                </g>
            </g>
        </g>
    </g>
</svg>